<?xml version="1.0" encoding="UTF-8" standalone="no"?>
<!-- Created with Inkscape (http://www.inkscape.org/) -->

<svg
   xmlns:dc="http://purl.org/dc/elements/1.1/"
   xmlns:cc="http://creativecommons.org/ns#"
   xmlns:rdf="http://www.w3.org/1999/02/22-rdf-syntax-ns#"
   xmlns:svg="http://www.w3.org/2000/svg"
   xmlns="http://www.w3.org/2000/svg"
   xmlns:sodipodi="http://sodipodi.sourceforge.net/DTD/sodipodi-0.dtd"
   xmlns:inkscape="http://www.inkscape.org/namespaces/inkscape"
   version="1.1"
   id="svg2"
   xml:space="preserve"
   width="440.39224"
   height="94.485329"
   viewBox="0 0 440.39225 94.48533"
   sodipodi:docname="USN_logo_Nn_rgb.svg"
   inkscape:version="0.92.3 (2405546, 2018-03-11)"><metadata
     id="metadata8"><rdf:RDF><cc:Work
         rdf:about=""><dc:format>image/svg+xml</dc:format><dc:type
           rdf:resource="http://purl.org/dc/dcmitype/StillImage" /><dc:title></dc:title></cc:Work></rdf:RDF></metadata><defs
     id="defs6"><clipPath
       clipPathUnits="userSpaceOnUse"
       id="clipPath20"><path
         d="M 0,155.905 H 440.141 V 0 H 0 Z"
         id="path18"
         inkscape:connector-curvature="0" /></clipPath></defs><sodipodi:namedview
     pagecolor="#ffffff"
     bordercolor="#666666"
     borderopacity="1"
     objecttolerance="10"
     gridtolerance="10"
     guidetolerance="10"
     inkscape:pageopacity="0"
     inkscape:pageshadow="2"
     inkscape:window-width="1919"
     inkscape:window-height="1020"
     id="namedview4"
     showgrid="false"
     fit-margin-top="0"
     fit-margin-left="0"
     fit-margin-right="0"
     fit-margin-bottom="0"
     inkscape:zoom="0.62707177"
     inkscape:cx="236.73467"
     inkscape:cy="47.241196"
     inkscape:window-x="1"
     inkscape:window-y="32"
     inkscape:window-maximized="1"
     inkscape:current-layer="g10" /><g
     id="g10"
     inkscape:groupmode="layer"
     inkscape:label="USN_logo_Nn_rgb"
     transform="matrix(1.3333333,0,0,-1.3333333,-56.692665,151.1808)"><path
       d="M 372.082,43.328 H 174.834 v 1.199 h 197.248 z"
       style="fill:#000000;fill-opacity:1;fill-rule:nonzero;stroke:none"
       id="path12"
       inkscape:connector-curvature="0" /><g
       id="g14"><g
         id="g16"
         clip-path="url(#clipPath20)"><g
           id="g22"
           transform="translate(174.4219,112.1973)"><path
             d="m 0,0 h 3.29 v -12.991 c 0,-2.426 1.282,-3.903 3.902,-3.903 2.649,0 3.959,1.505 3.959,3.847 V 0 h 3.262 v -13.159 c 0,-4.237 -2.899,-6.774 -7.221,-6.774 -4.32,0 -7.192,2.537 -7.192,6.774 z"
             style="fill:#000000;fill-opacity:1;fill-rule:nonzero;stroke:none"
             id="path24"
             inkscape:connector-curvature="0" /></g><g
           id="g26"
           transform="translate(192.8789,107.458)"><path
             d="m 0,0 h 3.066 v -1.422 h 0.056 c 0.781,1.004 2.315,1.84 3.986,1.84 3.235,0 5.27,-2.035 5.27,-5.52 v -9.673 h -3.15 v 8.837 c 0,2.174 -0.781,3.429 -2.872,3.429 -1.952,0 -3.178,-1.199 -3.178,-3.095 v -9.171 H 0 Z"
             style="fill:#000000;fill-opacity:1;fill-rule:nonzero;stroke:none"
             id="path28"
             inkscape:connector-curvature="0" /></g><path
           d="m 209.355,107.458 h 3.178 V 92.683 h -3.178 z m -0.055,5.575 h 3.29 v -3.15 h -3.29 z"
           style="fill:#000000;fill-opacity:1;fill-rule:nonzero;stroke:none"
           id="path30"
           inkscape:connector-curvature="0" /><g
           id="g32"
           transform="translate(215.0986,107.458)"><path
             d="M 0,0 H 3.29 L 7.248,-10.204 H 7.304 L 11.263,0 h 3.261 L 8.587,-14.775 H 5.938 Z"
             style="fill:#000000;fill-opacity:1;fill-rule:nonzero;stroke:none"
             id="path34"
             inkscape:connector-curvature="0" /></g><g
           id="g36"
           transform="translate(241.0254,101.5201)"><path
             d="M 0,0 C -0.111,1.979 -1.254,3.541 -3.624,3.541 -5.91,3.541 -7.081,1.7 -7.192,0 Z m 2.648,-5.799 c -1.142,-1.84 -3.01,-3.456 -6.132,-3.456 -4.015,0 -6.942,3.01 -6.942,7.805 0,4.795 2.927,7.806 6.802,7.806 3.848,0 6.719,-2.955 6.719,-7.806 V -2.397 H -7.22 c 0.083,-2.398 1.338,-4.043 3.68,-4.043 2.258,0 3.262,1.505 3.903,2.509 z"
             style="fill:#000000;fill-opacity:1;fill-rule:nonzero;stroke:none"
             id="path38"
             inkscape:connector-curvature="0" /></g><g
           id="g40"
           transform="translate(247.3271,107.458)"><path
             d="m 0,0 h 3.011 v -1.562 h 0.055 c 0.586,1.144 1.813,1.841 3.067,1.841 0.53,0 0.975,-0.14 1.31,-0.279 L 6.941,-3.095 c -0.306,0.084 -0.669,0.223 -1.17,0.223 -1.673,0 -2.593,-1.115 -2.593,-3.679 v -8.224 H 0 Z"
             style="fill:#000000;fill-opacity:1;fill-rule:nonzero;stroke:none"
             id="path42"
             inkscape:connector-curvature="0" /></g><g
           id="g44"
           transform="translate(259.2041,98.314)"><path
             d="m 0,0 c 0.251,-2.174 1.478,-3.373 3.568,-3.373 2.007,0 3.122,0.752 3.122,1.895 0,1.171 -0.919,1.45 -4.07,2.342 -3.345,0.948 -4.962,2.091 -4.962,4.321 0,2.231 1.896,4.377 5.437,4.377 3.54,0 5.38,-1.84 6.049,-4.321 L 6.468,4.46 C 5.994,5.854 5.13,6.914 3.095,6.914 1.422,6.914 0.558,6.133 0.558,5.325 c 0,-0.976 0.613,-1.227 4.348,-2.286 3.737,-1.06 4.657,-2.426 4.657,-4.572 0,-2.063 -1.702,-4.516 -5.883,-4.516 -4.349,0 -6.217,2.676 -6.579,5.352 z"
             style="fill:#000000;fill-opacity:1;fill-rule:nonzero;stroke:none"
             id="path46"
             inkscape:connector-curvature="0" /></g><path
           d="m 271.89,107.458 h 3.178 V 92.683 h -3.178 z m -0.056,5.575 h 3.29 v -3.15 h -3.29 z"
           style="fill:#000000;fill-opacity:1;fill-rule:nonzero;stroke:none"
           id="path48"
           inkscape:connector-curvature="0" /><g
           id="g50"
           transform="translate(280.0029,104.7256)"><path
             d="M 0,0 H -2.23 V 2.732 H 0.083 V 6.356 H 3.094 V 2.732 H 6.802 V 0 h -3.68 v -6.774 c 0,-1.533 0.307,-2.203 1.924,-2.203 h 1.171 v -3.066 H 4.795 C 1.087,-12.043 0,-10.37 0,-7.108 Z"
             style="fill:#000000;fill-opacity:1;fill-rule:nonzero;stroke:none"
             id="path52"
             inkscape:connector-curvature="0" /></g><g
           id="g54"
           transform="translate(298.7656,101.5201)"><path
             d="M 0,0 C -0.111,1.979 -1.254,3.541 -3.624,3.541 -5.91,3.541 -7.081,1.7 -7.192,0 Z m 2.648,-5.799 c -1.142,-1.84 -3.01,-3.456 -6.132,-3.456 -4.015,0 -6.942,3.01 -6.942,7.805 0,4.795 2.927,7.806 6.802,7.806 3.848,0 6.719,-2.955 6.719,-7.806 V -2.397 H -7.22 c 0.083,-2.398 1.338,-4.043 3.68,-4.043 2.258,0 3.262,1.505 3.903,2.509 z"
             style="fill:#000000;fill-opacity:1;fill-rule:nonzero;stroke:none"
             id="path56"
             inkscape:connector-curvature="0" /></g><g
           id="g58"
           transform="translate(305.7646,104.7256)"><path
             d="M 0,0 H -2.23 V 2.732 H 0.083 V 6.356 H 3.094 V 2.732 H 6.802 V 0 h -3.68 v -6.774 c 0,-1.533 0.307,-2.203 1.924,-2.203 h 1.171 v -3.066 H 4.795 C 1.087,-12.043 0,-10.37 0,-7.108 Z"
             style="fill:#000000;fill-opacity:1;fill-rule:nonzero;stroke:none"
             id="path60"
             inkscape:connector-curvature="0" /></g><g
           id="g62"
           transform="translate(324.5264,101.5201)"><path
             d="M 0,0 C -0.111,1.979 -1.254,3.541 -3.624,3.541 -5.91,3.541 -7.08,1.7 -7.192,0 Z m 2.648,-5.799 c -1.142,-1.84 -3.01,-3.456 -6.132,-3.456 -4.015,0 -6.942,3.01 -6.942,7.805 0,4.795 2.927,7.806 6.802,7.806 3.848,0 6.719,-2.955 6.719,-7.806 V -2.397 H -7.22 c 0.083,-2.398 1.338,-4.043 3.68,-4.043 2.258,0 3.262,1.505 3.903,2.509 z"
             style="fill:#000000;fill-opacity:1;fill-rule:nonzero;stroke:none"
             id="path64"
             inkscape:connector-curvature="0" /></g><g
           id="g66"
           transform="translate(331.5254,104.7256)"><path
             d="M 0,0 H -2.23 V 2.732 H 0.083 V 6.356 H 3.094 V 2.732 H 6.802 V 0 h -3.68 v -6.774 c 0,-1.533 0.307,-2.203 1.924,-2.203 h 1.171 v -3.066 H 4.795 C 1.087,-12.043 0,-10.37 0,-7.108 Z"
             style="fill:#000000;fill-opacity:1;fill-rule:nonzero;stroke:none"
             id="path68"
             inkscape:connector-curvature="0" /></g><path
           d="m 174.84,75.429 h 3.178 V 60.654 h -3.178 z m -0.056,5.575 h 3.29 v -3.15 h -3.29 z"
           style="fill:#000000;fill-opacity:1;fill-rule:nonzero;stroke:none"
           id="path70"
           inkscape:connector-curvature="0" /><g
           id="g72"
           transform="translate(189.1982,67.9854)"><path
             d="m 0,0 c 0.474,-3.123 1.422,-4.712 4.404,-4.712 2.398,0 3.791,1.031 3.791,2.649 0,1.588 -0.669,2.23 -5.157,3.624 -4.182,1.31 -5.715,3.094 -5.715,5.631 0,2.816 2.286,5.409 6.412,5.409 3.457,0 6.468,-1.646 7.109,-5.353 L 7.639,6.467 C 7.164,8.195 6.217,9.534 3.735,9.534 1.533,9.534 0.558,8.502 0.558,7.22 c 0,-1.254 0.64,-1.7 4.933,-3.151 4.712,-1.589 5.939,-3.066 5.939,-5.937 0,-3.29 -2.621,-5.882 -7.053,-5.882 -4.461,0 -7.249,2.341 -7.834,6.997 z"
             style="fill:#000000;fill-opacity:1;fill-rule:nonzero;stroke:none"
             id="path74"
             inkscape:connector-curvature="0" /></g><g
           id="g76"
           transform="translate(207.374,63.9707)"><path
             d="m 0,0 c 0.613,-0.586 1.422,-0.864 2.342,-0.864 2.147,0 3.68,1.728 3.68,4.934 0,1.171 -0.223,2.118 -0.613,2.871 z M 4.601,8.112 C 3.987,8.697 3.206,9.004 2.342,9.004 c -2.091,0 -3.707,-1.672 -3.707,-4.934 0,-1.199 0.195,-2.174 0.557,-2.927 z m -7.388,-9.534 c -1.088,1.311 -1.729,3.151 -1.729,5.492 0,5.046 3.206,7.806 6.858,7.806 1.506,0 2.928,-0.502 4.098,-1.422 L 7.5,11.848 8.559,10.956 7.416,9.506 c 1.06,-1.31 1.729,-3.15 1.729,-5.436 0,-5.046 -2.984,-7.805 -6.803,-7.805 -1.589,0 -3.038,0.473 -4.182,1.365 l -1.031,-1.338 -1.06,0.864 z"
             style="fill:#000000;fill-opacity:1;fill-rule:nonzero;stroke:none"
             id="path78"
             inkscape:connector-curvature="0" /></g><g
           id="g80"
           transform="translate(219.8652,75.4287)"><path
             d="m 0,0 h 3.011 v -1.562 h 0.055 c 0.586,1.143 1.813,1.84 3.067,1.84 0.53,0 0.975,-0.139 1.31,-0.278 L 6.941,-3.095 c -0.306,0.084 -0.669,0.223 -1.17,0.223 -1.673,0 -2.593,-1.115 -2.593,-3.68 v -8.223 H 0 Z"
             style="fill:#000000;fill-opacity:1;fill-rule:nonzero;stroke:none"
             id="path82"
             inkscape:connector-curvature="0" /></g><g
           id="g84"
           transform="translate(232.0488,64.7793)"><path
             d="m 0,0 c 0,-1.199 0.836,-1.784 2.426,-1.784 2.536,0 3.595,1.226 3.595,2.48 V 3.651 H 5.966 C 5.799,3.289 5.52,2.899 2.593,2.118 0.335,1.561 0,0.809 0,0 M 6.384,-2.648 H 6.328 c -0.14,-0.224 -1.31,-1.896 -4.182,-1.896 -3.679,0 -5.212,2.091 -5.212,4.32 0,2.593 1.449,3.737 5.017,4.601 3.206,0.808 3.959,1.143 3.959,2.202 0,0.947 -0.808,1.756 -2.704,1.756 -2.258,0 -2.928,-1.282 -3.29,-2.593 l -2.704,1.032 c 0.586,2.342 2.481,4.293 5.91,4.293 3.29,0 5.966,-1.561 5.966,-5.631 V -4.126 H 6.384 Z"
             style="fill:#000000;fill-opacity:1;fill-rule:nonzero;stroke:none"
             id="path86"
             inkscape:connector-curvature="0" /></g><g
           id="g88"
           transform="translate(244.7617,75.4287)"><path
             d="m 0,0 h 3.179 v -9.2 c 0,-2.202 0.752,-2.955 2.592,-2.955 1.784,0 3.039,0.948 3.039,3.177 V 0 h 3.177 V -14.775 H 8.921 v 1.421 H 8.865 C 8.531,-13.828 7.36,-15.193 5.046,-15.193 1.589,-15.193 0,-13.02 0,-9.563 Z"
             style="fill:#000000;fill-opacity:1;fill-rule:nonzero;stroke:none"
             id="path90"
             inkscape:connector-curvature="0" /></g><g
           id="g92"
           transform="translate(262.4941,66.2842)"><path
             d="m 0,0 c 0.251,-2.174 1.478,-3.373 3.568,-3.373 2.007,0 3.122,0.753 3.122,1.895 0,1.171 -0.919,1.451 -4.07,2.342 -3.345,0.948 -4.962,2.091 -4.962,4.322 0,2.23 1.896,4.377 5.437,4.377 3.54,0 5.38,-1.84 6.049,-4.322 L 6.468,4.461 C 5.994,5.854 5.13,6.914 3.095,6.914 1.422,6.914 0.558,6.134 0.558,5.325 0.558,4.35 1.171,4.099 4.906,3.039 8.643,1.979 9.563,0.613 9.563,-1.533 c 0,-2.063 -1.702,-4.516 -5.883,-4.516 -4.349,0 -6.217,2.676 -6.579,5.353 z"
             style="fill:#000000;fill-opacity:1;fill-rule:nonzero;stroke:none"
             id="path94"
             inkscape:connector-curvature="0" /></g><g
           id="g96"
           transform="translate(275.6816,72.6963)"><path
             d="M 0,0 H -2.23 V 2.732 H 0.083 V 6.356 H 3.094 V 2.732 H 6.802 V 0 h -3.68 v -6.774 c 0,-1.534 0.307,-2.203 1.924,-2.203 h 1.171 v -3.066 H 4.795 C 1.087,-12.043 0,-10.37 0,-7.108 Z"
             style="fill:#000000;fill-opacity:1;fill-rule:nonzero;stroke:none"
             id="path98"
             inkscape:connector-curvature="0" /></g><path
           d="m 285.83,71.19 h 9.172 v -2.536 h -9.172 z"
           style="fill:#000000;fill-opacity:1;fill-rule:nonzero;stroke:none"
           id="path100"
           inkscape:connector-curvature="0" /><g
           id="g102"
           transform="translate(299.7412,80.168)"><path
             d="m 0,0 h 3.43 l 7.75,-13.8 h 0.055 V 0 h 3.289 V -19.515 H 11.18 L 3.346,-5.716 H 3.29 V -19.515 H 0 Z"
             style="fill:#000000;fill-opacity:1;fill-rule:nonzero;stroke:none"
             id="path104"
             inkscape:connector-curvature="0" /></g><g
           id="g106"
           transform="translate(328.1504,68.041)"><path
             d="m 0,0 c 0,3.206 -1.533,4.934 -3.681,4.934 -2.146,0 -3.707,-1.672 -3.707,-4.934 0,-3.29 1.534,-4.935 3.707,-4.935 C -1.533,-4.935 0,-3.206 0,0 m -10.538,0 c 0,5.046 3.206,7.806 6.857,7.806 3.625,0 6.803,-2.76 6.803,-7.806 0,-5.046 -2.983,-7.806 -6.803,-7.806 -3.846,0 -6.857,2.76 -6.857,7.806"
             style="fill:#000000;fill-opacity:1;fill-rule:nonzero;stroke:none"
             id="path108"
             inkscape:connector-curvature="0" /></g><g
           id="g110"
           transform="translate(334.5352,75.4287)"><path
             d="m 0,0 h 3.011 v -1.562 h 0.055 c 0.586,1.143 1.813,1.84 3.067,1.84 0.53,0 0.975,-0.139 1.31,-0.278 L 6.941,-3.095 c -0.306,0.084 -0.669,0.223 -1.17,0.223 -1.673,0 -2.593,-1.115 -2.593,-3.68 v -8.223 H 0 Z"
             style="fill:#000000;fill-opacity:1;fill-rule:nonzero;stroke:none"
             id="path112"
             inkscape:connector-curvature="0" /></g><g
           id="g114"
           transform="translate(353.6602,69.4903)"><path
             d="M 0,0 C -0.111,1.979 -1.254,3.541 -3.624,3.541 -5.91,3.541 -7.081,1.7 -7.192,0 Z m 2.648,-5.799 c -1.142,-1.84 -3.01,-3.456 -6.132,-3.456 -4.015,0 -6.942,3.011 -6.942,7.806 0,4.795 2.927,7.805 6.802,7.805 3.848,0 6.719,-2.955 6.719,-7.805 V -2.397 H -7.22 c 0.083,-2.398 1.338,-4.042 3.68,-4.042 2.258,0 3.262,1.504 3.903,2.508 z"
             style="fill:#000000;fill-opacity:1;fill-rule:nonzero;stroke:none"
             id="path116"
             inkscape:connector-curvature="0" /></g><g
           id="g118"
           transform="translate(369.6357,69.7696)"><path
             d="m 0,0 c 0,1.645 -1.255,3.205 -3.401,3.205 -2.314,0 -3.931,-1.7 -3.931,-4.934 0,-3.234 1.589,-4.934 3.931,-4.934 2.063,0 3.401,1.422 3.401,3.095 z m -6.97,-10.455 c 0.726,-1.561 1.673,-2.565 3.653,-2.565 1.951,0 3.317,1.032 3.317,3.374 v 1.896 h -0.056 c -0.586,-0.864 -1.951,-1.784 -3.819,-1.784 -3.708,0 -6.635,2.843 -6.635,7.805 0,4.962 3.151,7.806 6.579,7.806 1.98,0 3.262,-0.892 3.987,-1.84 H 0.111 V 5.659 H 3.178 V -9.2 c 0,-4.404 -2.76,-6.608 -6.495,-6.608 -3.206,0 -5.242,1.646 -6.106,3.792 z"
             style="fill:#000000;fill-opacity:1;fill-rule:nonzero;stroke:none"
             id="path120"
             inkscape:connector-curvature="0" /></g><g
           id="g122"
           transform="translate(42.5195,112.1826)"><path
             d="m 0,0 h 11.427 l 0.001,-42.599 c 0,-5.617 0.447,-9.742 2.87,-14.154 3.199,-5.824 8.818,-9.222 17.744,-9.222 14.396,0 18.974,7.537 18.974,13.884 0,8.621 -11.378,12.503 -22.17,17.518 -9.573,4.447 -11.72,11.72 -10.153,20.015 1.643,8.703 9.644,15.761 23.304,15.761 9.766,0 15.084,-0.967 21.322,-1.783 L 100.167,-49.128 100.168,0 113.537,-0.001 v -3.473 h -9.256 v -65.383 h -3.235 L 60.705,-15.97 v -19.909 c -1.034,1.338 -2.383,2.645 -4.112,3.938 v 21.62 c -1.349,4.343 -5.613,8.015 -14.403,8.237 -7.18,0.181 -13.489,-3.155 -14.61,-10.404 -1.473,-9.526 7.014,-11.842 18.188,-17.251 12.183,-5.898 15.181,-11.652 15.181,-18.178 0,-9.188 -10.056,-21.744 -29.001,-21.744 -10.381,0 -18.976,3.06 -24.564,8.758 C 1.287,-54.686 0,-49.44 0,-39.65 Z"
             style="fill:#000000;fill-opacity:1;fill-rule:nonzero;stroke:none"
             id="path124"
             inkscape:connector-curvature="0" /></g></g></g></g></svg>