<?xml version="1.0" encoding="UTF-8" standalone="no"?>
<!-- Created with Inkscape (http://www.inkscape.org/) -->

<svg
   xmlns:dc="http://purl.org/dc/elements/1.1/"
   xmlns:cc="http://creativecommons.org/ns#"
   xmlns:rdf="http://www.w3.org/1999/02/22-rdf-syntax-ns#"
   xmlns:svg="http://www.w3.org/2000/svg"
   xmlns="http://www.w3.org/2000/svg"
   xmlns:sodipodi="http://sodipodi.sourceforge.net/DTD/sodipodi-0.dtd"
   xmlns:inkscape="http://www.inkscape.org/namespaces/inkscape"
   version="1.1"
   id="svg2"
   xml:space="preserve"
   width="418.64612"
   height="94.485329"
   viewBox="0 0 418.64612 94.48533"
   sodipodi:docname="USN_logo_rgb.svg"
   inkscape:version="0.92.3 (2405546, 2018-03-11)"><metadata
     id="metadata8"><rdf:RDF><cc:Work
         rdf:about=""><dc:format>image/svg+xml</dc:format><dc:type
           rdf:resource="http://purl.org/dc/dcmitype/StillImage" /><dc:title></dc:title></cc:Work></rdf:RDF></metadata><defs
     id="defs6"><clipPath
       clipPathUnits="userSpaceOnUse"
       id="clipPath20"><path
         d="M 0,155.905 H 440.141 V 0 H 0 Z"
         id="path18"
         inkscape:connector-curvature="0" /></clipPath></defs><sodipodi:namedview
     pagecolor="#ffffff"
     bordercolor="#666666"
     borderopacity="1"
     objecttolerance="10"
     gridtolerance="10"
     guidetolerance="10"
     inkscape:pageopacity="0"
     inkscape:pageshadow="2"
     inkscape:window-width="1919"
     inkscape:window-height="1020"
     id="namedview4"
     showgrid="false"
     fit-margin-top="0"
     fit-margin-left="0"
     fit-margin-right="0"
     fit-margin-bottom="0"
     inkscape:zoom="1.6675948"
     inkscape:cx="263.51838"
     inkscape:cy="21.205578"
     inkscape:window-x="1"
     inkscape:window-y="32"
     inkscape:window-maximized="1"
     inkscape:current-layer="g10" /><g
     id="g10"
     inkscape:groupmode="layer"
     inkscape:label="USN_logo_rgb"
     transform="matrix(1.3333333,0,0,-1.3333333,-56.692665,151.1808)"><path
       d="M 357.169,43.328 H 174.835 v 1.199 h 182.334 z"
       style="fill:#000000;fill-opacity:1;fill-rule:nonzero;stroke:none"
       id="path12"
       inkscape:connector-curvature="0" /><g
       id="g14"><g
         id="g16"
         clip-path="url(#clipPath20)"><g
           id="g22"
           transform="translate(174.4199,112.1758)"><path
             d="m 0,0 h 3.286 v -12.977 c 0,-2.422 1.281,-3.898 3.899,-3.898 2.645,0 3.954,1.503 3.954,3.842 V 0 h 3.258 v -13.144 c 0,-4.233 -2.896,-6.767 -7.212,-6.767 -4.317,0 -7.185,2.534 -7.185,6.767 z"
             style="fill:#000000;fill-opacity:1;fill-rule:nonzero;stroke:none"
             id="path24"
             inkscape:connector-curvature="0" /></g><g
           id="g26"
           transform="translate(192.8574,107.4419)"><path
             d="m 0,0 h 3.063 v -1.42 h 0.055 c 0.78,1.002 2.312,1.837 3.983,1.837 3.23,0 5.263,-2.032 5.263,-5.513 v -9.663 H 9.217 v 8.827 c 0,2.172 -0.779,3.426 -2.868,3.426 -1.95,0 -3.175,-1.198 -3.175,-3.092 v -9.161 H 0 Z"
             style="fill:#000000;fill-opacity:1;fill-rule:nonzero;stroke:none"
             id="path28"
             inkscape:connector-curvature="0" /></g><path
           d="m 209.316,107.442 h 3.174 V 92.683 h -3.174 z m -0.055,5.569 h 3.286 v -3.147 h -3.286 z"
           style="fill:#000000;fill-opacity:1;fill-rule:nonzero;stroke:none"
           id="path30"
           inkscape:connector-curvature="0" /><g
           id="g32"
           transform="translate(214.8301,107.4419)"><path
             d="M 0,0 H 3.286 L 7.24,-10.192 H 7.296 L 11.25,0 h 3.258 L 8.577,-14.759 H 5.932 Z"
             style="fill:#000000;fill-opacity:1;fill-rule:nonzero;stroke:none"
             id="path34"
             inkscape:connector-curvature="0" /></g><g
           id="g36"
           transform="translate(240.8682,101.5103)"><path
             d="M 0,0 C -0.111,1.977 -1.253,3.537 -3.62,3.537 -5.903,3.537 -7.072,1.699 -7.185,0 Z M 2.646,-5.792 C 1.504,-7.63 -0.361,-9.245 -3.48,-9.245 c -4.01,0 -6.934,3.007 -6.934,7.797 0,4.79 2.924,7.797 6.794,7.797 3.844,0 6.712,-2.952 6.712,-7.797 V -2.395 H -7.212 c 0.083,-2.395 1.337,-4.038 3.676,-4.038 2.256,0 3.258,1.504 3.898,2.507 z"
             style="fill:#000000;fill-opacity:1;fill-rule:nonzero;stroke:none"
             id="path38"
             inkscape:connector-curvature="0" /></g><g
           id="g40"
           transform="translate(247.1631,107.4419)"><path
             d="M 0,0 H 3.007 V -1.56 H 3.063 C 3.647,-0.418 4.873,0.278 6.126,0.278 6.655,0.278 7.101,0.139 7.435,0 L 6.934,-3.091 c -0.307,0.083 -0.668,0.222 -1.17,0.222 -1.671,0 -2.59,-1.113 -2.59,-3.675 v -8.215 H 0 Z"
             style="fill:#000000;fill-opacity:1;fill-rule:nonzero;stroke:none"
             id="path42"
             inkscape:connector-curvature="0" /></g><g
           id="g44"
           transform="translate(258.9434,98.3076)"><path
             d="m 0,0 c 0.25,-2.172 1.476,-3.369 3.564,-3.369 2.005,0 3.119,0.751 3.119,1.893 0,1.17 -0.919,1.448 -4.066,2.339 -3.342,0.947 -4.957,2.089 -4.957,4.317 0,2.228 1.894,4.372 5.431,4.372 3.536,0 5.374,-1.838 6.043,-4.317 L 6.46,4.456 C 5.987,5.848 5.124,6.906 3.091,6.906 1.42,6.906 0.557,6.126 0.557,5.319 0.557,4.344 1.169,4.094 4.9,3.036 8.633,1.978 9.552,0.613 9.552,-1.531 c 0,-2.061 -1.699,-4.511 -5.876,-4.511 -4.345,0 -6.21,2.673 -6.572,5.346 z"
             style="fill:#000000;fill-opacity:1;fill-rule:nonzero;stroke:none"
             id="path46"
             inkscape:connector-curvature="0" /></g><path
           d="m 271.615,107.442 h 3.174 V 92.683 h -3.174 z m -0.055,5.569 h 3.286 v -3.147 h -3.286 z"
           style="fill:#000000;fill-opacity:1;fill-rule:nonzero;stroke:none"
           id="path48"
           inkscape:connector-curvature="0" /><g
           id="g50"
           transform="translate(279.8594,104.7129)"><path
             d="m 0,0 h -2.229 v 2.729 h 2.312 v 3.62 H 3.091 V 2.729 H 6.794 V 0 H 3.118 v -6.767 c 0,-1.532 0.307,-2.2 1.922,-2.2 H 6.21 V -12.03 H 4.789 C 1.086,-12.03 0,-10.359 0,-7.101 Z"
             style="fill:#000000;fill-opacity:1;fill-rule:nonzero;stroke:none"
             id="path52"
             inkscape:connector-curvature="0" /></g><g
           id="g54"
           transform="translate(298.8789,101.5103)"><path
             d="M 0,0 C -0.111,1.977 -1.253,3.537 -3.62,3.537 -5.903,3.537 -7.073,1.699 -7.185,0 Z M 2.646,-5.792 C 1.504,-7.63 -0.361,-9.245 -3.48,-9.245 c -4.01,0 -6.934,3.007 -6.934,7.797 0,4.79 2.924,7.797 6.794,7.797 3.844,0 6.712,-2.952 6.712,-7.797 V -2.395 H -7.212 c 0.083,-2.395 1.337,-4.038 3.676,-4.038 2.256,0 3.258,1.504 3.898,2.507 z"
             style="fill:#000000;fill-opacity:1;fill-rule:nonzero;stroke:none"
             id="path56"
             inkscape:connector-curvature="0" /></g><g
           id="g58"
           transform="translate(305.8701,104.7129)"><path
             d="m 0,0 h -2.229 v 2.729 h 2.312 v 3.62 H 3.091 V 2.729 H 6.794 V 0 H 3.118 v -6.767 c 0,-1.532 0.307,-2.2 1.922,-2.2 H 6.21 V -12.03 H 4.789 C 1.086,-12.03 0,-10.359 0,-7.101 Z"
             style="fill:#000000;fill-opacity:1;fill-rule:nonzero;stroke:none"
             id="path60"
             inkscape:connector-curvature="0" /></g><g
           id="g62"
           transform="translate(324.8906,101.5103)"><path
             d="M 0,0 C -0.111,1.977 -1.253,3.537 -3.62,3.537 -5.903,3.537 -7.073,1.699 -7.185,0 Z M 2.646,-5.792 C 1.504,-7.63 -0.361,-9.245 -3.48,-9.245 c -4.01,0 -6.934,3.007 -6.934,7.797 0,4.79 2.924,7.797 6.794,7.797 3.844,0 6.712,-2.952 6.712,-7.797 V -2.395 H -7.212 c 0.083,-2.395 1.337,-4.038 3.676,-4.038 2.256,0 3.258,1.504 3.898,2.507 z"
             style="fill:#000000;fill-opacity:1;fill-rule:nonzero;stroke:none"
             id="path64"
             inkscape:connector-curvature="0" /></g><g
           id="g66"
           transform="translate(331.8818,104.7129)"><path
             d="m 0,0 h -2.229 v 2.729 h 2.312 v 3.62 H 3.091 V 2.729 H 6.794 V 0 H 3.118 v -6.767 c 0,-1.532 0.307,-2.2 1.922,-2.2 H 6.21 V -12.03 H 4.789 C 1.086,-12.03 0,-10.359 0,-7.101 Z"
             style="fill:#000000;fill-opacity:1;fill-rule:nonzero;stroke:none"
             id="path68"
             inkscape:connector-curvature="0" /></g><path
           d="m 174.838,75.412 h 3.174 V 60.653 h -3.174 z m -0.056,5.569 h 3.286 v -3.146 h -3.286 z"
           style="fill:#000000;fill-opacity:1;fill-rule:nonzero;stroke:none"
           id="path70"
           inkscape:connector-curvature="0" /><g
           id="g72"
           transform="translate(189.1807,67.9766)"><path
             d="m 0,0 c 0.473,-3.118 1.42,-4.706 4.399,-4.706 2.395,0 3.788,1.03 3.788,2.645 0,1.588 -0.668,2.228 -5.152,3.621 -4.178,1.308 -5.709,3.09 -5.709,5.625 0,2.812 2.283,5.402 6.405,5.402 3.454,0 6.46,-1.643 7.101,-5.347 L 7.63,6.461 C 7.156,8.188 6.21,9.524 3.731,9.524 c -2.2,0 -3.174,-1.03 -3.174,-2.311 0,-1.253 0.64,-1.699 4.928,-3.147 4.706,-1.587 5.932,-3.063 5.932,-5.931 0,-3.286 -2.618,-5.876 -7.045,-5.876 -4.456,0 -7.241,2.339 -7.825,6.989 z"
             style="fill:#000000;fill-opacity:1;fill-rule:nonzero;stroke:none"
             id="path74"
             inkscape:connector-curvature="0" /></g><g
           id="g76"
           transform="translate(207.3379,63.9668)"><path
             d="m 0,0 c 0.612,-0.585 1.42,-0.863 2.339,-0.863 2.144,0 3.677,1.726 3.677,4.928 0,1.17 -0.224,2.118 -0.614,2.869 z M 4.595,8.104 C 3.982,8.688 3.202,8.995 2.339,8.995 c -2.088,0 -3.703,-1.671 -3.703,-4.93 0,-1.197 0.195,-2.171 0.556,-2.923 z M -2.784,-1.42 c -1.087,1.309 -1.727,3.147 -1.727,5.485 0,5.041 3.202,7.798 6.85,7.798 1.504,0 2.925,-0.502 4.094,-1.421 L 7.491,11.835 8.549,10.944 7.407,9.496 C 8.466,8.188 9.134,6.35 9.134,4.065 c 0,-5.04 -2.98,-7.796 -6.795,-7.796 -1.587,0 -3.035,0.473 -4.177,1.364 l -1.03,-1.336 -1.059,0.863 z"
             style="fill:#000000;fill-opacity:1;fill-rule:nonzero;stroke:none"
             id="path78"
             inkscape:connector-curvature="0" /></g><g
           id="g80"
           transform="translate(219.8145,75.4121)"><path
             d="M 0,0 H 3.007 V -1.56 H 3.063 C 3.647,-0.418 4.873,0.278 6.126,0.278 6.655,0.278 7.101,0.14 7.435,0 L 6.934,-3.091 c -0.307,0.083 -0.668,0.223 -1.17,0.223 -1.671,0 -2.59,-1.114 -2.59,-3.676 v -8.215 H 0 Z"
             style="fill:#000000;fill-opacity:1;fill-rule:nonzero;stroke:none"
             id="path82"
             inkscape:connector-curvature="0" /></g><g
           id="g84"
           transform="translate(232.876,63.9668)"><path
             d="m 0,0 c 0.613,-0.585 1.42,-0.863 2.339,-0.863 2.144,0 3.677,1.726 3.677,4.928 0,1.17 -0.224,2.118 -0.614,2.869 z M 4.595,8.104 C 3.982,8.688 3.202,8.995 2.339,8.995 c -2.088,0 -3.703,-1.671 -3.703,-4.93 0,-1.197 0.194,-2.171 0.556,-2.923 z M -2.784,-1.42 c -1.087,1.309 -1.727,3.147 -1.727,5.485 0,5.041 3.202,7.798 6.85,7.798 1.504,0 2.925,-0.502 4.094,-1.421 L 7.491,11.835 8.549,10.944 7.407,9.496 C 8.466,8.188 9.134,6.35 9.134,4.065 c 0,-5.04 -2.98,-7.796 -6.795,-7.796 -1.587,0 -3.035,0.473 -4.177,1.364 l -1.03,-1.336 -1.059,0.863 z"
             style="fill:#000000;fill-opacity:1;fill-rule:nonzero;stroke:none"
             id="path86"
             inkscape:connector-curvature="0" /></g><g
           id="g88"
           transform="translate(247.0801,66.2784)"><path
             d="m 0,0 c 0.25,-2.172 1.476,-3.369 3.564,-3.369 2.005,0 3.119,0.751 3.119,1.893 0,1.169 -0.919,1.448 -4.066,2.339 -3.342,0.947 -4.957,2.089 -4.957,4.317 0,2.227 1.894,4.372 5.431,4.372 3.536,0 5.374,-1.838 6.043,-4.317 L 6.46,4.455 C 5.987,5.848 5.124,6.906 3.091,6.906 1.42,6.906 0.557,6.126 0.557,5.318 0.557,4.344 1.169,4.094 4.9,3.035 8.633,1.978 9.552,0.612 9.552,-1.531 c 0,-2.062 -1.699,-4.512 -5.876,-4.512 -4.345,0 -6.21,2.674 -6.572,5.347 z"
             style="fill:#000000;fill-opacity:1;fill-rule:nonzero;stroke:none"
             id="path90"
             inkscape:connector-curvature="0" /></g><g
           id="g92"
           transform="translate(260.2529,72.6826)"><path
             d="M 0,0 H -2.229 V 2.729 H 0.083 V 6.35 H 3.091 V 2.729 H 6.794 V 0 H 3.118 v -6.767 c 0,-1.531 0.307,-2.2 1.922,-2.2 h 1.17 v -3.062 H 4.789 C 1.086,-12.029 0,-10.358 0,-7.101 Z"
             style="fill:#000000;fill-opacity:1;fill-rule:nonzero;stroke:none"
             id="path94"
             inkscape:connector-curvature="0" /></g><path
           d="m 270.265,71.18 h 8.248 v -2.534 h -8.248 z"
           style="fill:#000000;fill-opacity:1;fill-rule:nonzero;stroke:none"
           id="path96"
           inkscape:connector-curvature="0" /><g
           id="g98"
           transform="translate(283.0088,80.1465)"><path
             d="m 0,0 h 3.425 l 7.742,-13.785 h 0.056 V 0 h 3.285 V -19.493 H 11.167 L 3.342,-5.709 H 3.286 V -19.493 H 0 Z"
             style="fill:#000000;fill-opacity:1;fill-rule:nonzero;stroke:none"
             id="path100"
             inkscape:connector-curvature="0" /></g><g
           id="g102"
           transform="translate(311.5264,68.0323)"><path
             d="M 0,0 C 0,3.203 -1.532,4.93 -3.677,4.93 -5.82,4.93 -7.38,3.259 -7.38,0 c 0,-3.285 1.531,-4.929 3.703,-4.929 C -1.532,-4.929 0,-3.202 0,0 m -10.526,0 c 0,5.041 3.202,7.798 6.849,7.798 3.62,0 6.795,-2.757 6.795,-7.798 0,-5.04 -2.979,-7.797 -6.795,-7.797 -3.843,0 -6.849,2.757 -6.849,7.797"
             style="fill:#000000;fill-opacity:1;fill-rule:nonzero;stroke:none"
             id="path104"
             inkscape:connector-curvature="0" /></g><g
           id="g106"
           transform="translate(317.8486,75.4121)"><path
             d="M 0,0 H 3.007 V -1.56 H 3.063 C 3.647,-0.418 4.873,0.278 6.126,0.278 6.655,0.278 7.101,0.14 7.435,0 L 6.934,-3.091 c -0.307,0.083 -0.668,0.223 -1.17,0.223 -1.671,0 -2.59,-1.114 -2.59,-3.676 v -8.215 H 0 Z"
             style="fill:#000000;fill-opacity:1;fill-rule:nonzero;stroke:none"
             id="path108"
             inkscape:connector-curvature="0" /></g><g
           id="g110"
           transform="translate(336.7578,69.7588)"><path
             d="m 0,0 c 0,1.644 -1.253,3.203 -3.397,3.203 -2.312,0 -3.927,-1.699 -3.927,-4.93 0,-3.229 1.588,-4.928 3.927,-4.928 2.06,0 3.397,1.42 3.397,3.091 z m -6.962,-10.442 c 0.725,-1.56 1.671,-2.562 3.649,-2.562 1.949,0 3.313,1.03 3.313,3.369 v 1.894 h -0.056 c -0.585,-0.863 -1.949,-1.782 -3.815,-1.782 -3.703,0 -6.627,2.84 -6.627,7.796 0,4.957 3.146,7.798 6.571,7.798 1.978,0 3.259,-0.891 3.983,-1.838 h 0.055 v 1.42 H 3.175 V -9.189 c 0,-4.4 -2.757,-6.6 -6.488,-6.6 -3.204,0 -5.236,1.643 -6.099,3.787 z"
             style="fill:#000000;fill-opacity:1;fill-rule:nonzero;stroke:none"
             id="path112"
             inkscape:connector-curvature="0" /></g><g
           id="g114"
           transform="translate(353.4121,69.4805)"><path
             d="M 0,0 C -0.111,1.978 -1.253,3.537 -3.62,3.537 -5.903,3.537 -7.073,1.699 -7.185,0 Z M 2.646,-5.792 C 1.504,-7.63 -0.361,-9.245 -3.48,-9.245 c -4.01,0 -6.934,3.008 -6.934,7.797 0,4.79 2.924,7.798 6.794,7.798 3.844,0 6.712,-2.953 6.712,-7.798 V -2.395 H -7.212 c 0.083,-2.394 1.337,-4.038 3.676,-4.038 2.256,0 3.258,1.504 3.898,2.506 z"
             style="fill:#000000;fill-opacity:1;fill-rule:nonzero;stroke:none"
             id="path116"
             inkscape:connector-curvature="0" /></g><g
           id="g118"
           transform="translate(42.5195,112.1826)"><path
             d="m 0,0 h 11.427 l 0.001,-42.599 c 0,-5.617 0.447,-9.742 2.87,-14.154 3.199,-5.824 8.818,-9.222 17.744,-9.222 14.396,0 18.974,7.537 18.974,13.884 0,8.621 -11.378,12.503 -22.17,17.518 -9.573,4.447 -11.72,11.72 -10.153,20.015 1.643,8.703 9.644,15.761 23.304,15.761 9.766,0 15.084,-0.967 21.322,-1.783 L 100.167,-49.128 100.168,0 113.537,-0.001 v -3.473 h -9.256 v -65.383 h -3.235 L 60.705,-15.97 v -19.909 c -1.034,1.338 -2.383,2.645 -4.112,3.938 v 21.62 c -1.349,4.343 -5.613,8.015 -14.403,8.237 -7.18,0.181 -13.489,-3.155 -14.61,-10.404 -1.473,-9.526 7.014,-11.842 18.188,-17.251 12.183,-5.898 15.181,-11.652 15.181,-18.178 0,-9.188 -10.056,-21.744 -29.001,-21.744 -10.381,0 -18.976,3.06 -24.564,8.758 C 1.287,-54.686 0,-49.44 0,-39.65 Z"
             style="fill:#000000;fill-opacity:1;fill-rule:nonzero;stroke:none"
             id="path120"
             inkscape:connector-curvature="0" /></g></g></g></g></svg>