<?xml version="1.0" encoding="UTF-8"?><svg id="Layer_1" xmlns="http://www.w3.org/2000/svg" viewBox="0 0 286.5 329.86"><defs><style>.cls-1{fill:#fff;}</style></defs><path class="cls-1" d="M286.5,2.5h-11V135.5l-49-63.25C186.25,20.25,158.75,0,118.25,0,86.25,0,57.5,17.75,57.5,51s25.5,44,49,54.75c20,9,38.75,17.25,38.75,38,0,22.5-21,37.25-52.75,37.25-38.75,0-61.5-24.75-61.5-66V2.5H0V109.5c0,60.25,46.75,81.5,92.5,81.5,51.25,0,80-27.75,80-64.25V51l105.5,137.5h8.5V2.5Zm-125,106.5c-8.25-13.25-24.5-21.25-40-29-20-9.75-39-19-39-38.75,0-21.75,15-31.75,37-31.25s42,13.75,42,48v51Z"/><g><g><path class="cls-1" d="M13.77,238.09h5.18v20.46c0,3.82,2.02,6.15,6.15,6.15s6.23-2.37,6.23-6.06v-20.55h5.14v20.72c0,6.67-4.57,10.67-11.37,10.67s-11.32-3.99-11.32-10.67v-20.72h0Z"/><path class="cls-1" d="M42.84,245.56h4.83v2.24h.09c1.23-1.58,3.64-2.9,6.28-2.9,5.09,0,8.3,3.21,8.3,8.69v15.24h-4.96v-13.92c0-3.43-1.23-5.4-4.52-5.4-3.07,0-5,1.89-5,4.87v14.44h-5v-23.26h-.01Z"/><path class="cls-1" d="M68.7,236.78h5.18v4.96h-5.18v-4.96Zm.09,8.78h5v23.27h-5v-23.28h0Z"/><path class="cls-1" d="M77.48,245.56h5.18l6.23,16.07h.09l6.23-16.07h5.13l-9.35,23.27h-4.17l-9.35-23.27Z"/><path class="cls-1" d="M122.7,264.04c-1.8,2.9-4.74,5.44-9.66,5.44-6.32,0-10.93-4.74-10.93-12.29s4.61-12.29,10.71-12.29,10.58,4.65,10.58,12.29v1.49h-16.24c.13,3.77,2.11,6.36,5.8,6.36s5.13-2.37,6.15-3.95l3.6,2.94h0Zm-4.17-9.13c-.17-3.12-1.98-5.58-5.71-5.58s-5.44,2.9-5.62,5.58h11.32Z"/><path class="cls-1" d="M128.45,245.56h4.74v2.46h.09c.92-1.8,2.85-2.9,4.83-2.9,.84,0,1.53,.22,2.07,.44l-.79,4.87c-.48-.13-1.05-.35-1.84-.35-2.63,0-4.08,1.76-4.08,5.8v12.95h-5v-23.27h0Z"/><path class="cls-1" d="M147.03,259.96c.39,3.43,2.33,5.31,5.62,5.31s4.91-1.18,4.91-2.98-1.45-2.28-6.41-3.69c-5.27-1.49-7.81-3.3-7.81-6.81s2.98-6.9,8.56-6.9,8.47,2.9,9.53,6.81l-4.21,1.23c-.75-2.2-2.11-3.86-5.31-3.86-2.63,0-3.99,1.23-3.99,2.5,0,1.53,.97,1.93,6.85,3.6,5.89,1.67,7.33,3.82,7.33,7.2s-2.68,7.11-9.27,7.11-9.79-4.21-10.36-8.43l4.57-1.1h.01Z"/><path class="cls-1" d="M166.92,236.78h5.18v4.96h-5.18v-4.96Zm.09,8.78h5v23.27h-5v-23.28h0Z"/><path class="cls-1" d="M180,249.86h-3.52v-4.3h3.64v-5.71h4.74v5.71h5.84v4.3h-5.8v10.67c0,2.42,.48,3.47,3.03,3.47h1.84v4.83h-2.24c-5.84,0-7.55-2.63-7.55-7.77v-11.19h0Z"/><path class="cls-1" d="M214.16,264.04c-1.8,2.9-4.74,5.44-9.66,5.44-6.32,0-10.93-4.74-10.93-12.29s4.61-12.29,10.71-12.29,10.58,4.65,10.58,12.29v1.49h-16.24c.13,3.77,2.11,6.36,5.8,6.36s5.13-2.37,6.15-3.95l3.6,2.94h0Zm-4.17-9.13c-.17-3.12-1.98-5.58-5.71-5.58s-5.44,2.9-5.62,5.58h11.32Z"/><path class="cls-1" d="M221.01,249.86h-3.52v-4.3h3.64v-5.71h4.74v5.71h5.84v4.3h-5.8v10.67c0,2.42,.48,3.47,3.03,3.47h1.84v4.83h-2.24c-5.84,0-7.55-2.63-7.55-7.77v-11.19h0Z"/><path class="cls-1" d="M255.17,264.04c-1.8,2.9-4.74,5.44-9.66,5.44-6.32,0-10.93-4.74-10.93-12.29s4.61-12.29,10.71-12.29,10.58,4.65,10.58,12.29v1.49h-16.24c.13,3.77,2.11,6.36,5.8,6.36s5.13-2.37,6.15-3.95l3.6,2.94h0Zm-4.17-9.13c-.17-3.12-1.98-5.58-5.71-5.58s-5.44,2.9-5.62,5.58h11.32Z"/><path class="cls-1" d="M262.02,249.86h-3.52v-4.3h3.64v-5.71h4.74v5.71h5.84v4.3h-5.8v10.67c0,2.42,.48,3.47,3.03,3.47h1.84v4.83h-2.24c-5.84,0-7.55-2.63-7.55-7.77v-11.19h0Z"/></g><g><path class="cls-1" d="M0,287.27H5.18v4.96H0v-4.96Zm.09,8.78H5.09v23.27H.09v-23.27Z"/><path class="cls-1" d="M22.7,307.78c.75,4.91,2.24,7.42,6.94,7.42,3.77,0,5.97-1.62,5.97-4.17s-1.05-3.51-8.12-5.71c-6.58-2.07-9-4.87-9-8.87,0-4.44,3.6-8.52,10.1-8.52,5.44,0,10.18,2.59,11.19,8.43l-5.05,1.23c-.75-2.72-2.24-4.83-6.15-4.83-3.47,0-5,1.62-5,3.64s1.01,2.68,7.77,4.96c7.42,2.5,9.35,4.83,9.35,9.35,0,5.18-4.13,9.27-11.1,9.27s-11.41-3.69-12.34-11.02l5.44-1.19h0Z"/><path class="cls-1" d="M46.94,316.34c-1.71-2.07-2.72-4.96-2.72-8.65,0-7.95,5.05-12.29,10.8-12.29,2.37,0,4.61,.79,6.45,2.24l1.67-2.2,1.67,1.4-1.8,2.28c1.67,2.07,2.72,4.96,2.72,8.56,0,7.95-4.7,12.29-10.71,12.29-2.5,0-4.79-.75-6.58-2.15l-1.62,2.11-1.67-1.36,1.8-2.24h0Zm11.64-15.01c-.97-.92-2.2-1.4-3.56-1.4-3.29,0-5.84,2.63-5.84,7.77,0,1.89,.31,3.43,.88,4.61l8.52-10.98Zm-7.24,12.78c.97,.92,2.24,1.36,3.69,1.36,3.38,0,5.8-2.72,5.8-7.77,0-1.84-.35-3.34-.97-4.52l-8.52,10.93h0Z"/><path class="cls-1" d="M71,296.05h4.74v2.46h.09c.92-1.8,2.85-2.9,4.83-2.9,.84,0,1.53,.22,2.07,.44l-.79,4.87c-.48-.13-1.05-.35-1.84-.35-2.63,0-4.08,1.76-4.08,5.8v12.95h-5v-23.27h0Z"/><path class="cls-1" d="M87.2,316.34c-1.71-2.07-2.72-4.96-2.72-8.65,0-7.95,5.05-12.29,10.8-12.29,2.37,0,4.61,.79,6.45,2.24l1.67-2.2,1.67,1.4-1.8,2.28c1.67,2.07,2.72,4.96,2.72,8.56,0,7.95-4.7,12.29-10.71,12.29-2.5,0-4.79-.75-6.58-2.15l-1.62,2.11-1.67-1.36,1.8-2.24h0Zm11.64-15.01c-.97-.92-2.2-1.4-3.56-1.4-3.29,0-5.84,2.63-5.84,7.77,0,1.89,.3,3.43,.88,4.61l8.52-10.98Zm-7.24,12.78c.97,.92,2.24,1.36,3.69,1.36,3.38,0,5.8-2.72,5.8-7.77,0-1.84-.35-3.34-.97-4.52l-8.52,10.93h0Z"/><path class="cls-1" d="M113.98,310.45c.39,3.43,2.33,5.31,5.62,5.31s4.91-1.18,4.91-2.98-1.45-2.28-6.41-3.69c-5.27-1.49-7.81-3.3-7.81-6.81s2.98-6.9,8.56-6.9,8.47,2.9,9.53,6.81l-4.21,1.23c-.75-2.2-2.11-3.86-5.31-3.86-2.63,0-3.99,1.23-3.99,2.5,0,1.53,.97,1.93,6.85,3.6,5.89,1.67,7.33,3.82,7.33,7.2s-2.68,7.11-9.27,7.11-9.79-4.21-10.36-8.43l4.57-1.1h.01Z"/><path class="cls-1" d="M134.75,300.36h-3.52v-4.3h3.64v-5.71h4.74v5.71h5.84v4.3h-5.8v10.67c0,2.41,.48,3.47,3.03,3.47h1.84v4.83h-2.24c-5.84,0-7.55-2.63-7.55-7.77v-11.19h0Z"/><path class="cls-1" d="M150.54,302.73h13v3.99h-13v-3.99Z"/><path class="cls-1" d="M170.63,288.59h5.4l12.21,21.74h.09v-21.74h5.18v30.73h-5.27l-12.34-21.73h-.09v21.73h-5.18v-30.73Z"/><path class="cls-1" d="M198.99,307.69c0-7.95,5.05-12.29,10.8-12.29s10.71,4.35,10.71,12.29-4.7,12.29-10.71,12.29-10.8-4.35-10.8-12.29Zm16.6,0c0-5.05-2.42-7.77-5.8-7.77s-5.84,2.63-5.84,7.77,2.41,7.77,5.84,7.77,5.8-2.72,5.8-7.77Z"/><path class="cls-1" d="M225.56,296.05h4.74v2.46h.09c.92-1.8,2.85-2.9,4.83-2.9,.84,0,1.53,.22,2.07,.44l-.79,4.87c-.48-.13-1.05-.35-1.84-.35-2.63,0-4.08,1.76-4.08,5.8v12.95h-5v-23.27h0Z"/><path class="cls-1" d="M244.39,321.43c1.14,2.46,2.63,4.04,5.75,4.04s5.22-1.62,5.22-5.31v-2.98h-.09c-.92,1.36-3.07,2.81-6.02,2.81-5.84,0-10.45-4.48-10.45-12.29s4.96-12.29,10.36-12.29c3.12,0,5.14,1.4,6.28,2.9h.09v-2.24h4.83v23.4c0,6.94-4.35,10.41-10.23,10.41-5.05,0-8.26-2.59-9.62-5.97l3.86-2.46h0Zm10.98-16.46c0-2.59-1.98-5.05-5.35-5.05-3.64,0-6.19,2.68-6.19,7.77s2.5,7.77,6.19,7.77c3.25,0,5.35-2.24,5.35-4.87v-5.62h0Z"/><path class="cls-1" d="M285.8,314.54c-1.8,2.9-4.74,5.44-9.66,5.44-6.32,0-10.93-4.74-10.93-12.29s4.61-12.29,10.71-12.29,10.58,4.66,10.58,12.29v1.49h-16.24c.13,3.77,2.11,6.36,5.8,6.36s5.13-2.37,6.15-3.95l3.6,2.94h0Zm-4.17-9.13c-.17-3.12-1.98-5.58-5.71-5.58s-5.44,2.9-5.62,5.58h11.32Z"/></g></g></svg>