<?xml version="1.0" encoding="UTF-8"?><svg id="Layer_1" xmlns="http://www.w3.org/2000/svg" viewBox="0 0 446.43 329.18"><defs><style>.cls-1{fill:#fff;}</style></defs><path class="cls-1" d="M366.46,2.5h-11V135.5l-49-63.25C266.21,20.25,238.71,0,198.21,0,166.21,0,137.46,17.75,137.46,51s25.5,44,49,54.75c20,9,38.75,17.25,38.75,38,0,22.5-21,37.25-52.75,37.25-38.75,0-61.5-24.75-61.5-66V2.5h-31V109.5c0,60.25,46.75,81.5,92.5,81.5,51.25,0,80-27.75,80-64.25V51l105.5,137.5h8.5V2.5Zm-125,106.5c-8.25-13.25-24.5-21.25-40-29-20-9.75-39-19-39-38.75,0-21.75,15-31.75,37-31.25s42,13.75,42,48v51Z"/><g><path class="cls-1" d="M97.54,238.1h5.18v20.45c0,3.82,2.02,6.14,6.14,6.14s6.23-2.37,6.23-6.06v-20.54h5.14v20.72c0,6.67-4.57,10.67-11.37,10.67s-11.32-3.99-11.32-10.67v-20.72Z"/><path class="cls-1" d="M126.6,245.56h4.83v2.24h.09c1.23-1.58,3.64-2.9,6.28-2.9,5.09,0,8.3,3.2,8.3,8.69v15.23h-4.96v-13.91c0-3.42-1.23-5.4-4.52-5.4-3.07,0-5,1.89-5,4.87v14.44h-5v-23.26Z"/><path class="cls-1" d="M152.46,236.78h5.18v4.96h-5.18v-4.96Zm.09,8.78h5v23.26h-5v-23.26Z"/><path class="cls-1" d="M161.23,245.56h5.18l6.23,16.06h.09l6.23-16.06h5.13l-9.35,23.26h-4.17l-9.35-23.26Z"/><path class="cls-1" d="M206.44,264.04c-1.8,2.9-4.74,5.44-9.66,5.44-6.32,0-10.93-4.74-10.93-12.29s4.61-12.29,10.71-12.29,10.58,4.65,10.58,12.29v1.49h-16.24c.13,3.77,2.11,6.36,5.79,6.36s5.13-2.37,6.14-3.95l3.6,2.94Zm-4.17-9.13c-.18-3.12-1.97-5.57-5.71-5.57s-5.44,2.9-5.62,5.57h11.32Z"/><path class="cls-1" d="M212.2,245.56h4.74v2.46h.09c.92-1.8,2.85-2.9,4.83-2.9,.83,0,1.54,.22,2.06,.44l-.79,4.87c-.48-.13-1.05-.35-1.84-.35-2.63,0-4.08,1.76-4.08,5.79v12.95h-5v-23.26Z"/><path class="cls-1" d="M230.76,259.96c.39,3.42,2.33,5.31,5.62,5.31s4.91-1.18,4.91-2.98-1.45-2.28-6.41-3.69c-5.27-1.49-7.81-3.29-7.81-6.8s2.98-6.89,8.56-6.89,8.47,2.9,9.52,6.8l-4.21,1.23c-.74-2.19-2.11-3.86-5.31-3.86-2.63,0-3.99,1.23-3.99,2.5,0,1.54,.97,1.93,6.85,3.6,5.88,1.67,7.33,3.82,7.33,7.2s-2.68,7.11-9.26,7.11-9.79-4.21-10.36-8.43l4.57-1.1Z"/><path class="cls-1" d="M250.65,236.78h5.18v4.96h-5.18v-4.96Zm.09,8.78h5v23.26h-5v-23.26Z"/><path class="cls-1" d="M263.73,249.86h-3.51v-4.3h3.64v-5.71h4.74v5.71h5.84v4.3h-5.79v10.67c0,2.41,.48,3.47,3.03,3.47h1.84v4.83h-2.24c-5.84,0-7.55-2.63-7.55-7.77v-11.19Z"/><path class="cls-1" d="M285.46,267.77l-9.04-22.21h5.27l6.1,16.02h.09l6.1-16.02h5.18l-13.25,33.14h-4.83l4.39-10.93Z"/><path class="cls-1" d="M310.57,257.19c0-7.94,5.05-12.29,10.8-12.29s10.71,4.35,10.71,12.29-4.7,12.29-10.71,12.29-10.8-4.35-10.8-12.29Zm16.59,0c0-5.05-2.42-7.77-5.8-7.77s-5.84,2.63-5.84,7.77,2.41,7.77,5.84,7.77,5.8-2.72,5.8-7.77Z"/><path class="cls-1" d="M338.22,249.86h-3.51v-4.3h3.6v-3.38c0-4.17,2.28-5.4,5.75-5.4h4.3v4.43h-3.29c-1.54,0-2.02,.48-2.02,2.11v2.24h5.84v4.3h-5.71v18.96h-4.96v-18.96Z"/></g><g><path class="cls-1" d="M5.44,307.76c.74,4.91,2.24,7.42,6.93,7.42,3.77,0,5.97-1.62,5.97-4.17s-1.05-3.51-8.12-5.71c-6.58-2.06-9-4.87-9-8.87,0-4.43,3.6-8.52,10.1-8.52,5.44,0,10.18,2.59,11.19,8.43l-5.05,1.23c-.75-2.72-2.24-4.83-6.14-4.83-3.47,0-5,1.62-5,3.64s1.01,2.68,7.77,4.96c7.42,2.5,9.35,4.83,9.35,9.35,0,5.18-4.13,9.26-11.1,9.26s-11.41-3.69-12.33-11.02l5.44-1.19Z"/><path class="cls-1" d="M26.6,307.67c0-7.95,5.05-12.29,10.8-12.29s10.71,4.35,10.71,12.29-4.7,12.29-10.71,12.29-10.8-4.35-10.8-12.29Zm16.59,0c0-5.05-2.42-7.77-5.8-7.77s-5.84,2.63-5.84,7.77,2.41,7.77,5.84,7.77,5.8-2.72,5.8-7.77Z"/><path class="cls-1" d="M52.94,296.04h5v14.48c0,3.47,1.19,4.65,4.08,4.65s4.78-1.49,4.78-5v-14.13h5v23.26h-4.83v-2.24h-.09c-.53,.75-2.37,2.9-6.01,2.9-5.44,0-7.94-3.42-7.94-8.87v-15.06Z"/><path class="cls-1" d="M79.5,300.34h-3.51v-4.3h3.64v-5.71h4.74v5.71h5.84v4.3h-5.79v10.67c0,2.41,.48,3.47,3.03,3.47h1.84v4.83h-2.24c-5.84,0-7.55-2.63-7.55-7.77v-11.19Z"/><path class="cls-1" d="M94.9,287.26h5v11.06h.09c1.01-1.54,3.73-2.94,6.23-2.94,4.91,0,8.38,3.16,8.38,8.52v15.41h-4.96v-14.22c0-2.9-1.58-5.09-4.78-5.09-3.03,0-4.96,2.02-4.96,4.7v14.62h-5v-32.04Z"/><path class="cls-1" d="M119.27,302.71h11.55v3.99h-11.55v-3.99Z"/><path class="cls-1" d="M135.43,288.58h19.14v4.79h-13.96v7.9h12.73v4.61h-12.73v8.65h13.96v4.78h-19.14v-30.72Z"/><path class="cls-1" d="M173.83,316.98h-.09c-.22,.35-2.06,2.98-6.58,2.98-5.79,0-8.21-3.29-8.21-6.8,0-4.08,2.28-5.88,7.9-7.24,5.05-1.27,6.23-1.8,6.23-3.47,0-1.49-1.27-2.76-4.26-2.76-3.56,0-4.61,2.02-5.18,4.08l-4.26-1.62c.92-3.69,3.91-6.76,9.3-6.76s9.39,2.46,9.39,8.87v15.06h-4.26v-2.33Zm-10.05-4.17c0,1.89,1.32,2.81,3.82,2.81,3.99,0,5.66-1.93,5.66-3.91v-4.65h-.09c-.26,.57-.7,1.19-5.31,2.42-3.55,.88-4.08,2.06-4.08,3.34Z"/><path class="cls-1" d="M186.7,310.44c.39,3.42,2.33,5.31,5.62,5.31s4.91-1.18,4.91-2.98-1.45-2.28-6.41-3.69c-5.27-1.49-7.81-3.29-7.81-6.8s2.98-6.89,8.56-6.89,8.47,2.9,9.52,6.8l-4.21,1.23c-.74-2.19-2.11-3.86-5.31-3.86-2.63,0-3.99,1.23-3.99,2.5,0,1.54,.97,1.93,6.85,3.6,5.88,1.67,7.33,3.82,7.33,7.2s-2.68,7.11-9.26,7.11-9.79-4.21-10.36-8.43l4.57-1.1Z"/><path class="cls-1" d="M207.55,300.34h-3.51v-4.3h3.64v-5.71h4.74v5.71h5.84v4.3h-5.79v10.67c0,2.41,.48,3.47,3.03,3.47h1.84v4.83h-2.24c-5.84,0-7.55-2.63-7.55-7.77v-11.19Z"/><path class="cls-1" d="M241.26,314.52c-1.8,2.9-4.74,5.44-9.66,5.44-6.32,0-10.93-4.74-10.93-12.29s4.61-12.29,10.71-12.29,10.58,4.65,10.58,12.29v1.49h-16.24c.13,3.77,2.11,6.36,5.79,6.36s5.13-2.37,6.14-3.95l3.6,2.94Zm-4.17-9.13c-.18-3.12-1.97-5.58-5.71-5.58s-5.44,2.9-5.62,5.58h11.32Z"/><path class="cls-1" d="M247.01,296.04h4.74v2.46h.09c.92-1.8,2.85-2.9,4.83-2.9,.83,0,1.54,.22,2.06,.44l-.79,4.87c-.48-.13-1.05-.35-1.84-.35-2.63,0-4.08,1.76-4.08,5.79v12.95h-5v-23.26Z"/><path class="cls-1" d="M262.9,296.04h4.83v2.24h.09c1.23-1.58,3.64-2.9,6.28-2.9,5.09,0,8.3,3.2,8.3,8.69v15.23h-4.96v-13.91c0-3.42-1.23-5.4-4.52-5.4-3.07,0-5,1.89-5,4.87v14.44h-5v-23.26Z"/><path class="cls-1" d="M298.85,288.58h5.4l12.2,21.73h.09v-21.73h5.18v30.72h-5.27l-12.33-21.73h-.09v21.73h-5.18v-30.72Z"/><path class="cls-1" d="M326.99,307.67c0-7.95,5.05-12.29,10.8-12.29s10.71,4.35,10.71,12.29-4.7,12.29-10.71,12.29-10.8-4.35-10.8-12.29Zm16.59,0c0-5.05-2.42-7.77-5.8-7.77s-5.84,2.63-5.84,7.77,2.41,7.77,5.84,7.77,5.8-2.72,5.8-7.77Z"/><path class="cls-1" d="M353.42,296.04h4.74v2.46h.09c.92-1.8,2.85-2.9,4.83-2.9,.83,0,1.54,.22,2.06,.44l-.79,4.87c-.48-.13-1.05-.35-1.84-.35-2.63,0-4.08,1.76-4.08,5.79v12.95h-5v-23.26Z"/><path class="cls-1" d="M367.55,296.04h4.92l3.29,16.2h.09l5.53-16.2h4.52l5.18,16.15h.09l3.73-16.15h4.83l-5.57,23.26h-4.83l-5.66-17.47h-.09l-6.1,17.47h-4.79l-5.13-23.26Z"/><path class="cls-1" d="M417.24,316.98h-.09c-.22,.35-2.06,2.98-6.58,2.98-5.79,0-8.21-3.29-8.21-6.8,0-4.08,2.28-5.88,7.9-7.24,5.05-1.27,6.23-1.8,6.23-3.47,0-1.49-1.27-2.76-4.26-2.76-3.56,0-4.61,2.02-5.18,4.08l-4.26-1.62c.92-3.69,3.91-6.76,9.3-6.76s9.39,2.46,9.39,8.87v15.06h-4.26v-2.33Zm-10.05-4.17c0,1.89,1.32,2.81,3.82,2.81,3.99,0,5.66-1.93,5.66-3.91v-4.65h-.09c-.26,.57-.7,1.19-5.31,2.42-3.55,.88-4.08,2.06-4.08,3.34Z"/><path class="cls-1" d="M432.73,318.25l-9.04-22.21h5.27l6.1,16.02h.09l6.1-16.02h5.18l-13.25,33.14h-4.83l4.39-10.93Z"/></g></svg>