<?xml version="1.0" encoding="UTF-8"?><svg id="Layer_1" xmlns="http://www.w3.org/2000/svg" viewBox="0 0 312.05 329.86"><defs><style>.cls-1{fill:#fff;}</style></defs><path class="cls-1" d="M300.08,2.5h-11V135.5l-49-63.25C199.83,20.25,172.33,0,131.83,0,99.83,0,71.08,17.75,71.08,51s25.5,44,49,54.75c20,9,38.75,17.25,38.75,38,0,22.5-21,37.25-52.75,37.25-38.75,0-61.5-24.75-61.5-66V2.5H13.58V109.5c0,60.25,46.75,81.5,92.5,81.5,51.25,0,80-27.75,80-64.25V51l105.5,137.5h8.5V2.5Zm-125,106.5c-8.25-13.25-24.5-21.25-40-29-20-9.75-39-19-39-38.75,0-21.75,15-31.75,37-31.25s42,13.75,42,48v51Z"/><g><g><path class="cls-1" d="M26.89,238.1h5.18v20.47c0,3.82,2.02,6.15,6.15,6.15s6.24-2.37,6.24-6.06v-20.56h5.14v20.73c0,6.68-4.57,10.67-11.38,10.67s-11.33-4-11.33-10.67v-20.73Z"/><path class="cls-1" d="M55.97,245.57h4.83v2.24h.09c1.23-1.58,3.65-2.9,6.28-2.9,5.1,0,8.3,3.21,8.3,8.7v15.24h-4.96v-13.93c0-3.43-1.23-5.4-4.52-5.4-3.08,0-5.01,1.89-5.01,4.88v14.45h-5.01v-23.28Z"/><path class="cls-1" d="M81.84,236.78h5.18v4.96h-5.18v-4.96Zm.09,8.79h5.01v23.28h-5.01v-23.28Z"/><path class="cls-1" d="M90.98,245.57h5.18l6.24,16.08h.09l6.24-16.08h5.14l-9.36,23.28h-4.17l-9.36-23.28Z"/><path class="cls-1" d="M136.01,264.06c-1.8,2.9-4.74,5.45-9.66,5.45-6.33,0-10.94-4.74-10.94-12.3s4.61-12.3,10.72-12.3,10.59,4.66,10.59,12.3v1.49h-16.25c.13,3.78,2.11,6.37,5.8,6.37s5.14-2.37,6.15-3.95l3.6,2.94Zm-4.17-9.14c-.18-3.12-1.98-5.58-5.71-5.58s-5.45,2.9-5.62,5.58h11.33Z"/><path class="cls-1" d="M141.77,245.57h4.74v2.46h.09c.92-1.8,2.86-2.9,4.83-2.9,.84,0,1.54,.22,2.07,.44l-.79,4.88c-.48-.13-1.05-.35-1.85-.35-2.64,0-4.09,1.76-4.09,5.8v12.96h-5.01v-23.28Z"/><path class="cls-1" d="M160.48,259.97c.4,3.43,2.33,5.32,5.62,5.32s4.92-1.19,4.92-2.99-1.45-2.28-6.41-3.69c-5.27-1.49-7.82-3.29-7.82-6.81s2.99-6.9,8.57-6.9,8.48,2.9,9.53,6.81l-4.22,1.23c-.75-2.2-2.11-3.87-5.32-3.87-2.64,0-4,1.23-4,2.5,0,1.54,.97,1.93,6.85,3.6,5.89,1.67,7.34,3.82,7.34,7.2s-2.68,7.12-9.27,7.12-9.8-4.22-10.37-8.43l4.57-1.1Z"/><path class="cls-1" d="M180.38,236.78h5.18v4.96h-5.18v-4.96Zm.09,8.79h5.01v23.28h-5.01v-23.28Z"/><path class="cls-1" d="M193.26,249.87h-3.51v-4.31h3.65v-5.71h4.74v5.71h5.84v4.31h-5.8v10.67c0,2.42,.48,3.47,3.03,3.47h1.85v4.83h-2.24c-5.84,0-7.56-2.64-7.56-7.78v-11.2Z"/><path class="cls-1" d="M226.99,264.06c-1.8,2.9-4.74,5.45-9.66,5.45-6.33,0-10.94-4.74-10.94-12.3s4.61-12.3,10.72-12.3,10.59,4.66,10.59,12.3v1.49h-16.25c.13,3.78,2.11,6.37,5.8,6.37s5.14-2.37,6.15-3.95l3.6,2.94Zm-4.17-9.14c-.18-3.12-1.98-5.58-5.71-5.58s-5.45,2.9-5.62,5.58h11.33Z"/><path class="cls-1" d="M233.85,249.87h-3.51v-4.31h3.65v-5.71h4.74v5.71h5.84v4.31h-5.8v10.67c0,2.42,.48,3.47,3.03,3.47h1.85v4.83h-2.24c-5.84,0-7.56-2.64-7.56-7.78v-11.2Z"/><path class="cls-1" d="M267.59,264.06c-1.8,2.9-4.74,5.45-9.66,5.45-6.33,0-10.94-4.74-10.94-12.3s4.61-12.3,10.72-12.3,10.59,4.66,10.59,12.3v1.49h-16.25c.13,3.78,2.11,6.37,5.8,6.37s5.14-2.37,6.15-3.95l3.6,2.94Zm-4.17-9.14c-.18-3.12-1.98-5.58-5.71-5.58s-5.45,2.9-5.62,5.58h11.33Z"/><path class="cls-1" d="M274.44,249.87h-3.51v-4.31h3.65v-5.71h4.74v5.71h5.84v4.31h-5.8v10.67c0,2.42,.48,3.47,3.03,3.47h1.85v4.83h-2.24c-5.84,0-7.56-2.64-7.56-7.78v-11.2Z"/></g><g><path class="cls-1" d="M0,287.25H5.18v4.96H0v-4.96Zm.09,8.79H5.1v23.28H.09v-23.28Z"/><path class="cls-1" d="M22.71,307.76c.75,4.92,2.24,7.42,6.94,7.42,3.78,0,5.97-1.63,5.97-4.17s-1.05-3.51-8.13-5.71c-6.59-2.07-9.01-4.88-9.01-8.87,0-4.44,3.6-8.52,10.1-8.52,5.45,0,10.19,2.59,11.2,8.43l-5.05,1.23c-.75-2.72-2.24-4.83-6.15-4.83-3.47,0-5.01,1.63-5.01,3.65s1.01,2.68,7.77,4.96c7.42,2.5,9.36,4.83,9.36,9.36,0,5.18-4.13,9.27-11.11,9.27s-11.42-3.69-12.34-11.03l5.45-1.19Z"/><path class="cls-1" d="M46.96,316.33c-1.71-2.07-2.72-4.96-2.72-8.65,0-7.95,5.05-12.3,10.81-12.3,2.37,0,4.61,.79,6.46,2.24l1.67-2.2,1.67,1.4-1.8,2.29c1.67,2.06,2.72,4.96,2.72,8.57,0,7.95-4.7,12.3-10.72,12.3-2.5,0-4.79-.75-6.59-2.15l-1.63,2.11-1.67-1.36,1.8-2.24Zm11.64-15.02c-.97-.92-2.2-1.4-3.56-1.4-3.29,0-5.84,2.63-5.84,7.77,0,1.89,.31,3.43,.88,4.61l8.52-10.98Zm-7.25,12.78c.97,.92,2.24,1.36,3.69,1.36,3.38,0,5.8-2.72,5.8-7.78,0-1.85-.35-3.34-.97-4.52l-8.52,10.94Z"/><path class="cls-1" d="M71.04,296.04h4.74v2.46h.09c.92-1.8,2.86-2.9,4.83-2.9,.84,0,1.54,.22,2.07,.44l-.79,4.88c-.48-.13-1.05-.35-1.85-.35-2.64,0-4.09,1.76-4.09,5.8v12.96h-5.01v-23.28Z"/><path class="cls-1" d="M100.29,316.99h-.09c-.22,.35-2.07,2.99-6.59,2.99-5.8,0-8.21-3.29-8.21-6.81,0-4.09,2.28-5.89,7.91-7.25,5.05-1.27,6.24-1.8,6.24-3.47,0-1.49-1.27-2.77-4.26-2.77-3.56,0-4.61,2.02-5.18,4.09l-4.26-1.63c.92-3.69,3.91-6.76,9.31-6.76s9.4,2.46,9.4,8.87v15.07h-4.26v-2.33Zm-10.06-4.17c0,1.89,1.32,2.81,3.82,2.81,4,0,5.67-1.93,5.67-3.91v-4.66h-.09c-.26,.57-.7,1.18-5.32,2.42-3.56,.88-4.09,2.06-4.09,3.34Z"/><path class="cls-1" d="M110.27,296.04h5.01v14.5c0,3.47,1.18,4.66,4.08,4.66s4.79-1.49,4.79-5.01v-14.15h5.01v23.28h-4.83v-2.24h-.09c-.53,.75-2.37,2.9-6.02,2.9-5.45,0-7.95-3.43-7.95-8.87v-15.07Z"/><path class="cls-1" d="M138.21,310.45c.4,3.43,2.33,5.32,5.62,5.32s4.92-1.19,4.92-2.99-1.45-2.29-6.41-3.69c-5.27-1.49-7.82-3.29-7.82-6.81s2.99-6.9,8.57-6.9,8.48,2.9,9.53,6.81l-4.22,1.23c-.75-2.2-2.11-3.87-5.32-3.87-2.64,0-4,1.23-4,2.5,0,1.54,.97,1.93,6.85,3.6,5.89,1.67,7.34,3.82,7.34,7.2s-2.68,7.12-9.27,7.12-9.8-4.22-10.37-8.43l4.57-1.1Z"/><path class="cls-1" d="M158.99,300.34h-3.51v-4.31h3.65v-5.71h4.74v5.71h5.84v4.31h-5.8v10.67c0,2.42,.48,3.47,3.03,3.47h1.85v4.83h-2.24c-5.84,0-7.56-2.64-7.56-7.78v-11.2Z"/><path class="cls-1" d="M174.98,302.71h14.45v4h-14.45v-4Z"/><path class="cls-1" d="M196.9,288.57h5.4l12.21,21.75h.09v-21.75h5.18v30.75h-5.27l-12.34-21.74h-.09v21.74h-5.18v-30.75Z"/><path class="cls-1" d="M225.06,307.68c0-7.95,5.05-12.3,10.81-12.3s10.72,4.35,10.72,12.3-4.7,12.3-10.72,12.3-10.81-4.35-10.81-12.3Zm16.61,0c0-5.05-2.42-7.77-5.8-7.77s-5.84,2.63-5.84,7.77,2.42,7.78,5.84,7.78,5.8-2.72,5.8-7.78Z"/><path class="cls-1" d="M251.73,296.04h4.74v2.46h.09c.92-1.8,2.86-2.9,4.83-2.9,.84,0,1.54,.22,2.07,.44l-.79,4.88c-.48-.13-1.05-.35-1.85-.35-2.64,0-4.09,1.76-4.09,5.8v12.96h-5.01v-23.28Z"/><path class="cls-1" d="M286.04,314.53c-1.8,2.9-4.74,5.45-9.66,5.45-6.33,0-10.94-4.74-10.94-12.3s4.61-12.3,10.72-12.3,10.59,4.66,10.59,12.3v1.49h-16.25c.13,3.78,2.11,6.37,5.8,6.37s5.14-2.37,6.15-3.95l3.6,2.94Zm-4.17-9.14c-.18-3.12-1.98-5.58-5.71-5.58s-5.45,2.9-5.62,5.58h11.33Z"/><path class="cls-1" d="M296.06,321.43c1.14,2.46,2.64,4.04,5.76,4.04s5.23-1.63,5.23-5.32v-2.99h-.09c-.92,1.36-3.07,2.81-6.02,2.81-5.84,0-10.45-4.48-10.45-12.3s4.96-12.3,10.37-12.3c3.12,0,5.14,1.41,6.28,2.9h.09v-2.24h4.83v23.41c0,6.94-4.35,10.41-10.23,10.41-5.05,0-8.26-2.59-9.62-5.98l3.87-2.46Zm10.98-16.47c0-2.59-1.98-5.05-5.36-5.05-3.65,0-6.19,2.68-6.19,7.77s2.5,7.78,6.19,7.78c3.25,0,5.36-2.24,5.36-4.88v-5.62Z"/></g></g></svg>