<?xml version="1.0" encoding="UTF-8"?><svg id="Layer_1" xmlns="http://www.w3.org/2000/svg" viewBox="0 0 286.5 191"><defs><style>.cls-1{fill:#7800f0;}</style></defs><path class="cls-1" d="M286.5,2.5h-11V135.5l-49-63.25C186.25,20.25,158.75,0,118.25,0c-32,0-60.75,17.75-60.75,51s25.5,44,49,54.75c20,9,38.75,17.25,38.75,38,0,22.5-21,37.25-52.75,37.25-38.75,0-61.5-24.75-61.5-66V2.5H0V109.5C0,169.75,46.75,191,92.5,191c51.25,0,80-27.75,80-64.25V51l105.5,137.5h8.5V2.5Zm-125,106.5c-8.25-13.25-24.5-21.25-40-29-20-9.75-39-19-39-38.75,0-21.75,15-31.75,37-31.25s42,13.75,42,48v51Z"/></svg>