<?xml version="1.0" encoding="UTF-8" standalone="no"?>
<svg
   xmlns:dc="http://purl.org/dc/elements/1.1/"
   xmlns:cc="http://creativecommons.org/ns#"
   xmlns:rdf="http://www.w3.org/1999/02/22-rdf-syntax-ns#"
   xmlns:svg="http://www.w3.org/2000/svg"
   xmlns="http://www.w3.org/2000/svg"
   xmlns:sodipodi="http://sodipodi.sourceforge.net/DTD/sodipodi-0.dtd"
   xmlns:inkscape="http://www.inkscape.org/namespaces/inkscape"
   viewBox="0 0 464.4375 88.58249"
   height="88.5825"
   width="464.4375"
   xml:space="preserve"
   version="1.1"
   id="svg2"
   inkscape:version="0.91 r13725"
   sodipodi:docname="HSN_logo_nn_neg.svg"><sodipodi:namedview
     pagecolor="#ffffff"
     bordercolor="#666666"
     borderopacity="1"
     objecttolerance="10"
     gridtolerance="10"
     guidetolerance="10"
     inkscape:pageopacity="0"
     inkscape:pageshadow="2"
     inkscape:window-width="698"
     inkscape:window-height="480"
     id="namedview4237"
     showgrid="false"
     fit-margin-top="0"
     fit-margin-left="0"
     fit-margin-right="0"
     fit-margin-bottom="0"
     inkscape:zoom="0.54666"
     inkscape:cx="232.2194"
     inkscape:cy="44.29075"
     inkscape:window-x="10"
     inkscape:window-y="24"
     inkscape:window-maximized="0"
     inkscape:current-layer="svg2" /><metadata
     id="metadata8"><rdf:RDF><cc:Work
         rdf:about=""><dc:format>image/svg+xml</dc:format><dc:type
           rdf:resource="http://purl.org/dc/dcmitype/StillImage" /><dc:title></dc:title></cc:Work></rdf:RDF></metadata><defs
     id="defs6"><clipPath
       id="clipPath20"
       clipPathUnits="userSpaceOnUse"><path
         id="path22"
         d="m 0,155.905 456.591,0 L 456.591,0 0,0 0,155.905 Z"
         inkscape:connector-curvature="0" /></clipPath></defs><g
     transform="matrix(1.25,0,0,-1.25,-53.15,141.7324)"
     id="g10"><g
       transform="translate(215.9248,112.1833)"
       id="g12"><path
         id="path14"
         style="fill:#ffffff;fill-opacity:1;fill-rule:nonzero;stroke:none"
         d="m 0,0 3.287,0 0,-8.023 7.354,0 0,8.023 3.288,0 0,-19.5 -3.288,0 0,8.636 -7.354,0 0,-8.636 L 0,-19.5 0,0 Z"
         inkscape:connector-curvature="0" /></g><g
       id="g16"><g
         clip-path="url(#clipPath20)"
         id="g18"><g
           transform="translate(237.8468,95.9988)"
           id="g24"><path
             id="path26"
             style="fill:#ffffff;fill-opacity:1;fill-rule:nonzero;stroke:none"
             d="m 0,0 c 0.614,-0.585 1.421,-0.864 2.341,-0.864 2.144,0 3.677,1.728 3.677,4.931 0,1.17 -0.223,2.117 -0.614,2.869 L 0,0 Z M 4.597,8.106 C 3.983,8.691 3.204,8.997 2.341,8.997 c -2.09,0 -3.706,-1.671 -3.706,-4.93 0,-1.198 0.196,-2.173 0.558,-2.925 l 5.404,6.964 z m -7.382,-9.527 c -1.087,1.309 -1.728,3.148 -1.728,5.488 0,5.042 3.204,7.8 6.854,7.8 1.504,0 2.924,-0.502 4.095,-1.421 L 7.494,11.839 8.552,10.948 7.41,9.499 C 8.469,8.19 9.137,6.351 9.137,4.067 c 0,-5.042 -2.98,-7.8 -6.796,-7.8 -1.589,0 -3.037,0.474 -4.18,1.365 l -1.03,-1.337 -1.059,0.863 1.143,1.421 z"
             inkscape:connector-curvature="0" /></g><g
           transform="translate(259.7134,101.793)"
           id="g28"><path
             id="path30"
             style="fill:#ffffff;fill-opacity:1;fill-rule:nonzero;stroke:none"
             d="m 0,0 c 0,1.643 -1.253,3.203 -3.398,3.203 -2.313,0 -3.928,-1.699 -3.928,-4.931 0,-3.231 1.588,-4.93 3.928,-4.93 2.061,0 3.398,1.421 3.398,3.092 L 0,0 Z m -6.964,-10.447 c 0.724,-1.56 1.671,-2.562 3.649,-2.562 1.95,0 3.315,1.03 3.315,3.37 l 0,1.895 -0.056,0 c -0.585,-0.864 -1.95,-1.783 -3.816,-1.783 -3.705,0 -6.63,2.841 -6.63,7.799 0,4.959 3.148,7.801 6.574,7.801 1.978,0 3.26,-0.892 3.984,-1.839 l 0.056,0 0,1.421 3.064,0 0,-14.848 c 0,-4.401 -2.758,-6.603 -6.491,-6.603 -3.203,0 -5.237,1.644 -6.1,3.789 l 2.451,1.56 z"
             inkscape:connector-curvature="0" /></g><g
           transform="translate(268.7108,98.3105)"
           id="g32"><path
             id="path34"
             style="fill:#ffffff;fill-opacity:1;fill-rule:nonzero;stroke:none"
             d="m 0,0 c 0.25,-2.173 1.477,-3.37 3.566,-3.37 2.006,0 3.119,0.752 3.119,1.894 0,1.17 -0.919,1.448 -4.067,2.34 -3.342,0.947 -4.958,2.089 -4.958,4.318 0,2.228 1.894,4.373 5.432,4.373 3.537,0 5.376,-1.839 6.045,-4.318 L 6.463,4.457 C 5.989,5.85 5.125,6.909 3.092,6.909 1.421,6.909 0.557,6.129 0.557,5.321 0.557,4.346 1.17,4.095 4.902,3.037 8.635,1.978 9.555,0.613 9.555,-1.532 c 0,-2.062 -1.7,-4.513 -5.878,-4.513 -4.345,0 -6.212,2.675 -6.574,5.349 L 0,0 Z"
             inkscape:connector-curvature="0" /></g><g
           transform="translate(281.3286,113.0189)"
           id="g36"><path
             id="path38"
             style="fill:#ffffff;fill-opacity:1;fill-rule:nonzero;stroke:none"
             d="m 0,0 3.176,0 0,-11.895 0.056,0 5.655,6.324 4.039,0 -5.348,-5.934 5.905,-8.83 -3.593,0 -4.68,6.992 -0.056,0 -1.978,-2.173 0,-4.819 -3.176,0 L 0,0 Z"
             inkscape:connector-curvature="0" /></g><g
           transform="translate(306.0368,100.0655)"
           id="g40"><path
             id="path42"
             style="fill:#ffffff;fill-opacity:1;fill-rule:nonzero;stroke:none"
             d="m 0,0 c 0,3.204 -1.532,4.931 -3.677,4.931 -2.145,0 -3.705,-1.672 -3.705,-4.931 0,-3.287 1.533,-4.931 3.705,-4.931 C -1.532,-4.931 0,-3.203 0,0 m -10.53,0 c 0,5.042 3.204,7.8 6.853,7.8 3.621,0 6.797,-2.758 6.797,-7.8 0,-5.042 -2.98,-7.8 -6.797,-7.8 -3.844,0 -6.853,2.758 -6.853,7.8"
             inkscape:connector-curvature="0" /></g><path
           id="path44"
           style="fill:#ffffff;fill-opacity:1;fill-rule:nonzero;stroke:none"
           d="m 312.359,113.019 3.288,0 0,-20.335 -3.288,0 0,20.335 z"
           inkscape:connector-curvature="0" /><g
           transform="translate(329.2675,101.5141)"
           id="g46"><path
             id="path48"
             style="fill:#ffffff;fill-opacity:1;fill-rule:nonzero;stroke:none"
             d="M 0,0 C -0.112,1.978 -1.253,3.538 -3.621,3.538 -5.905,3.538 -7.076,1.699 -7.187,0 L 0,0 Z m 2.647,-5.794 c -1.142,-1.839 -3.009,-3.454 -6.129,-3.454 -4.011,0 -6.936,3.008 -6.936,7.799 0,4.792 2.925,7.8 6.797,7.8 3.844,0 6.713,-2.952 6.713,-7.8 l 0,-0.946 -10.307,0 c 0.084,-2.396 1.337,-4.04 3.678,-4.04 2.256,0 3.259,1.504 3.899,2.507 l 2.285,-1.866 z"
             inkscape:connector-curvature="0" /></g><g
           transform="translate(335.5623,107.4478)"
           id="g50"><path
             id="path52"
             style="fill:#ffffff;fill-opacity:1;fill-rule:nonzero;stroke:none"
             d="m 0,0 3.064,0 0,-1.421 0.055,0 c 0.781,1.003 2.313,1.839 3.984,1.839 3.232,0 5.265,-2.034 5.265,-5.516 l 0,-9.666 -3.148,0 0,8.83 c 0,2.173 -0.779,3.427 -2.869,3.427 -1.95,0 -3.176,-1.198 -3.176,-3.093 l 0,-9.164 -3.175,0 L 0,0 Z"
             inkscape:connector-curvature="0" /></g><path
           id="path54"
           style="fill:#ffffff;fill-opacity:1;fill-rule:nonzero;stroke:none"
           d="m 215.924,75.414 3.176,0 0,-14.764 -3.176,0 0,14.764 z m -0.055,5.572 3.287,0 0,-3.148 -3.287,0 0,3.148 z"
           inkscape:connector-curvature="0" /><g
           transform="translate(230.2702,67.9764)"
           id="g56"><path
             id="path58"
             style="fill:#ffffff;fill-opacity:1;fill-rule:nonzero;stroke:none"
             d="m 0,0 c 0.474,-3.119 1.421,-4.708 4.401,-4.708 2.396,0 3.788,1.031 3.788,2.647 0,1.587 -0.668,2.228 -5.153,3.622 -4.179,1.309 -5.711,3.092 -5.711,5.626 0,2.814 2.285,5.404 6.407,5.404 3.455,0 6.463,-1.642 7.104,-5.348 L 7.632,6.463 c -0.473,1.727 -1.42,3.065 -3.9,3.065 -2.201,0 -3.175,-1.032 -3.175,-2.313 0,-1.253 0.641,-1.699 4.93,-3.147 4.708,-1.588 5.934,-3.065 5.934,-5.934 0,-3.287 -2.618,-5.878 -7.048,-5.878 -4.457,0 -7.243,2.34 -7.828,6.993 L 0,0 Z"
             inkscape:connector-curvature="0" /></g><g
           transform="translate(248.487,63.9655)"
           id="g60"><path
             id="path62"
             style="fill:#ffffff;fill-opacity:1;fill-rule:nonzero;stroke:none"
             d="m 0,0 c 0.613,-0.585 1.421,-0.864 2.34,-0.864 2.144,0 3.677,1.727 3.677,4.931 0,1.17 -0.223,2.117 -0.613,2.869 L 0,0 Z M 4.596,8.106 C 3.984,8.691 3.204,8.997 2.34,8.997 c -2.089,0 -3.705,-1.671 -3.705,-4.93 0,-1.198 0.195,-2.173 0.557,-2.925 l 5.404,6.964 z m -7.382,-9.527 c -1.086,1.309 -1.727,3.148 -1.727,5.488 0,5.042 3.204,7.799 6.853,7.799 1.505,0 2.925,-0.501 4.095,-1.419 L 7.493,11.839 8.552,10.948 7.41,9.499 C 8.468,8.19 9.137,6.351 9.137,4.067 c 0,-5.043 -2.98,-7.8 -6.797,-7.8 -1.588,0 -3.037,0.474 -4.179,1.365 l -1.03,-1.338 -1.059,0.864 1.142,1.421 z"
             inkscape:connector-curvature="0" /></g><g
           transform="translate(261.1049,75.414)"
           id="g64"><path
             id="path66"
             style="fill:#ffffff;fill-opacity:1;fill-rule:nonzero;stroke:none"
             d="m 0,0 3.009,0 0,-1.56 0.056,0 C 3.65,-0.418 4.875,0.279 6.129,0.279 6.658,0.279 7.104,0.14 7.439,0 L 6.937,-3.092 c -0.307,0.084 -0.669,0.223 -1.171,0.223 -1.671,0 -2.59,-1.114 -2.59,-3.677 l 0,-8.218 -3.176,0 L 0,0 Z"
             inkscape:connector-curvature="0" /></g><g
           transform="translate(273.1943,64.7727)"
           id="g68"><path
             id="path70"
             style="fill:#ffffff;fill-opacity:1;fill-rule:nonzero;stroke:none"
             d="m 0,0 c 0,-1.198 0.836,-1.783 2.424,-1.783 2.534,0 3.593,1.226 3.593,2.48 l 0,2.953 -0.056,0 C 5.795,3.288 5.516,2.897 2.591,2.117 0.335,1.561 0,0.808 0,0 m 6.379,-2.646 -0.056,0 C 6.184,-2.869 5.014,-4.54 2.145,-4.54 c -3.677,0 -5.21,2.089 -5.21,4.318 0,2.59 1.449,3.732 5.015,4.596 3.204,0.808 3.955,1.142 3.955,2.201 0,0.947 -0.807,1.755 -2.701,1.755 -2.257,0 -2.925,-1.282 -3.287,-2.591 l -2.703,1.03 c 0.585,2.341 2.48,4.29 5.906,4.29 3.287,0 5.962,-1.56 5.962,-5.626 l 0,-9.555 -2.703,0 0,1.476 z"
             inkscape:connector-curvature="0" /></g><g
           transform="translate(285.8963,75.414)"
           id="g72"><path
             id="path74"
             style="fill:#ffffff;fill-opacity:1;fill-rule:nonzero;stroke:none"
             d="m 0,0 3.175,0 0,-9.192 c 0,-2.201 0.753,-2.953 2.591,-2.953 1.783,0 3.037,0.947 3.037,3.176 l 0,8.969 3.175,0 0,-14.764 -3.064,0 0,1.421 -0.056,0 C 8.524,-13.816 7.353,-15.182 5.041,-15.182 1.587,-15.182 0,-13.008 0,-9.554 L 0,0 Z"
             inkscape:connector-curvature="0" /></g><g
           transform="translate(303.6953,66.2777)"
           id="g76"><path
             id="path78"
             style="fill:#ffffff;fill-opacity:1;fill-rule:nonzero;stroke:none"
             d="m 0,0 c 0.251,-2.173 1.477,-3.371 3.566,-3.371 2.006,0 3.12,0.753 3.12,1.894 0,1.171 -0.92,1.449 -4.068,2.34 -3.342,0.947 -4.958,2.089 -4.958,4.318 0,2.228 1.895,4.373 5.432,4.373 3.538,0 5.377,-1.838 6.045,-4.317 L 6.463,4.457 C 5.989,5.85 5.126,6.908 3.092,6.908 1.421,6.908 0.558,6.128 0.558,5.32 0.558,4.346 1.17,4.095 4.903,3.036 8.636,1.978 9.555,0.613 9.555,-1.532 c 0,-2.062 -1.699,-4.513 -5.878,-4.513 -4.345,0 -6.211,2.674 -6.573,5.348 L 0,0 Z"
             inkscape:connector-curvature="0" /></g><g
           transform="translate(316.9266,72.684)"
           id="g80"><path
             id="path82"
             style="fill:#ffffff;fill-opacity:1;fill-rule:nonzero;stroke:none"
             d="m 0,0 -2.228,0 0,2.73 2.312,0 0,3.621 3.008,0 0,-3.621 3.705,0 0,-2.73 -3.677,0 0,-6.768 c 0,-1.533 0.307,-2.201 1.922,-2.201 l 1.171,0 0,-3.065 -1.421,0 C 1.086,-12.034 0,-10.362 0,-7.103 L 0,0 Z"
             inkscape:connector-curvature="0" /></g><path
           id="path84"
           style="fill:#ffffff;fill-opacity:1;fill-rule:nonzero;stroke:none"
           d="m 327.066,71.18 9.165,0 0,-2.534 -9.165,0 0,2.534 z"
           inkscape:connector-curvature="0" /><g
           transform="translate(340.9655,80.1499)"
           id="g86"><path
             id="path88"
             style="fill:#ffffff;fill-opacity:1;fill-rule:nonzero;stroke:none"
             d="m 0,0 3.427,0 7.744,-13.789 0.055,0 0,13.789 3.287,0 0,-19.5 -3.342,0 -7.828,13.789 -0.056,0 0,-13.789 L 0,-19.5 0,0 Z"
             inkscape:connector-curvature="0" /></g><g
           transform="translate(369.35,68.0321)"
           id="g90"><path
             id="path92"
             style="fill:#ffffff;fill-opacity:1;fill-rule:nonzero;stroke:none"
             d="m 0,0 c 0,3.204 -1.532,4.931 -3.677,4.931 -2.145,0 -3.705,-1.672 -3.705,-4.931 0,-3.287 1.532,-4.931 3.705,-4.931 C -1.532,-4.931 0,-3.204 0,0 m -10.53,0 c 0,5.042 3.204,7.8 6.853,7.8 3.621,0 6.797,-2.758 6.797,-7.8 0,-5.042 -2.98,-7.8 -6.797,-7.8 -3.844,0 -6.853,2.758 -6.853,7.8"
             inkscape:connector-curvature="0" /></g><g
           transform="translate(375.7279,75.414)"
           id="g94"><path
             id="path96"
             style="fill:#ffffff;fill-opacity:1;fill-rule:nonzero;stroke:none"
             d="m 0,0 3.009,0 0,-1.56 0.056,0 C 3.65,-0.418 4.875,0.279 6.129,0.279 6.658,0.279 7.104,0.14 7.439,0 L 6.937,-3.092 c -0.307,0.084 -0.669,0.223 -1.171,0.223 -1.671,0 -2.59,-1.114 -2.59,-3.677 l 0,-8.218 -3.176,0 L 0,0 Z"
             inkscape:connector-curvature="0" /></g><g
           transform="translate(394.8372,69.4813)"
           id="g98"><path
             id="path100"
             style="fill:#ffffff;fill-opacity:1;fill-rule:nonzero;stroke:none"
             d="M 0,0 C -0.112,1.978 -1.253,3.537 -3.621,3.537 -5.905,3.537 -7.076,1.699 -7.187,0 L 0,0 Z m 2.647,-5.795 c -1.142,-1.838 -3.009,-3.454 -6.129,-3.454 -4.011,0 -6.936,3.009 -6.936,7.8 0,4.792 2.925,7.799 6.797,7.799 3.844,0 6.713,-2.952 6.713,-7.799 l 0,-0.947 -10.307,0 c 0.084,-2.396 1.337,-4.04 3.678,-4.04 2.256,0 3.259,1.505 3.899,2.507 l 2.285,-1.866 z"
             inkscape:connector-curvature="0" /></g><g
           transform="translate(410.8817,69.7592)"
           id="g102"><path
             id="path104"
             style="fill:#ffffff;fill-opacity:1;fill-rule:nonzero;stroke:none"
             d="m 0,0 c 0,1.644 -1.253,3.204 -3.398,3.204 -2.313,0 -3.928,-1.699 -3.928,-4.931 0,-3.231 1.588,-4.931 3.928,-4.931 2.061,0 3.398,1.421 3.398,3.092 L 0,0 Z m -6.964,-10.446 c 0.724,-1.56 1.671,-2.563 3.649,-2.563 1.95,0 3.315,1.031 3.315,3.371 l 0,1.894 -0.056,0 c -0.585,-0.864 -1.95,-1.783 -3.816,-1.783 -3.705,0 -6.63,2.842 -6.63,7.8 0,4.959 3.148,7.8 6.574,7.8 1.978,0 3.26,-0.892 3.984,-1.838 l 0.056,0 0,1.42 3.064,0 0,-14.847 c 0,-4.401 -2.758,-6.602 -6.491,-6.602 -3.203,0 -5.237,1.643 -6.1,3.788 l 2.451,1.56 z"
             inkscape:connector-curvature="0" /></g><path
           id="path106"
           style="fill:#ffffff;fill-opacity:1;fill-rule:nonzero;stroke:none"
           d="m 414.07,43.325 -198.145,0 0,1.199 198.145,0 0,-1.199 z"
           inkscape:connector-curvature="0" /><g
           transform="translate(197.1455,112.1809)"
           id="g108"><path
             id="path110"
             style="fill:#ffffff;fill-opacity:1;fill-rule:nonzero;stroke:none"
             d="m 0,0 -13.369,0.002 0,-49.13 -36.849,48.55 c -6.238,0.816 -11.556,1.783 -21.322,1.783 -13.66,0 -21.66,-7.059 -23.304,-15.762 -1.567,-8.294 0.58,-15.568 10.153,-20.016 10.792,-5.014 22.17,-8.896 22.17,-17.518 0,-6.348 -4.578,-13.884 -18.974,-13.884 -8.926,0 -14.545,3.398 -17.744,9.223 -2.422,4.411 -2.87,8.536 -2.87,14.153 l 0,42.601 -11.427,0 0,-31.201 -25.292,0 0,-4.111 25.292,0 0,-4.339 c 0,-9.791 1.287,-15.037 7.385,-21.254 5.587,-5.697 14.182,-8.758 24.563,-8.758 18.945,0 29.001,12.556 29.001,21.744 0,6.527 -2.997,12.281 -15.181,18.179 -11.173,5.409 -19.661,7.725 -18.188,17.251 1.121,7.249 7.43,10.586 14.61,10.404 8.79,-0.222 13.054,-3.893 14.403,-8.237 l 0,-21.621 c 1.729,-1.293 3.078,-2.599 4.112,-3.937 l 0,19.909 40.342,-52.889 3.234,0 0,65.386 9.256,0 L 0,0 Z"
             inkscape:connector-curvature="0" /></g><path
           id="path112"
           style="fill:#ffffff;fill-opacity:1;fill-rule:nonzero;stroke:none"
           d="m 42.52,43.618 11.525,0 0,68.565 -11.525,0 0,-68.565 z"
           inkscape:connector-curvature="0" /></g></g></g></svg>