<?xml version="1.0" encoding="UTF-8" standalone="no"?>
<!-- Created with Inkscape (http://www.inkscape.org/) -->

<svg
   xmlns:dc="http://purl.org/dc/elements/1.1/"
   xmlns:cc="http://creativecommons.org/ns#"
   xmlns:rdf="http://www.w3.org/1999/02/22-rdf-syntax-ns#"
   xmlns:svg="http://www.w3.org/2000/svg"
   xmlns="http://www.w3.org/2000/svg"
   xmlns:sodipodi="http://sodipodi.sourceforge.net/DTD/sodipodi-0.dtd"
   xmlns:inkscape="http://www.inkscape.org/namespaces/inkscape"
   id="svg2"
   version="1.1"
   inkscape:version="0.48.4 r9939"
   width="882.5"
   height="201.25"
   xml:space="preserve"
   sodipodi:docname="HiT-logo-en.eps"
   inkscape:export-filename="/home/dietmarw/.workspace/HiT-LaTeX/logos/HiT-logo-en.png"
   inkscape:export-xdpi="28.612715"
   inkscape:export-ydpi="28.612715"><metadata
     id="metadata8"><rdf:RDF><cc:Work
         rdf:about=""><dc:format>image/svg+xml</dc:format><dc:type
           rdf:resource="http://purl.org/dc/dcmitype/StillImage" /><dc:title></dc:title></cc:Work></rdf:RDF></metadata><defs
     id="defs6" /><sodipodi:namedview
     pagecolor="#ffffff"
     bordercolor="#666666"
     borderopacity="1"
     objecttolerance="10"
     gridtolerance="10"
     guidetolerance="10"
     inkscape:pageopacity="0"
     inkscape:pageshadow="2"
     inkscape:window-width="1680"
     inkscape:window-height="1026"
     id="namedview4"
     showgrid="false"
     inkscape:zoom="1.6249434"
     inkscape:cx="439.6025"
     inkscape:cy="105.00703"
     inkscape:window-x="0"
     inkscape:window-y="24"
     inkscape:window-maximized="1"
     inkscape:current-layer="g10" /><g
     id="g10"
     inkscape:groupmode="layer"
     inkscape:label="HiT-logo"
     transform="matrix(1.25,0,0,-1.25,0,201.25)"><g
       id="g12"><path
         d="m 0.304297,77.5027 489.822703,0 0,83.2013 -489.822703,0 0,-83.2013 z"
         style="fill:#ffffff;fill-opacity:1;fill-rule:nonzero;stroke:none"
         id="path14" /></g><g
       id="g16"
       transform="translate(83.5783,36.90138)"><text
         xml:space="preserve"
         style="font-size:32px;font-style:normal;font-weight:normal;line-height:125%;letter-spacing:0px;word-spacing:0px;fill:#000000;fill-opacity:1;stroke:none;font-family:Sans"
         x="127.37132"
         y="-8.7700186"
         id="text3040"
         sodipodi:linespacing="125%"
         transform="scale(1,-1)"><tspan
           sodipodi:role="line"
           id="tspan3042"
           x="127.37132"
           y="-8.7700186"
           style="font-size:31.20000076px;font-weight:bold;fill:#003c2a;fill-opacity:1;-inkscape-font-specification:Sans Bold">Telemark University College</tspan><tspan
           sodipodi:role="line"
           x="127.37132"
           y="21.45859"
           id="tspan3044"
           style="font-size:22.39999962px;font-weight:bold;fill:#003c2a;fill-opacity:1;-inkscape-font-specification:Sans Bold">Norway</tspan></text>
</g><g
       id="g88"><path
         d="m 14.5766,82.3816 c -0.0938,1.6239 -0.3848,3.3739 -0.9973,4.9235 0.7023,0.7273 -0.5473,1.5504 0.2176,2.409 -0.2157,1.1664 -0.3653,2.2691 -0.5774,3.2402 0.7012,0.7926 1.5528,0.4176 2.5231,0.6949 0.0742,-0.5187 0.8562,-0.6351 0.8039,-1.3512 0.5246,-0.2507 0.7914,-0.6359 0.8668,-1.2199 0.0113,-0.6496 -0.7477,-1.8336 0.1062,-2.3383 -0.2972,-1.5656 0.6344,-2.7843 0.2719,-4.3511 0.7348,-1.0922 0.4328,-2.3977 0.9094,-3.6242 -0.4446,-0.593 -1.0227,-0.9934 -1.0738,-1.7747 0.2261,-0.5816 0.6058,-1.0406 1.0632,-1.4871 l 15.3028,0 c 0.1429,1.6102 0.0468,3.5055 0.0132,5.2895 0.6211,2.7476 -0.6871,5.1633 0.8711,5.7476 0.6317,-0.0351 2.6883,-1.1863 3,-2.5 0.334,-1.407 -0.3453,-2.7914 -0.2058,-4.7281 0.0945,-1.3105 0.1648,-2.6277 0.2387,-3.809 l 29.4441,0 0.0613,2.4618 c -0.1844,0.6882 -1.0254,-0.0375 -1.1414,0.6488 0.0227,0.7504 0.1856,1.6332 -0.416,2.0609 l 0.3012,3.2 c -0.4696,0.2875 -0.6555,0.9074 -0.3024,1.3067 -0.1015,1.1636 -1.0918,2.2859 -0.3047,3.4914 0.2582,1.7675 -1.0671,3.1047 0.0735,4.7093 -0.052,0.5477 0.1672,1.0192 -0.2297,1.4407 l -0.5418,0.1531 0.2391,3.4066 c -0.2485,0.827 -1.2157,0.446 -1.4637,1.273 1.184,0.784 0.2121,2.52 1.0637,3.587 0.0246,0.819 -0.1536,1.712 0.2785,2.45 0.3179,1.492 -0.8047,2.755 -0.0817,4.099 -0.0312,1.23 0.6114,2.167 0.1004,3.343 0.4028,2.036 0.3321,4.223 0.6602,6.057 0.2172,0.403 0.5703,0.802 0.3801,1.286 -0.7797,1.321 1.2253,2.148 0.5843,3.533 0.6528,1.278 -0.6746,2.547 0.4539,3.742 -0.575,1.314 0.8305,2.638 0.1891,4.023 -0.0535,0.479 0.3637,0.74 0.6469,1.073 -0.0293,1.298 0.2125,2.52 0.5203,3.671 0.9176,0.997 0.6133,2.235 0.925,3.523 0.2375,1.085 0.8242,2.433 0.8652,3.798 -0.8703,0.572 -2.4621,-0.131 -3.3965,0.58 -3.3777,-1.059 -7.5101,0.021 -10.7347,-0.497 -1.0215,0.099 -2.0285,0.676 -2.8715,-0.118 -0.4817,-0.122 -0.4676,0.355 -0.8067,0.434 -1.3042,-0.234 -2.6683,-0.193 -3.7144,-0.913 0.5148,-1.039 0.7531,-2.207 0.7203,-3.299 0.3082,-1.102 0.5481,-2.201 0.7883,-3.301 0.5504,-2.133 0.218,-4.104 1.0492,-5.972 -0.541,-2.1 1.7914,-4.014 0.2973,-6.018 0.459,-0.628 0.0914,-1.505 0.4843,-2.063 -0.1695,-1.087 -0.4792,-2.307 0.1762,-3.214 -0.0347,-1.16 1.1149,-1.536 0.3957,-2.744 0.1512,-1.779 -0.516,-3.535 0.3254,-5.062 0.3828,-0.899 -0.8074,-1.888 0.1992,-2.464 -0.3636,-0.74 1.0446,-1.602 -0.0699,-2.319 0.7738,-1.526 -0.6562,-3.668 0.2516,-5.266 -0.3922,-1.695 0.4453,-3.359 0.6687,-5.0044 -0.4277,-0.6016 0.511,-1.1762 0.4907,-1.8582 -0.3719,-1.0133 0.6265,-1.8625 0.046,-3.0059 0.1903,-0.4835 -0.0246,-0.8187 0.0274,-1.3664 -0.2774,-0.1281 -0.4879,-0.3269 -0.4301,-0.6699 -0.1344,0.0723 -0.275,-0.0601 -0.3449,-0.1262 0.1258,-0.3453 0.0414,-0.889 -0.3078,-1.1515 -0.3578,-0.5356 -0.8871,0.0265 -1.2965,0.039 -0.0289,1.2981 -1.2367,2.0172 -1.2699,3.179 -0.1719,1.0976 -1.625,0.4585 -1.586,1.7546 0.0887,0.6805 -0.1675,1.2344 -0.0105,1.9125 -0.8004,0.6383 -0.4969,1.6536 -1.0922,2.286 0.5641,0.5974 -0.7195,1.0454 -0.1555,1.6434 -0.5129,1.108 -0.1371,2.257 -0.7883,3.301 0.161,0.815 -0.575,1.315 -0.0089,1.981 -0.2629,2.602 0.2324,5.455 -0.4403,8.07 0.1633,0.883 0.3325,1.97 -0.3293,2.673 0.1012,1.089 -0.2754,2.193 -0.3789,3.289 -0.0898,3.826 -0.9941,7.814 -0.9515,11.5 -0.2418,1.031 -1.4371,2.159 -0.3832,3.152 0.2976,0.81 -0.5649,1.656 -0.1309,2.462 -0.273,2.262 3.0254,5.235 0.073,6.963 -1.5113,-0.297 -3.3074,-0.993 -4.864,-0.537 -1.9121,-0.011 -3.9133,-0.702 -5.7406,-0.169 -2.1977,-0.412 -4.4235,-1.778 -6.5676,-0.417 -1.2301,-0.031 -2.7309,0.014 -3.6594,0.93 -0.1719,1.097 -1.1785,1.674 -1.9828,2.176 0.0887,0.68 -0.3106,1.742 -0.5668,2.296 -0.5457,0.017 -0.457,0.697 -0.5875,0.905 l 0.0766,0.271 c -1.0985,2.082 -3.0289,2.874 -1.9918,5.574 1.4613,0.912 -0.3254,2.81 1.066,3.655 -0.1965,0.425 -0.3528,0.901 -0.4172,1.393 l -19.171103,0 0,-83.2013 14.656203,0 c -0.5023,1.4399 -0.0652,3.3293 -0.3839,4.8789"
         style="fill:#c10013;fill-opacity:1;fill-rule:nonzero;stroke:none"
         id="path90" /></g><g
       id="g92"><path
         d="m 307.2,79.0969 c -0.204,0.582 0.308,1.0453 0.43,1.5672 -0.137,0.4527 -0.084,1.2336 0.233,1.6937 0.899,0.7293 -0.163,2.143 0.276,3.125 0.118,0.7817 -0.093,1.7535 0.156,2.4727 -0.205,0.6468 -1.253,1.1504 -0.877,2.0664 0.305,1.2398 0.03,2.2109 0.205,3.4488 -0.218,1.4266 -0.305,2.8555 -0.525,4.4121 0.186,0.5883 0.108,1.432 0.097,2.1472 -0.082,1.038 0.353,2.281 -0.053,3.314 0.56,1.569 -0.692,2.655 -0.065,4.16 -0.329,0.19 -0.073,0.454 -0.012,0.715 -0.921,0.7 -2.536,0.09 -3.266,0.988 -0.653,0.185 -1.229,-0.344 -1.881,-0.224 -0.581,-0.27 -0.903,-0.47 -1.419,-0.738 -0.642,-0.53 -1.109,0.243 -1.694,0.234 -0.842,-0.209 -1.678,-0.807 -2.396,-0.624 -0.581,-0.203 -0.311,-0.85 -0.241,-1.173 -1.357,-0.542 -0.353,-2.346 -1.25,-3.205 -0.104,-1.627 0.252,-3.5719 -0.243,-5.2051 l 0.214,-1.1668 c 0.106,-2.5985 0.089,-8.0164 -0.067,-10.4891 -0.76,-1.2472 -0.476,-2.8031 -0.323,-4.2308 -0.047,-1.1059 -1.201,-2.1641 -0.531,-3.454 -0.547,-0.4839 -0.473,-0.9703 -0.607,-1.4285 l 13.709,0 c 0.201,0.4754 0.419,0.9364 0.13,1.5942"
         style="fill:#c10013;fill-opacity:1;fill-rule:nonzero;stroke:none"
         id="path94" /></g><g
       id="g96"><path
         d="m 425.571,117.261 c 0.39,-0.715 1.235,-1.234 1.3,-2.21 0.39,0 0.845,0 1.04,0.325 -0.715,1.105 0.975,1.495 1.3,1.951 0.585,1.494 2.6,2.144 3.055,3.704 0.13,0.585 0.715,0.585 1.17,0.78 0.195,0.845 1.365,0.716 1.885,1.625 0.26,1.17 1.43,2.08 2.405,2.665 0.065,1.301 1.56,1.82 2.275,2.73 0.52,0.715 1.3,0.975 2.275,1.04 1.17,0.26 1.17,1.69 2.34,1.885 -0.91,0.455 -1.82,0.78 -2.665,1.365 -0.65,0.195 -1.56,1.17 -2.275,0.39 -1.69,0.325 -2.925,0.195 -4.68,0.391 -1.235,0 -1.56,-1.041 -2.275,-1.691 -2.08,0.52 -2.795,-1.105 -4.485,-1.755 -0.52,-0.065 -0.91,-0.65 -0.715,-1.04 -0.975,-1.885 -2.795,-3.51 -2.275,-5.655 -0.845,-2.08 -0.195,-4.42 0.325,-6.5"
         style="fill:#c10013;fill-opacity:1;fill-rule:nonzero;stroke:none"
         id="path98" /></g><g
       id="g100"><path
         d="m 370.113,127.817 c -0.39,0.975 0.585,1.43 1.105,2.145 1.366,-0.13 0.195,1.17 0.845,1.625 -0.845,1.69 0.196,3.64 0,5.2 -0.909,1.3 -2.47,1.885 -3.965,1.82 -1.43,-0.52 -3.964,0.325 -4.225,-1.625 0.65,-0.52 0.195,-1.495 1.04,-1.95 -0.65,-1.04 1.041,-1.885 0.066,-2.86 0.455,-0.52 -0.066,-1.04 -0.325,-1.495 -0.65,-0.52 -0.131,-1.235 -0.391,-1.82 0.846,-0.39 -0.52,-1.3 0.65,-1.56 1.171,-0.325 2.341,-1.69 3.641,-1.04 0.259,0.78 1.039,0.975 1.559,1.56"
         style="fill:#c10013;fill-opacity:1;fill-rule:nonzero;stroke:none"
         id="path102" /></g><g
       id="g104"><path
         d="m 205.32,124.286 c 0.915,-1.33 -0.878,-4.289 1.231,-4.757 1.028,0.486 2.399,0.482 3.147,1.454 1.43,-0.075 2.048,1.562 3.504,1.093 0.671,0.848 1.615,1.147 2.494,1.453 0.524,0.014 0.892,0.435 1.124,0.804 -1.055,0.561 -1.459,1.776 -2.681,1.962 -0.617,1.039 -2.169,1.192 -2.449,2.33 -0.181,0.148 -0.505,0.18 -0.338,0.555 -1.028,0.167 -1.043,1.344 -1.853,1.75 -0.144,1.19 -1.534,1 -2.117,1.71 -0.339,1.209 -1.496,0.735 -2.441,1.089 -0.302,-1.081 -0.449,-1.915 -0.163,-2.989 -0.212,-0.828 0.43,-1.61 -0.034,-2.347 -1.194,-1.516 1.252,-2.54 0.576,-4.107"
         style="fill:#c10013;fill-opacity:1;fill-rule:nonzero;stroke:none"
         id="path106" /></g><g
       id="g108"><path
         d="m 359.648,131.067 c 0.845,0.78 -0.325,1.82 0.325,2.6 0.131,0.715 1.236,2.925 -0.714,2.08 -2.73,-1.56 -6.046,-1.885 -8.775,-3.38 0.064,-0.455 -0.521,-0.325 -0.65,-0.65 -0.586,-0.065 -0.716,-0.65 -1.041,-0.26 -0.584,-0.52 -1.95,-0.52 -1.755,-1.495 0.585,-0.39 1.366,-0.78 2.016,-1.17 1.755,-0.845 3.639,-1.56 5.2,-2.73 3.119,-0.52 4.809,-4.095 8.189,-3.575 l 0.261,0.26 c -0.52,1.17 -1.106,2.47 -1.625,3.705 -1.236,1.56 -0.586,2.925 -1.431,4.615"
         style="fill:#c10013;fill-opacity:1;fill-rule:nonzero;stroke:none"
         id="path110" /></g><g
       id="g112"><path
         d="m 443.251,124.671 c -0.325,-1.105 -1.17,-2.015 -1.495,-3.12 -1.95,0.325 -3.315,-1.365 -4.94,-2.08 -0.13,-1.105 -1.365,-1.17 -1.69,-2.08 -1.82,-0.52 -2.275,-2.925 -4.29,-2.86 0.39,-1.105 -0.91,-1.495 -1.43,-2.08 -0.065,-1.105 -1.69,-1.495 -1.69,-2.73 -0.26,-0.715 -0.975,-0.975 -1.625,-1.04 -0.065,-0.325 0.39,-0.455 0.65,-0.455 1.365,0.715 1.95,-1.235 3.25,-1.365 2.275,-0.52 4.81,-0.91 7.345,-0.52 0.325,0.26 0.715,0.65 1.105,0.455 0.065,-0.845 1.04,-0.715 1.625,-0.585 2.405,1.04 4.94,1.885 7.15,3.51 -0.065,0.39 -0.13,0.78 -0.26,1.17 2.405,0.585 4.095,3.055 4.745,5.265 -0.195,1.496 1.105,3.9 -0.78,4.875 -0.325,0.455 0.195,0.78 0.52,0.975 0.195,0.455 0.13,0.78 -0.325,1.105 0.52,1.82 -0.91,3.315 -2.145,4.55 -0.52,0.39 0.13,1.3 -0.78,1.235 -0.715,-0.78 -1.95,-0.585 -2.6,-1.494 -1.755,0.129 -0.845,-2.081 -2.34,-2.731"
         style="fill:#c10013;fill-opacity:1;fill-rule:nonzero;stroke:none"
         id="path114" /></g><g
       id="g116"><path
         d="m 387.273,129.897 c 0,0.52 -0.584,0.325 -0.844,0.455 -0.391,0.13 -0.781,0.52 -0.716,0.975 -0.325,0.26 -0.65,-0.26 -1.04,-0.195 -0.13,0.585 -0.975,0.39 -0.91,1.105 -0.584,0 -1.69,-0.13 -1.95,0.715 -1.69,0.065 -2.99,1.56 -4.809,1.56 -0.52,0.195 -0.131,0.52 -0.325,0.845 -0.52,0.065 -0.975,-0.065 -1.366,-0.26 0.391,-1.235 -0.065,-2.925 0.391,-4.03 -0.845,-1.17 0.909,-1.495 0.519,-2.6 -0.194,-0.39 -0.389,-0.65 -0.78,-0.65 -0.975,-1.17 -1.559,-2.795 -2.859,-3.445 -0.455,-1.95 -2.471,-1.625 -3.771,-2.21 -0.195,-0.195 -0.065,-0.585 0.13,-0.715 0.65,-0.13 1.236,-0.715 2.016,-0.39 1.429,1.3 3.445,1.755 5.134,2.6 0.65,1.17 2.211,1.17 3.316,1.3 -0.066,1.625 2.145,0.78 2.47,2.145 0.844,0.13 1.625,1.04 2.6,0.455 0.259,0.065 0.259,0.39 0.194,0.52 0.195,0.715 0.845,0.585 1.17,0.91 -0.13,1.105 1.236,0.195 1.43,0.91"
         style="fill:#c10013;fill-opacity:1;fill-rule:nonzero;stroke:none"
         id="path118" /></g><g
       id="g120"><path
         d="m 300.334,150.901 c -0.176,-0.181 -0.649,-0.34 -0.83,0.037 -0.65,-0.201 -1.131,0.617 -1.781,0.277 -0.349,-0.922 -1.025,-1.735 -1.434,-2.625 0.272,-0.775 -0.047,-1.494 -0.459,-1.965 0.273,-0.775 0.569,-0.947 1.076,-1.433 1.426,-0.362 2.711,-1.829 4.221,-1.611 2.193,0.194 0.219,6.907 -0.793,7.32"
         style="fill:#c10013;fill-opacity:1;fill-rule:nonzero;stroke:none"
         id="path122" /></g><g
       id="g124"><path
         d="m 22.6258,157.112 c 1.034,-1.942 2.084,-2.504 3.7426,-4.124 0.3761,-1.104 1.5937,-2.19 2.1832,-3.027 2.4211,-1.234 4.9847,-2.267 7.73,-1.804 1.693,-0.46 3.3426,-0.1 5.1223,0.051 1.0234,-0.031 2.6465,-0.557 3.2973,0.652 1.2531,-1.471 3.0578,-0.501 4.6328,-0.344 0.8808,-0.231 2.1769,-0.27 3.0098,0.183 2.1832,-0.066 4.2277,-0.195 6.0339,0.842 1.9106,-0.057 3.9735,0.427 5.8235,0.645 0.4422,1.079 1.848,0.149 2.5488,0.743 1.5977,0.907 3.409,-0.171 4.8723,0.809 1.0914,-0.033 2.698,-1.106 3.4875,0.168 2.2777,0.819 4.5707,-0.137 6.834,0.204 0.6078,-0.223 1.2757,-0.721 1.9019,-0.33 1.5277,0.842 2.4953,-1.031 3.5664,-1.746 0.602,-0.428 1.5609,-0.32 1.8051,-1.283 -0.4383,-0.943 1.0523,-1.329 0.9555,-2.282 0.6578,-0.839 1.3152,-1.678 1.9769,-2.381 0.7258,-0.842 -1.3742,-2.554 0.7449,-2.481 l 0.6141,-0.018 c 0.4941,-1.722 0.2879,-4.037 0.2348,-5.811 0.1242,-0.414 0.8601,-0.914 0.2339,-1.305 -1.2589,-0.986 -0.014,-2.73 -1.2707,-3.648 0.4469,-1.038 -0.7312,-1.617 -1.2976,-2.283 -0.2731,0.008 -0.6242,-0.323 -0.8891,-0.042 -0.5168,0.972 -0.2672,2.466 -1.1953,3.382 l -0.668,0.498 c -1.2761,2.975 -1.3164,6.185 -2.2472,9.286 -0.9324,0.779 -1.4434,1.955 -2.2371,2.798 0.3574,0.536 0.2953,0.742 -0.102,1.164 -2.3051,0.547 -4.8168,1.033 -7.4273,0.497 -1.4184,0.52 -2.7473,-0.532 -4.1618,0.125 -0.4152,-0.193 -1.2339,-0.168 -1.1863,-0.852 0.8563,-1.05 -0.1441,-2.523 0.7121,-3.572 0.1594,-1.507 0.2383,-3.422 -0.214,-4.842 0.1636,-1.37 0.3172,-3.082 0.6894,-4.322 -0.3262,-1.766 0.716,-3.436 0.0488,-5.191 0.9516,-2.419 0.0692,-4.509 0.2,-6.971 0.1493,-1.848 0.0715,-4.44 0.4977,-6.16 -0.8098,-1.956 -0.0363,-3.481 -0.5734,-5.445 0.3664,-1.445 -0.3696,-3.199 -0.4188,-4.836 0.3274,-2.741 -0.9906,-5.7055 -0.3203,-8.3887 -0.3598,-0.6039 0.1656,-1.3023 0.075,-2.0508 -0.5125,-1.1453 0.1367,-2.2574 -0.3055,-3.3363 -0.1113,-1.4309 0.0442,-3.0742 -0.3316,-4.2238 0.3207,-0.6922 -0.3117,-1.2879 0.1449,-1.9844 -1.0043,-1.6086 0.034,-3.4152 -1.0363,-4.9531 -0.0426,-0.7114 -0.1055,-1.202 -0.1695,-1.6192 l 19.0972,0 c -0.2008,0.9582 0.3477,2.1411 0.2766,3.1895 -0.2774,0.9703 -0.3047,2.5301 0.784,3.4594 -0.2098,0.8414 0.2125,-0.7032 0.0664,0.2043 -0.3965,0.3832 -0.6684,1.0285 -0.4172,1.5531 0.1844,0.5883 -0.052,2.9246 -0.5137,3.3062 0.3738,0.9168 -0.0949,1.6887 -0.175,2.5325 l -0.2621,0.1253 c 0.8289,0.9247 0.1524,2.4082 0.4566,3.5836 -0.4046,0.8383 -0.9269,2.4356 -0.4789,2.8332 0.8911,-0.764 2.359,-2.5398 3.268,-2.4586 0.4688,-0.7722 0.4801,-1.4218 0.4973,-2.3968 0.5211,-0.0559 0.7254,-0.5723 0.9922,-0.9574 -0.4309,-1.3731 0.7632,-2.7172 0.0722,-4.0946 -0.0523,-0.716 0.4782,-1.2918 0.0996,-1.9484 0.6696,-1.0934 -1.4484,0.7461 -0.4562,-0.2113 -0.2359,-1.3696 0.3695,-2.5289 1.0992,-3.3614 -0.8605,-1.6918 -1.0785,-3.5 -0.8734,-5.3586 l 21.3778,0 c -0.035,0.7692 -0.126,1.5598 0.298,2.1231 -0.537,0.8621 0.628,1.6847 0.036,2.6199 0.127,0.4418 -0.875,-0.0582 -0.408,0.4676 -0.787,1.4219 -0.564,3.7398 -0.533,5.3765 0.192,0.4325 -0.129,0.1793 1.063,1.0332 l 0.243,1.279 c 0.892,-0.1895 1.64,-0.95 2.715,-0.7711 0.946,-2.1661 -0.839,-4.8575 0.153,-7.1614 -0.683,-1.6109 -0.327,-0.5621 0.222,-2.2789 -0.209,-0.5613 -0.648,-1.3539 -0.333,-1.9222 0.211,-0.2954 0.366,-0.5473 0.48,-0.7657 l 25.348,0 c 0.169,3.6094 0.161,4.4754 0.973,8.3258 -0.012,0.5199 -0.343,0.8379 -0.03,1.3645 0.447,0.4 0.687,1.3152 1.474,1.007 0.275,-0.7094 0.676,-1.2207 1.394,-1.3355 0.261,-0.0594 0.386,0.2035 0.648,0.0789 -0.507,-0.5957 -0.684,-1.445 -0.603,-2.1582 0.201,-0.3207 0.213,-0.8407 0.607,-1.0274 0.006,-0.3144 0.024,-0.475 0.043,-0.5555 0.1,0.1258 0.047,-0.2015 0,0 -0.049,-0.0625 -0.135,-0.2355 -0.28,-0.6476 0.151,-0.9719 1.082,-1.927 0.059,-2.7293 -0.18,-0.7192 1.391,-1.2055 0.302,-1.9442 0.061,-0.1261 0.105,-0.2523 0.142,-0.3785 l 17.912,0 c 0.238,0.3399 0.424,0.6934 0.303,1.184 -0.567,0.8852 -0.163,2.3195 0.427,2.6977 0.314,0.6011 0.97,1.6 0.71,2.3121 0.695,0.859 1.445,2.0715 1.642,3.0926 -0.115,1.8093 0.044,-0.6375 -0.275,1.1449 1.698,3.3137 0.626,7.0285 1.622,10.4773 -0.287,0.9157 0.767,1.5735 0.301,2.5897 0.143,1.429 0.397,2.87 0.935,4.289 -0.528,0.698 0.244,1.608 0.163,2.219 0.287,0.805 -0.599,1.704 -0.171,2.549 -0.594,1.041 -0.398,2.624 -0.037,3.812 0.313,0.933 -0.853,1.753 -0.158,2.612 -0.312,0.789 0.064,1.709 -0.463,2.407 0.116,1.632 -0.266,3.701 -0.085,5.321 -0.049,1.466 -1.357,2.578 -0.961,4.289 l -0.788,3.291 c -0.321,2.114 -4.554,6.355 -4.554,6.355 0,0 -4.432,2.752 -6.796,3.732 -1.893,2.837 -5.249,2.413 -7.94,4.113 -2.497,1.206 -5.357,1.485 -7.593,-0.051 -0.915,-0.342 -2.186,0.171 -2.729,-0.966 -0.494,-0.193 -0.884,-0.221 -1.394,-0.475 -0.857,-1.12 -1.907,-1.746 -3.168,-2.446 -2.328,-2.404 -5.622,-4.468 -7.727,-6.993 0.028,-0.644 -0.707,-1.031 -0.394,-1.556 -0.375,-0.224 -0.646,-0.792 -0.692,-1.226 -0.408,-1.107 -3.016,-2.994 -2.285,-4.135 -0.723,-1.346 -0.429,-3.203 -0.599,-4.626 0.774,-1.724 -0.674,-2.791 0.309,-4.441 -0.608,-3.159 3.754,-5.156 5.32,-7.527 1.793,-1.218 3.389,-3.215 5.77,-3.372 1.032,-0.707 2.633,-0.922 3.667,-0.865 0.509,-0.002 1.168,-0.168 1.497,-0.379 0.974,0.326 1.735,-0.694 2.561,0.052 1.108,-0.153 2.427,0.277 3.413,-0.355 0.455,1.796 2.981,0.201 3.182,2.252 0.75,0.192 0.767,1.016 1.457,1.223 0.032,0.884 0.663,1.361 1.503,1.658 l 1.666,1.298 -0.045,0.075 c 0.719,0.073 0.647,1.047 1.262,1.21 0.616,0.671 -0.496,1.463 0.076,2.21 l 0.338,2.845 c 1.424,0.34 0.23,1.661 0.502,2.484 -1.822,1.863 -0.027,4.02 -1.144,6.15 -0.748,0.317 -0.819,1.29 -1.058,1.86 -1.388,1.308 -1.485,3.944 -3.778,3.441 -1.228,0.184 -2.26,1.515 -3.386,0.59 -2.47,0.307 -4.51,-1.584 -6.61,-2.581 -0.541,-0.628 -0.948,-1.48 -0.95,-2.244 -0.587,-1.061 -0.431,-2.172 -0.539,-3.355 0.685,-1.065 0.157,-2.397 0.768,-3.507 -0.482,-0.897 0.505,-1.529 0.982,-2.159 0.403,-0.167 0.853,-1.884 0.941,-2.289 0.96,0.267 2.506,1.531 3.494,1.663 0.751,0.447 0.868,6.616 2.006,6.837 0.794,-0.137 1.813,-2.071 1.585,-3.224 0.793,-0.391 0.37,-1.304 0.458,-1.963 -0.003,-1.018 1.103,-1.935 0.455,-2.982 0.596,-1.169 -1.007,-1.464 -1.384,-2.197 -0.556,-0.687 -1.949,-0.653 -1.698,-1.672 -0.9,-0.537 -1.42,0.933 -2.171,-0.023 -1.123,0.093 -1.916,0.485 -2.785,0.323 -0.45,-0.268 -0.793,0.137 -1.122,0.348 0.061,0.239 -0.269,0.195 -0.343,0.405 -0.958,0.242 -1.469,-0.265 -2.456,0.112 -0.42,-0.148 -0.124,0.063 -0.588,0.244 -0.403,0.421 -0.815,1.258 -1.383,1.529 -0.314,0.271 0.822,1.034 0.103,0.962 -0.926,0.871 -0.534,1.918 -0.875,2.833 0.169,1.422 -0.501,2.802 -0.257,4.269 0.137,0.793 -0.664,1.856 -0.796,2.591 0.915,0.596 -0.595,1.424 0.171,2.185 0.258,1.018 1.384,1.943 1.582,2.976 0.511,0.508 1.05,0.626 1.292,1.329 0.435,0.208 1.095,0.551 1.531,1.014 1.426,1.104 3.076,2.087 4.577,2.981 0.493,-0.316 0.973,0.072 1.423,0.086 0.481,0.642 1.186,0.03 2.01,0.268 0.33,0.298 0.765,-1.252 1.126,-0.833 1.078,-0.273 2.518,0.381 3.233,-0.819 1.004,0.192 1.51,-0.828 2.483,-1.011 0.073,-0.464 0.598,-0.406 0.686,-0.811 0.582,-0.721 0.028,-2.204 1.362,-1.969 0.392,-0.259 0.429,-0.42 0.402,-0.499 0.092,0.06 0.317,0.164 0.831,0.309 1.225,-0.947 1.43,-2.655 2.324,-3.901 -0.13,-1.173 0.002,-2.708 1.137,-3.76 -0.018,-1.078 0.224,-1.935 0.595,-2.985 0.414,-1.634 1.283,-3.383 0.665,-4.819 -0.513,-1.271 -0.985,-2.331 -1.214,-3.738 -0.96,-0.521 0.553,-1.988 -0.302,-2.599 0.193,-0.495 -0.391,-0.538 -0.542,-0.882 -0.661,-0.597 -0.393,-1.302 -0.919,-1.869 -0.781,-0.822 -1.397,-1.494 -1.879,-2.391 -0.555,-0.178 -1.988,-0.102 -2.05,-0.85 -1.185,-0.401 -1.698,-1.672 -3.045,-1.459 -1.11,-0.61 -2.401,-1.43 -3.657,-0.857 -0.812,-1.196 -2.158,-0.473 -3.194,-1.293 -0.868,0.347 -1.29,-0.82 -2.202,-0.143 -1.155,-0.791 -2.29,0.516 -3.385,-0.289 -0.869,0.092 -1.888,-0.159 -2.621,0.217 -0.689,-0.207 -1.422,0.169 -2.141,0.097 -0.896,0.736 -1.027,2.234 -2.464,2.343 0.211,0.329 -0.269,0.196 -0.343,0.406 -0.81,-0.177 -1.182,0.363 -1.795,0.709 -0.612,0.856 -2.215,0.561 -2.586,1.865 -0.852,0.407 -0.774,1.47 -1.776,1.788 -0.193,0.749 -1.227,0.438 -1.374,1.367 -0.149,0.42 -0.327,0.974 -0.7,1.26 -0.344,0.151 0.047,0.689 -0.462,0.691 -0.431,1.064 -1.298,1.666 -2.135,2.387 -0.253,0.51 0.065,1.513 -0.849,1.426 -0.298,0.585 -0.026,1.153 -0.324,1.738 0.064,1.258 -0.502,2.547 0.071,3.804 -0.759,1.53 0.399,3.084 -0.375,4.554 0.108,0.928 0.005,1.782 0.127,2.516 0.272,0.822 -0.623,1.814 0.024,2.605 -0.104,0.345 0.182,0.973 0.198,1.288 0.182,0.718 1.034,0.311 1.544,0.564 0.331,0.299 -0.115,1.558 0.828,1.256 0.766,0.761 -0.293,2.367 1.341,2.781 0.137,0.793 1.007,1.21 1.339,2.018 1.11,0.611 1.279,1.778 2.389,2.389 0.136,0.539 1.021,0.761 1.516,1.208 0.796,0.627 1.248,1.659 2.148,2.196 0.616,0.672 1.739,0.578 1.953,1.671 0.989,0.386 1.875,1.117 2.492,2.044 0.838,-0.212 1.306,0.88 2.203,0.398 0.586,0.552 1.558,0.115 1.89,0.923 0.601,0.866 1.602,0.039 2.277,0.442 1.437,-0.364 2.965,-0.114 4.375,0.421 0.538,-0.391 1.364,0.355 1.856,-0.215 0.931,0.656 2.193,1.147 3.168,1.729 0.686,-0.811 2.065,-0.396 2.481,-1.521 0.627,-0.795 1.857,0.04 2.304,-0.965 0.569,-0.017 1.617,0.1 1.84,-0.53 0.417,-0.87 1.558,0.115 1.644,-1.053 1.766,-0.575 3.997,-0.821 5.085,-2.562 1.301,-0.648 3.655,-1.203 4.707,-2.267 0.81,-0.95 2.443,-1.066 2.975,-2.427 0.395,-0.009 0.017,-0.598 0.552,-0.569 0.314,-1.12 1.384,-1.062 1.775,-2.129 0.974,-0.784 0.568,-2.89 2.326,-2.699 0.869,-0.3 0.223,-0.904 0.495,-1.552 -0.214,-2.143 0.232,-3.95 -0.034,-6.017 0.41,-0.278 -0.01,-0.396 0.184,-0.764 0.361,-0.533 0.162,-1.223 0.306,-1.846 1.043,-1.459 0.316,-3.172 1.091,-4.646 -0.487,-1.494 -0.843,-3.346 -0.056,-4.755 0.525,-0.366 1.026,-0.86 1.095,-1.535 0.087,-1.605 -1.212,-3.54 -0.206,-5.19 l 0.159,-0.891 c -0.226,-0.486 -1.014,-0.797 -0.666,-1.394 -0.861,-0.694 0.014,-3.71 -0.63,-4.645 0.24,-1.502 -1.101,-2.9649 -0.566,-4.6567 0.299,-0.852 -0.443,-2.2977 -0.409,-3.4957 0.177,-1.4903 -1.661,-3.1223 -0.06,-4.0926 1.177,-2.4777 -0.555,-0.9848 -0.409,-3.6609 -0.072,-0.7145 -0.219,-1.4801 -0.431,-2.234 -0.143,-1.4285 -0.71,-2.3121 -1.032,-3.6403 0.388,-0.7367 -1.155,-1.5976 -0.831,-2.3218 -0.164,-0.1442 -0.291,-0.3344 -0.404,-0.5403 l 21.381,0 c 0.262,0.3836 0.534,0.7953 0.789,1.2137 l -0.541,1.0813 c -0.104,0.2714 -0.719,0.6582 -0.41,1.1503 0.4,0.7446 0.482,1.5856 0.358,2.3161 0.496,1.0617 -0.197,1.9789 0.28,2.8464 -0.539,1.1633 0.863,2.136 0.123,3.2536 -0.229,1.655 0.965,3.1707 1.019,5.0597 -1.237,1.3621 0.216,2.1992 -0.161,3.6731 1.362,1.2379 -0.27,2.5741 0.963,3.8241 -0.296,2.968 0.171,5.731 0.081,8.809 0.096,0.971 -1.386,1.182 -0.702,2.159 0.464,0.739 1.155,1.781 0.648,2.615 0.866,0.829 -0.314,2.121 0.428,3.027 -0.46,0.633 0.56,1.709 -0.224,2.374 0.282,1.539 2.071,3.127 0.846,4.619 1.143,0.998 -0.263,1.985 0.551,2.951 0.256,1.28 0.35,2.904 0.141,4.1 0.41,2.18 0.891,4.419 1.107,6.619 -0.415,0.432 -1.423,0.14 -1.541,0.935 0.349,0.227 0.264,0.692 0.431,1.068 0.53,0.732 1.688,0.553 1.971,1.439 0.128,0.641 -0.489,1.681 0.443,1.851 l 0.511,-0.116 3.183,-4.166 c 0.77,-0.141 1.243,-0.644 1.645,-1.206 0.365,-1.604 1.738,-2.914 2.872,-4.005 0.273,-0.549 1.281,-0.256 1.14,-1.026 1.256,-0.516 1.86,-1.685 2.954,-2.511 -0.281,-1.54 1.613,-1.53 1.829,-2.662 0.628,-0.257 0.798,-1.188 1.58,-1.2 0.617,-1.04 1.705,-1.931 2.67,-2.744 0.382,-0.103 0.816,-0.341 1.223,-0.185 1.07,-1.738 1.804,-3.574 3.752,-4.353 0.514,-1.422 1.97,-1.891 2.897,-3.093 1.457,-1.122 3.432,-2.296 4.225,-4.203 1.444,-1.252 3.153,-1.812 4.294,-3.491 0.453,-0.044 1.177,0.015 0.913,-0.678 -0.109,-0.446 0.235,-0.937 0.61,-1.104 1.002,0.228 1.792,-0.372 2.601,-0.778 0.217,-1.785 2.453,-0.96 3.148,-2.53 0.609,-0.452 1.302,-0.716 2.155,-0.669 0.117,-0.142 0.027,-0.394 0.079,-0.53 -0.537,-0.143 -1.092,-0.481 -1.143,-0.998 -2.849,-1.745 -5.796,-3.1538 -8.489,-5.3058 -0.272,-0.1043 -0.589,-0.0078 -0.783,0.0113 -1.03,0.8196 0.489,1.65 0.242,2.4582 0.568,0.4668 -0.216,1.1313 -0.579,1.4283 -0.271,-0.104 -0.246,0.155 -0.304,0.226 1.227,1.186 -2.021,1.374 -0.264,2.638 -0.739,1.118 -1.77,2.591 -2.787,3.54 0.076,0.776 -0.984,0.619 -0.921,1.266 -1.586,1.135 -2.237,3.158 -3.824,4.294 -0.434,0.892 -1.36,1.44 -2.163,1.91 -1.082,0.956 -0.95,2.968 -2.638,3.068 -0.551,0.381 -1.604,0.288 -1.587,1.136 -0.466,0.568 -1.333,0.391 -1.657,1.077 -0.401,-0.092 -0.57,0.186 -0.739,0.464 -1.551,-0.501 -0.558,-2.362 -2.103,-2.798 -0.128,-0.64 0.106,-1.578 -0.708,-1.89 -2.38,-0.289 -4.512,-1.385 -6.696,-2.347 -1.628,-1.277 -3.29,-1.571 -4.807,-3.054 -0.699,0.199 -0.956,-0.429 -1.447,-0.773 0.408,-0.497 -0.219,-0.893 0.054,-1.442 0.344,-0.491 1.521,-0.476 1.108,-1.35 -0.387,-0.615 -0.947,-1.67 -0.364,-2.381 -0.18,-0.504 -0.315,-1.21 -0.119,-1.882 -1.399,-2.9326 0.275,-5.84 -1.052,-8.7139 -0.859,-0.7648 0.081,-1.8367 -0.649,-2.6144 0.112,-0.8598 0.275,-1.8555 -0.442,-2.5035 -0.043,-1.1063 1.214,-2.2746 0.447,-3.4403 -0.013,-0.1293 0.116,-0.1421 0.181,-0.1484 l -0.057,-0.582 0.194,-0.0192 c -0.058,-0.582 -1.04,-0.6164 -0.522,-1.3203 l 0.563,-0.2512 c 0.178,-1.5199 -0.194,-3.3121 -0.605,-4.839 0.065,-0.2 0.094,-0.3988 0.108,-0.5981 l 17.26,0 c -0.024,0.411 -0.185,0.7114 -0.746,0.6973 -0.219,0.9695 -0.707,2.2578 -0.015,3.1855 -0.235,1.5547 -0.61,3.5606 -0.527,5.3836 -0.869,0.9532 0.068,2.4723 -0.415,3.5657 0.119,0.4582 0.232,1.1113 0.617,1.316 0.79,-0.3703 1.269,1.2672 1.813,0.3058 1.109,-0.1671 1.017,-1.6648 1.879,-2.2933 1.34,-1.5914 -1.423,-2.8969 -0.08,-4.5535 -0.163,-1.3043 0.585,-2.586 0.943,-3.8774 -1.085,-0.8078 0.111,-1.8179 0.199,-2.7258 0.323,-0.3687 0.595,-0.9757 1.14,-1.0039 l 23.973,0 c -0.04,0.1614 -0.084,0.3356 -0.139,0.5403 -0.821,0.5109 0.161,1.2847 -0.032,1.9765 0.172,2.6746 -2.389,7.9668 0.609,9.6383 0.78,0.0762 1.431,-0.5976 2.21,-0.5211 0.326,-0.3371 0.379,-0.9883 0.182,-1.3547 -0.541,-0.2968 -0.244,-0.8375 -0.301,-1.2445 0.634,-0.2145 0.919,-0.691 1.164,-1.307 -0.429,-1.2676 0.421,-4.4278 0.171,-5.5965 -1.172,-1.6973 0.809,-0.4539 0.12,-2.1313 l 15.392,0 c 0.06,0.4024 0.138,0.8094 0.282,1.2192 -0.679,1.1531 0.465,0.0316 0.176,1.1945 -0.486,1.2231 0.447,2.8723 -0.357,3.8274 -0.018,0.7148 0.35,1.5691 -0.121,2.2074 0.377,0.5297 -0.226,1.2297 0.215,1.7613 -0.269,0.3832 -1.116,0.4266 -0.609,0.9598 0.372,0.7246 -0.116,2.0125 0.319,2.8039 0.978,-0.1051 0.359,1.2445 0.803,1.7109 -0.337,0.4465 1.32,1.7891 1.771,1.9305 0.916,-0.2371 0.231,-1.4246 1.152,-1.8567 0.11,-1.7527 1.127,-3.4175 -0.138,-4.8148 0.295,-1.3582 -0.78,-2.5559 0.485,-3.759 -1.005,-1.391 0.393,-2.6562 -0.09,-4.1637 -0.394,-1.7664 0.547,-1.8035 0.922,-3.0207 l 18.198,0 c -0.049,0.2047 -0.064,0.3911 0.171,0.5985 -0.79,0.6375 -0.486,1.9426 -0.627,2.6554 0.644,0.4004 -0.398,0.5137 -0.209,0.9067 0.497,1.4383 -1.403,2.3832 -0.449,3.6988 -0.465,0.6426 0.301,1.5649 -0.423,2.1383 0.15,2.8629 -0.675,8.0074 1.109,10.3109 0.047,1.1707 -0.751,2.2637 0.143,3.3177 -1.06,1.218 -0.109,2.794 -0.651,4.15 0.496,1.568 0.02,2.861 0.515,4.429 0.377,0.851 -0.947,2.39 0.476,2.803 0.32,0.33 0.904,0.404 1.361,0.281 0.268,-0.515 0.782,-0.117 1.174,-0.241 l 0.189,0.393 c 1.353,0.736 4.226,-0.154 4.541,0.592 l -0.627,0.316 c 0.054,0.118 0.018,0.436 0.062,0.563 l -0.022,0.365 c 0.178,0.516 0.255,1.092 0.122,1.545 l -0.228,0.78 0.574,0.576 c -0.094,-0.095 -0.137,-0.013 -0.146,0.099 -0.041,0.558 0.46,1.815 0.428,1.885 -0.209,0.459 0.054,2.442 0.052,2.413 0.002,0.038 -0.089,0.98 0.025,1.444 0.165,0.807 0.073,1.274 -0.053,1.919 -0.074,0.375 -0.075,0.952 -0.061,1.414 -0.24,0.041 -1.701,0.371 -2.371,0.807 -0.233,0.151 -0.584,0.378 -0.722,0.419 l -0.063,0.01 -0.083,0.023 c -0.187,0.052 -0.482,0.063 -0.793,0.074 -0.716,0.024 -1.608,0.056 -2.463,0.6 0,0 -0.98,0.014 -1.406,0.326 -0.082,0.059 -0.19,0.138 -0.236,0.159 l -0.241,0.009 -0.236,0.105 c -0.55,0.241 -0.698,0.294 -0.703,0.296 0,0 -0.735,0.063 -1.224,0.228 -0.187,0.063 -0.381,0.128 -0.478,0.122 l -0.451,-0.028 -0.379,0.245 c -0.629,0.406 -1.147,0.562 -1.604,0.7 -0.582,0.175 -0.697,0.455 -0.697,0.455 -0.71,0.076 -1.792,0.817 -1.833,0.817 l -0.052,0 -0.051,0.004 c -0.929,0.07 -1.804,0.997 -2.65,1.207 -0.872,0.216 -1.696,0.421 -2.504,0.449 l -0.136,0.004 -0.132,0.031 c -0.717,0.169 -1.239,0.524 -1.659,0.81 -0.359,0.244 -0.574,0.384 -0.812,0.421 l -0.328,0.051 -0.269,0.195 c -0.623,0.453 -1.014,0.849 -1.358,1.197 -0.362,0.367 -0.674,0.683 -1.279,1.099 l -0.5,0.344 -0.083,0.601 c -0.068,0.488 -2.063,0.959 -1.758,1.325 0.545,0.654 3.199,0.315 3.226,0.319 l 1.625,-0.5 c 1.125,-0.5 1.566,-0.497 1.832,-0.842 0.041,-0.053 0.055,0.081 0.055,0.081 l 0.366,-0.117 c 0.255,-0.081 0.868,-0.866 1.872,-1.206 0,0 2.756,0.075 3.25,-0.416 0.326,-0.324 0.686,-0.831 0.924,-0.891 l 0.511,-0.127 c 0,0 -0.23,0.704 -0.155,0.714 1.529,0.214 1.747,-0.405 1.746,-0.404 0.354,-0.197 2.208,-1.467 2.613,-1.573 0,0 0.089,-0.682 0.092,-0.681 -0.298,-0.044 1.6,0.058 1.6,0.058 0.603,-0.001 0.965,-0.479 0.965,-0.479 1.206,0.258 2.042,-0.482 2.407,-0.45 l 0.797,0.04 -0.142,-0.143 2.367,-0.997 0.475,-0.306 c 1.348,-0.015 2.849,1.266 2.959,1.62 l 0.591,-0.381 c 0.045,0.218 0.069,1.019 0,1.375 -0.116,0.591 -0.274,1.401 0.015,2.335 0,0 -0.038,0.55 -0.124,1 -0.143,0.746 0.239,1.657 0.239,1.657 -0.689,1.222 -0.346,0.513 -0.078,0.964 0.046,0.077 0.109,0.182 0.124,0.222 -0.037,-0.094 -0.202,0.334 -0.202,0.334 0,0 -1.435,-0.559 -2.778,0.263 -2.38,1.039 -4.19,2.603 -5.698,3.994 l -0.43,0.397 -0.03,0.54 c -0.012,0.043 -0.044,0.129 -0.07,0.197 -0.181,0.486 -0.607,1.622 0.33,2.681 0,0 0.071,0.08 0.093,0.098 l 0.082,0.069 c 0.096,0.081 0.229,0.192 0.264,0.236 -0.043,-0.053 -0.099,0.132 -0.099,0.132 l 0.163,0.337 0.031,0.063 c 0.44,0.907 2.337,2.231 2.313,2.151 0.003,0.012 0.012,0.046 0.018,0.071 0.321,1.252 1.202,1.485 1.698,1.512 0.424,0.023 0.913,0.186 1.48,0.375 0.471,0.158 1.006,0.32 1.578,0.438 1.199,0.7 2.493,0.465 3.46,0.281 0.289,-0.055 0.563,-0.107 0.807,-0.133 l 0.513,-0.053 0.364,-0.366 0.303,-0.305 c 0,0 0.493,0.465 0.981,-1.06 0.011,-0.033 0.025,-0.077 0.031,-0.092 -0.048,0.12 0.679,-0.242 1.39,-0.667 l 0.398,-0.239 0.185,-0.425 c 0.056,-0.131 0.177,-0.304 0.304,-0.488 0.354,-0.508 0.889,-1.277 0.868,-2.374 l -0.001,-0.041 -0.003,-0.04 c -0.026,-0.338 -0.079,-0.654 -0.13,-0.959 -0.126,-0.748 -0.163,-1.098 0.008,-1.318 l 0.489,-0.628 -0.27,-0.748 c -0.342,-0.949 -2.874,-3.269 -3.618,-3.936 -0.009,-0.046 -0.018,-0.099 -0.025,-0.145 -0.043,-0.273 0.329,-0.517 0.278,-1.209 -0.045,-0.604 -1.117,0.144 -1.117,0.144 0.602,-1.314 0.612,-2.692 0.622,-3.908 0.006,-0.825 -0.065,-0.82 0.114,-1.495 l 0.099,-1.566 0.077,0.633 c 0.617,0.212 1.275,0.201 1.855,0.191 0.298,-0.005 0.571,-0.494 0.724,-0.453 0,0 0.348,0.268 0.737,0.386 0.052,0.016 0.12,0.036 0.164,0.052 0.231,0.197 0.594,0.508 0.722,0.618 1.013,0.874 3.24,-2.059 3.24,0.624 l -0.135,-0.032 0.451,0.131 c 0.742,0.215 1.443,0.418 2.182,0.724 l 0.196,0.081 0.211,0.018 c 0.723,0.063 1.645,0.356 2.467,0.782 l 0.407,0.211 0.32,-0.053 c 0.019,0.007 0.04,0.016 0.057,0.023 0.32,0.127 0.552,-0.024 0.552,-0.024 0.894,0.537 1.907,0.943 2.888,1.337 0.76,0.305 1.574,0.665 1.916,0.967 0.533,0.472 1.168,0.426 1.466,0.398 0.341,0.116 1.438,0.464 2.479,0.504 l 0.809,0.034 c 0,0 0.698,0.03 0.707,0.03 l 1.144,0.163 c 0.444,-0.556 -0.685,-1.32 -0.73,-1.683 -0.111,-0.901 -0.609,-0.777 -1.071,-1.129 -0.086,-0.065 -0.167,-0.128 -0.221,-0.174 l -0.064,-0.055 -0.069,-0.047 c -1.326,-0.885 -2.911,-1.435 -4.443,-1.966 -0.742,-0.258 -0.983,-0.995 -1.62,-1.264 0,0 -1.569,-0.446 -2.3,-0.432 -0.262,0.005 -0.657,0.013 -0.777,-0.033 0.04,0.015 -0.121,-0.487 -0.121,-0.487 l -0.594,-0.204 c -0.848,-0.29 -0.958,-0.157 -0.877,-0.112 -0.084,-0.047 -0.287,-0.243 -0.421,-0.372 -0.485,-0.469 -1.476,-0.944 -1.476,-0.944 -0.263,-0.13 -0.513,-0.231 -0.733,-0.321 -0.422,-0.172 -0.668,-0.277 -0.808,-0.44 l -0.057,-0.066 -0.064,-0.058 c -0.546,-0.494 -1.193,-0.518 -1.503,-0.529 -0.034,-0.002 -0.08,-0.004 -0.097,-0.005 0.375,0.036 -0.538,-0.367 -0.538,-0.367 -0.8,0.013 -0.505,0.002 -1.068,0.035 -0.157,0.009 -0.123,-0.512 -0.968,-0.56 l -0.118,-0.007 c 0,0 -0.309,0.645 -0.328,0.683 -0.664,-0.524 -1.761,-0.572 -1.757,-0.569 -0.061,-0.048 -0.736,0.306 -0.736,0.306 l -1.144,-1.289 c -0.104,0.002 -0.142,-0.71 -0.143,-0.71 0.173,0.013 -0.236,-0.195 -0.732,-0.247 0,0 -0.096,-1.636 -0.108,-2.437 -0.024,-1.682 -0.048,-3.269 0.251,-4.831 l 0.095,-0.493 -0.246,-0.438 c -0.265,-0.473 -0.272,-1.149 -0.018,-1.646 l 0.231,-0.453 -0.118,-0.495 c -0.098,-0.406 0.165,-0.562 0.211,-0.708 l -0.75,-0.812 c 0.852,-0.441 0.522,-0.018 1.433,-0.068 2.152,-0.422 4.503,-1.099 6.635,-0.221 l 1.178,-0.501 c 1.321,-1.344 0.113,-3.054 0.527,-4.607 -1.072,-2.098 0.383,-3.635 0.093,-5.85 -0.636,-0.92 -0.04,-1.625 -0.218,-2.668 0.143,-0.843 -0.041,-1.5612 0.491,-2.2679 -0.289,-2.2801 -0.004,-3.9008 0.228,-6.2375 -0.823,-1.4429 -0.091,-2.4718 -0.262,-3.9695 -1.402,-1.8422 -0.253,-4.5547 -0.546,-6.6395 0.492,-1.58 0.147,-3.005 0.043,-4.4039 l 20.62,0 c 0.063,0.1723 0.135,0.3196 0.241,0.3969 0.254,0.3942 0.696,1.2465 -0.152,1.4281 -0.326,0.0598 -0.395,0.3188 -0.334,0.5797 0.511,0.5281 0.171,1.4981 0.289,2.2149 -0.523,0.1867 -0.269,0.5808 -0.209,0.9066 -1.644,1.2094 -0.429,2.4637 -1.104,4.0785 -0.339,0.8395 0.758,1.377 0.357,2.0856 0.056,0.5859 0.693,1.3761 0.101,1.8218 0.3,1.6301 -0.376,3.2446 -0.403,4.9344 0.436,1.2422 -1.271,2.2555 -0.117,3.3137 0.386,0.266 0.185,-0.8063 0.777,-1.2524 0.268,-0.5156 0.649,0.0754 1.044,-0.2433 2.671,-0.3477 1.741,-1.7637 2.482,-3.4422 0.278,-1.1008 -0.285,-2.4746 0.249,-3.3766 -0.088,-2.6668 0.014,-5.0054 -0.01,-7.6062 0.916,-0.3754 -0.178,-1.1078 0.09,-1.6234 0.547,-1.5579 -0.154,-2.884 -0.106,-4.2161 l 22.519,0 c 0.011,0.1352 0.023,0.2586 0.023,0.3575 0.195,1.1699 -0.13,2.6 -0.13,3.7699 0.78,0.1949 0.195,0.975 0.26,1.5597 0.845,1.6903 -0.325,3.9 0.39,5.7204 -0.065,1.2347 -0.39,2.6648 0.78,3.5097 -0.325,0.3903 -0.065,0.7801 0,1.1699 0.52,0.3903 1.3,0.5204 1.95,0.7801 0.261,-0.3898 1.235,-0.5199 0.845,-1.3 0.195,-0.5199 1.04,-0.7148 1.105,-1.3 -1.82,-1.1051 -0.52,-3.3797 -0.78,-5.0047 -0.26,0 -0.65,0.0649 -0.65,-0.3254 0.13,-0.8449 -0.065,-1.8847 -0.78,-2.3398 -0.065,-1.8199 0.521,-3.575 0.39,-5.4598 0.065,-0.13 0.195,-0.3254 0.39,-0.2601 0.428,-0.1996 0.514,-0.5262 0.541,-0.8774 l 16.116,0 c 0.055,0.4008 0.127,0.8598 0.214,1.395 -0.812,1.95 0.65,3.2668 0.65,4.4527 -0.78,0.7801 0.261,1.8199 -0.52,2.5348 -0.585,1.3652 0.715,2.6 0.39,3.8351 0.716,1.2352 -0.584,2.3402 0.455,3.5102 0.716,1.0398 0.066,1.8199 0.391,3.0547 0.064,0.78 -0.521,1.43 -0.066,2.2101 -0.064,0.5852 -0.064,1.1699 0.52,1.6247 0.196,0.78 0.13,1.625 -0.065,2.405 l -0.455,0.26 c 0.716,1.365 -0.195,2.731 0.325,4.16 -0.259,0.845 0.78,1.755 0,2.535 0,1.17 0.586,2.536 0.066,3.575 -0.325,0 -0.325,0.39 -0.325,0.39 0.975,1.041 0.975,3.055 0.65,4.355 l -0.325,0.455 c 1.104,0.261 0.454,1.495 0.52,2.21 -0.911,-0.195 -0.195,1.171 -1.17,0.521 -0.521,-0.261 -1.171,-0.131 -1.625,0.194 -0.65,0.065 -1.236,-0.389 -1.43,-0.844 -1.17,0 -2.016,-1.625 -3.511,-1.041 -0.975,-0.129 -2.145,-0.845 -2.989,0 -2.341,0.391 -2.666,-2.534 -5.006,-2.015 -2.794,-0.844 -5.2,0.781 -7.669,1.17 -0.845,1.495 -2.925,1.17 -3.12,3.055 -0.78,0.52 -2.016,0.195 -2.536,1.04 -0.78,1.885 -3.25,1.105 -4.225,2.925 -0.78,0.066 -1.3,1.041 -2.014,1.171 -0.261,0.845 -1.496,0.714 -1.43,1.625 -1.366,0.584 -2.406,-0.975 -3.575,-1.301 -0.911,-0.065 -0.911,1.105 -1.821,1.04 -0.129,0.325 0,0.715 -0.39,0.975 -0.195,0.26 -0.65,0.065 -0.715,0.456 -0.195,1.039 1.04,1.234 1.43,2.014 0.78,-0.455 1.69,-0.78 2.665,-0.585 -0.194,1.301 1.625,1.235 1.56,2.535 0.715,0.586 -0.585,0.65 -0.454,1.236 0.519,1.819 2.859,0.519 3.25,2.535 0.064,0.325 -0.456,0.715 -0.131,1.169 1.04,0.326 2.275,-0.129 3.25,0.326 0.781,0.779 0.195,2.534 1.69,2.795 1.235,-0.195 2.21,0.26 3.25,0.519 0.716,0.911 1.691,-0.194 2.405,0.975 1.366,-0.325 2.405,0.781 3.836,0.52 0.519,0.455 0.325,1.821 1.364,1.43 2.211,-1.234 4.941,-0.65 7.086,-0.78 0.389,-0.454 1.169,-0.195 1.559,-0.259 1.171,-0.716 2.666,-0.975 3.641,-2.211 1.169,-0.325 2.469,-0.519 3.38,-1.3 0.975,0.066 1.495,-0.519 2.079,-1.169 0.066,-0.52 -0.52,-0.781 -0.715,-1.106 0.715,-1.039 1.95,-0.519 2.861,-1.3 2.209,-1.105 4.745,-1.105 6.434,-3.315 0.975,-0.129 1.366,1.105 2.405,1.365 0.456,0.131 0.781,-0.26 1.236,-0.325 0.909,-1.105 -0.586,-1.755 -1.041,-2.665 0.78,-0.65 2.08,-1.104 2.146,-2.34 0.259,-0.714 1.625,-0.52 1.625,-1.495 -0.066,-0.714 0.129,-2.21 -0.91,-2.535 -0.52,0.066 -0.586,0.585 -1.04,0.585 -0.846,0.131 -0.846,-1.43 -1.691,-0.519 0.845,1.95 -2.209,1.494 -1.819,3.25 -0.325,0.519 -0.845,0.389 -1.3,0.389 -0.195,-0.65 -1.495,-0.65 -0.911,-1.56 0,-1.104 -1.625,-2.079 -0.65,-3.12 0.13,-0.65 0.52,-1.365 0.586,-2.145 -0.716,-2.535 -0.195,-4.875 -0.845,-7.475 0.52,-0.714 -0.455,-1.364 0,-1.95 l -0.391,-0.78 c 0.13,-0.195 0.455,-0.195 0.52,-0.52 0.26,-2.145 -0.454,-4.355 -0.779,-6.5 0.909,-0.78 1.559,-1.56 2.08,-2.535 0.195,-1.235 -1.171,-2.21 -0.325,-3.4447 0,-0.7801 0,-1.625 -0.455,-2.2098 -0.391,-1.0402 0.389,-1.9503 -0.391,-2.73 0,-1.0403 1.041,-2.145 0.13,-3.12 0.39,-0.5851 -0.455,-1.105 -0.455,-1.6902 0.13,-0.7148 -0.064,-1.2351 0.455,-1.8199 -0.389,-1.3 -0.26,-2.2102 -0.389,-3.6402 0.52,-0.9098 -0.325,-1.8848 -0.13,-2.925 0.259,-0.4547 0.65,-0.975 0.259,-1.495 -0.52,-0.3898 -0.129,-1.3 -0.909,-1.43 -0.154,-0.1723 -0.166,-0.3735 -0.14,-0.5825 l 24.499,0 c 0.196,0.3903 0.301,0.7926 0.028,1.3371 0.715,0.975 -0.13,1.95 0.39,2.9903 0,0.325 0.065,0.8449 -0.065,1.1699 0,0 -0.26,0.2598 -0.065,0.2598 -0.325,0.9101 0.585,2.1453 -0.455,2.9902 0,0.3898 -0.195,1.1051 0.455,1.1699 0.065,1.1699 -0.715,2.7301 0.715,3.6399 -0.13,0.9101 0.13,1.95 0.13,2.7953 l 0.845,3.4449 c 0,0 1.17,0.9102 1.17,1.8199 -0.52,0.5852 0.26,1.1051 0.715,1.3651 0.39,0.065 0.715,0.195 1.04,0.585 0,0.585 -0.52,1.3 0.13,1.95 -0.715,1.105 1.625,1.105 0.91,2.405 0.78,1.3 2.86,0.585 3.055,2.405 -0.845,1.17 1.3,2.015 -0.065,2.86 -0.65,2.21 2.275,0.65 3.055,1.95 -0.91,0.715 -0.195,1.625 -1.04,2.275 -0.195,0.585 -0.325,1.3 0.065,1.82 -0.65,0.91 1.105,2.34 -0.585,2.405 -0.78,0 -1.365,-0.845 -2.015,-1.235 -0.975,0.13 -1.95,0.13 -2.6,-0.715 -1.3,-0.065 -2.795,-0.975 -4.16,-0.065 -2.795,0.845 -4.615,-2.015 -7.28,-0.455 -0.26,0.325 -0.26,0.975 0,1.3 1.3,0.455 2.73,0.585 3.77,1.69 1.495,1.04 3.575,0.78 4.94,2.08 2.015,0.26 4.55,0.39 6.695,0.195 0.585,0.39 -0.195,0.78 0.26,1.235 0.065,0.325 -0.455,0.585 -0.26,1.04 0.52,0.585 2.015,0.325 1.755,1.56 -0.39,0.195 -0.39,0.65 -0.325,0.91 0.39,0.65 0.39,1.235 0.715,1.885 -1.755,1.3 -4.875,0.455 -5.785,2.99 -0.13,0.65 -0.39,1.43 -1.105,1.625 -0.715,-0.13 -0.39,0.65 -0.78,0.845 -0.715,0.585 -0.455,1.3 -1.495,1.56 -0.715,1.69 -3.38,2.535 -2.795,4.68 0.26,0.26 0.78,0.195 1.105,0.065 0.65,-1.365 2.34,-1.365 3.315,-2.405 1.235,0 1.56,-1.105 2.86,-0.91 0.715,-0.91 2.275,-0.26 2.86,-1.365 1.235,0 1.69,-1.235 2.015,-2.21 -0.195,-1.365 1.365,-0.91 2.015,-1.365 1.365,0.975 2.665,2.08 3.9,3.315 0.325,0.715 -0.715,0.975 -1.04,1.365 -0.325,0 -0.715,0.39 -0.65,0.585 0.585,1.56 -1.17,2.86 -1.105,4.42 -1.3,0.845 -0.39,2.405 -1.495,3.445 0.065,0.455 -0.195,1.235 0.26,1.625 0.26,0.325 0.78,0 1.17,0 1.625,-1.56 1.95,-3.705 4.03,-4.94 0.91,-1.17 1.365,-2.925 3.12,-3.185 1.105,-0.195 2.08,0.325 2.99,0.78 1.495,-0.52 2.795,-0.195 4.29,-0.845 0.26,0.13 0.65,0.26 0.78,0.65 -0.455,0.585 -2.405,0.78 -1.3,1.95 0.91,2.73 3.315,5.135 3.12,8.255 -0.195,1.495 1.56,1.495 1.69,2.86 0.195,0.39 0.65,0.39 0.845,0.065 0.455,-1.17 -1.04,-1.82 -0.585,-2.99 -0.65,-0.39 -0.455,-1.105 -0.52,-1.69 0.26,-1.625 -0.195,-3.575 -0.455,-5.265 0.455,-0.715 -0.39,-1.3 -0.195,-2.145 -0.52,-0.585 -0.39,-1.69 -1.04,-2.21 -0.065,-0.585 0.715,-0.715 1.17,-0.91 1.56,-0.195 3.25,-0.325 4.55,-1.365 0.65,-0.26 1.3,0.325 1.625,0.91 l 0.455,1.625 5.395,4.485 c 0.78,1.365 1.625,3.12 3.185,3.9 1.69,-1.17 2.405,1.495 3.965,1.365 1.3,1.69 3.51,2.08 4.355,4.03 0.455,0.325 0.91,0.78 1.495,0.52 0.26,-0.325 0.715,-0.715 0.585,-1.17 -1.234,-0.91 -1.885,-2.6 -2.145,-4.225 -1.56,-0.715 -0.065,-2.47 -1.365,-3.25 -1.105,-0.845 -1.885,-1.95 -3.315,-2.015 -0.845,-0.65 -1.235,-2.08 -2.47,-2.21 -0.585,-0.39 -0.195,-1.3 -0.975,-1.495 -0.39,0.195 -0.65,-0.195 -0.91,-0.39 -1.365,0.52 -2.145,-0.975 -2.795,-1.885 0.195,-0.78 -0.65,-0.325 -0.975,-0.65 -0.78,-0.715 -1.3,-1.885 -2.145,-2.21 0,-0.91 0.585,-1.69 0.715,-2.665 0.521,-0.195 1.365,-0.195 1.56,-0.975 -0.455,-2.405 1.95,-3.965 1.235,-6.175 2.21,-0.585 4.485,0.39 6.955,0.065 1.365,1.17 2.535,-0.325 4.03,0.39 0.975,0.39 2.275,0.325 3.185,-0.26 2.081,0.96 -1.482,-0.374 4.324,0.58 0.584,-0.138 0.98,1.113 5.113,0.164 0.036,-1.546 -1.886,-2.754 -2.498,-2.674 -2.826,-0.485 -5.574,-0.605 -7.849,-1.255 -2.73,-0.065 -5.98,0.39 -8.45,-0.975 -0.91,-0.065 -1.82,1.95 -2.73,0.455 -0.78,-0.26 -1.755,0.585 -2.145,-0.26 0.195,-0.195 0.195,-0.195 0.26,-0.455 -0.39,-0.65 -0.26,-1.365 -0.585,-1.95 -0.65,-1.43 1.95,-3.12 -0.195,-3.835 0.715,-1.43 -1.235,-2.6 -1.56,-3.835 0.195,-0.52 -1.56,-1.43 -0.065,-1.56 0.065,-1.105 1.04,-1.885 1.235,-2.86 0.91,-0.39 0.975,-1.495 1.56,-2.015 1.105,-0.715 1.04,-2.275 2.145,-2.925 0.78,-1.1702 2.08,-1.56 2.275,-3.185 1.04,-0.5199 0.91,-1.8852 1.95,-2.4699 0,-0.4551 -0.455,-0.5852 -0.715,-0.7153 -2.535,-0.325 -2.275,2.925 -4.29,3.1852 -1.105,0.975 -2.99,1.4949 -3.38,3.055 -0.844,1.04 -1.625,1.82 -2.925,2.015 -0.715,1.105 -1.43,1.95 -2.21,2.99 -0.975,-0.065 -1.43,-1.105 -2.6,-0.845 -0.975,-1.755 -2.925,-0.13 -3.77,-1.755 -0.715,-0.455 -1.69,-0.26 -2.34,-0.78 -0.78,-1.365 0.065,-2.9249 0.13,-4.4202 -1.56,-0.9098 1.17,-2.0149 -0.39,-3.0547 0.52,-0.975 0.402,0.2312 0.597,-0.8086 0,-1.1051 1.472,-5.609 0.822,-6.584 -0.13,-0.5848 0.097,-4.6035 -0.358,-5.1234 -0.52,-0.1953 -1.711,1.0949 -2.491,1.4199 -0.975,1.4301 -0.65,3.4449 -0.91,5.0051 -0.975,0.4547 -0.13,3.7507 -0.91,4.2707 0.13,0.455 -0.065,1.0402 0.39,1.3004 -0.65,1.3648 -0.065,3.25 -1.105,4.3546 -0.26,0.7153 0.195,1.625 -0.39,2.3402 0.455,0.195 0.91,0.78 1.105,1.235 -1.365,0.52 -2.665,1.625 -4.16,1.04 -0.39,0.39 -0.975,0.195 -1.43,0.455 -0.91,1.69 -3.055,1.625 -4.095,3.12 -0.39,0.26 -0.975,0.195 -1.43,0.195 -2.21,-3.38 -6.11,-6.4352 -6.24,-10.5949 -0.715,-0.65 -0.585,-1.7551 -0.975,-2.4051 0.78,-0.1301 0,-0.8449 0.26,-1.2352 0.195,-1.105 -1.69,-2.0148 -0.65,-3.1847 -0.91,-1.95 -0.13,-4.225 0.195,-6.0453 0.455,-0.3899 0.91,-0.5848 1.17,-1.17 -0.455,-1.1699 -1.625,-2.0148 -1.69,-3.3148 0,-0.2898 0.002,-0.6141 0.016,-0.9473 l 56.379,0 c 0.245,1.884 0.656,3.6852 0.75,5.5969 -1.316,2.5543 0.685,4.4102 0.428,6.9684 1.309,1.0156 1.712,-0.8567 3.038,-0.8356 -0.38,-0.9879 0.802,-3.4027 0.062,-4.1926 0.417,-1.332 0.069,-1.8875 0.828,-3.1503 l -0.637,-0.3836 c -0.128,0.0234 -0.441,-2.3653 0.063,-3.5813 -0.059,-0.1308 -0.042,-0.2742 0.003,-0.4219 l 11.426,0 0,83.2013 -468.6461,0 c 0.1687,-0.542 0.1289,-1.154 0.3836,-1.657 l 0.7613,-1.935"
         style="fill:#c10013;fill-opacity:1;fill-rule:nonzero;stroke:none"
         id="path126" /></g></g></svg>