<?xml version="1.0" encoding="UTF-8" standalone="no"?>
<svg
   xmlns:dc="http://purl.org/dc/elements/1.1/"
   xmlns:cc="http://creativecommons.org/ns#"
   xmlns:rdf="http://www.w3.org/1999/02/22-rdf-syntax-ns#"
   xmlns:svg="http://www.w3.org/2000/svg"
   xmlns="http://www.w3.org/2000/svg"
   xmlns:sodipodi="http://sodipodi.sourceforge.net/DTD/sodipodi-0.dtd"
   xmlns:inkscape="http://www.inkscape.org/namespaces/inkscape"
   viewBox="0 0 193.2831 88.58"
   height="88.58"
   width="193.2831"
   xml:space="preserve"
   version="1.1"
   id="svg2"
   inkscape:version="0.91 r13725"
   sodipodi:docname="HSN_logotype_neg.svg"><sodipodi:namedview
     pagecolor="#ffffff"
     bordercolor="#666666"
     borderopacity="1"
     objecttolerance="10"
     gridtolerance="10"
     guidetolerance="10"
     inkscape:pageopacity="0"
     inkscape:pageshadow="2"
     inkscape:window-width="698"
     inkscape:window-height="480"
     id="namedview4301"
     showgrid="false"
     fit-margin-top="0"
     fit-margin-left="0"
     fit-margin-right="0"
     fit-margin-bottom="0"
     inkscape:zoom="1.080407"
     inkscape:cx="91.24"
     inkscape:cy="44.2896"
     inkscape:window-x="0"
     inkscape:window-y="24"
     inkscape:window-maximized="0"
     inkscape:current-layer="svg2" /><metadata
     id="metadata8"><rdf:RDF><cc:Work
         rdf:about=""><dc:format>image/svg+xml</dc:format><dc:type
           rdf:resource="http://purl.org/dc/dcmitype/StillImage" /><dc:title></dc:title></cc:Work></rdf:RDF></metadata><defs
     id="defs6"><clipPath
       id="clipPath16"
       clipPathUnits="userSpaceOnUse"><path
         id="path18"
         d="m 0,155.905 231.024,0 L 231.024,0 0,0 0,155.905 Z"
         inkscape:connector-curvature="0" /></clipPath></defs><g
     transform="matrix(1.25,0,0,-1.25,-53.15,141.731)"
     id="g10"><g
       id="g12"><g
         clip-path="url(#clipPath16)"
         id="g14"><g
           transform="translate(197.1455,112.1798)"
           id="g20"><path
             id="path22"
             style="fill:#ffffff;fill-opacity:1;fill-rule:nonzero;stroke:none"
             d="m 0,0 -13.369,0.002 0,-49.129 -36.849,48.549 c -6.238,0.816 -11.556,1.783 -21.322,1.783 -13.66,0 -21.66,-7.059 -23.304,-15.761 -1.567,-8.295 0.58,-15.568 10.153,-20.016 10.792,-5.014 22.17,-8.896 22.17,-17.518 0,-6.347 -4.578,-13.883 -18.974,-13.883 -8.926,0 -14.545,3.397 -17.744,9.222 -2.422,4.412 -2.87,8.536 -2.87,14.153 l 0,42.6 -11.427,0 0,-31.2 -25.292,0 0,-4.112 25.292,0 0,-4.338 c 0,-9.791 1.288,-15.036 7.385,-21.253 5.587,-5.698 14.182,-8.758 24.563,-8.758 18.945,0 29.001,12.555 29.001,21.743 0,6.527 -2.997,12.28 -15.181,18.179 -11.173,5.409 -19.661,7.725 -18.188,17.251 1.121,7.249 7.43,10.584 14.61,10.403 8.791,-0.222 13.054,-3.893 14.403,-8.237 l 0,-21.62 c 1.729,-1.293 3.078,-2.599 4.112,-3.937 l 0,19.909 40.342,-52.888 3.234,0 0,65.384 9.256,0 L 0,0 Z"
             inkscape:connector-curvature="0" /></g><path
           id="path24"
           style="fill:#ffffff;fill-opacity:1;fill-rule:nonzero;stroke:none"
           d="m 42.52,43.618 11.525,0 0,68.563 -11.525,0 0,-68.563 z"
           inkscape:connector-curvature="0" /></g></g></g></svg>