<?xml version="1.0" encoding="UTF-8" standalone="no"?>
<svg
   xmlns:dc="http://purl.org/dc/elements/1.1/"
   xmlns:cc="http://creativecommons.org/ns#"
   xmlns:rdf="http://www.w3.org/1999/02/22-rdf-syntax-ns#"
   xmlns:svg="http://www.w3.org/2000/svg"
   xmlns="http://www.w3.org/2000/svg"
   viewBox="0 0 656.9288 194.8825"
   height="194.8825"
   width="656.9288"
   xml:space="preserve"
   version="1.1"
   id="svg2"><metadata
     id="metadata8"><rdf:RDF><cc:Work
         rdf:about=""><dc:format>image/svg+xml</dc:format><dc:type
           rdf:resource="http://purl.org/dc/dcmitype/StillImage" /><dc:title></dc:title></cc:Work></rdf:RDF></metadata><defs
     id="defs6"><clipPath
       id="clipPath16"
       clipPathUnits="userSpaceOnUse"><path
         id="path18"
         d="m 0,155.906 525.543,0 L 525.543,0 0,0 0,155.906 Z" /></clipPath></defs><g
     transform="matrix(1.25,0,0,-1.25,0,194.8825)"
     id="g10"><g
       id="g12"><g
         clip-path="url(#clipPath16)"
         id="g14"><g
           transform="translate(215.9272,112.181)"
           id="g20"><path
             id="path22"
             style="fill:#000000;fill-opacity:1;fill-rule:nonzero;stroke:none"
             d="m 0,0 3.287,0 0,-12.981 c 0,-2.424 1.281,-3.9 3.9,-3.9 2.646,0 3.956,1.504 3.956,3.844 l 0,13.037 3.259,0 0,-13.148 c 0,-4.234 -2.897,-6.769 -7.215,-6.769 -4.318,0 -7.187,2.535 -7.187,6.769 L 0,0 Z" /></g><g
           transform="translate(234.3671,107.4451)"
           id="g24"><path
             id="path26"
             style="fill:#000000;fill-opacity:1;fill-rule:nonzero;stroke:none"
             d="m 0,0 3.065,0 0,-1.42 0.055,0 c 0.78,1.002 2.313,1.838 3.984,1.838 3.231,0 5.265,-2.034 5.265,-5.515 l 0,-9.667 -3.148,0 0,8.831 c 0,2.173 -0.78,3.426 -2.87,3.426 -1.95,0 -3.175,-1.198 -3.175,-3.092 l 0,-9.165 -3.176,0 L 0,0 Z" /></g><path
           id="path28"
           style="fill:#000000;fill-opacity:1;fill-rule:nonzero;stroke:none"
           d="m 250.829,107.445 3.175,0 0,-14.764 -3.175,0 0,14.764 z m -0.055,5.572 3.287,0 0,-3.148 -3.287,0 0,3.148 z" /><g
           transform="translate(256.3443,107.4451)"
           id="g30"><path
             id="path32"
             style="fill:#000000;fill-opacity:1;fill-rule:nonzero;stroke:none"
             d="m 0,0 3.288,0 3.955,-10.195 0.056,0 3.956,10.195 3.259,0 -5.933,-14.764 -2.647,0 L 0,0 Z" /></g><g
           transform="translate(282.3892,101.5124)"
           id="g34"><path
             id="path36"
             style="fill:#000000;fill-opacity:1;fill-rule:nonzero;stroke:none"
             d="M 0,0 C -0.112,1.978 -1.253,3.537 -3.621,3.537 -5.905,3.537 -7.076,1.699 -7.187,0 L 0,0 Z m 2.647,-5.795 c -1.142,-1.838 -3.009,-3.454 -6.129,-3.454 -4.011,0 -6.936,3.009 -6.936,7.8 0,4.792 2.925,7.799 6.797,7.799 3.844,0 6.713,-2.952 6.713,-7.799 l 0,-0.947 -10.307,0 c 0.084,-2.396 1.337,-4.04 3.678,-4.04 2.256,0 3.259,1.505 3.899,2.508 l 2.285,-1.867 z" /></g><g
           transform="translate(288.6839,107.4451)"
           id="g38"><path
             id="path40"
             style="fill:#000000;fill-opacity:1;fill-rule:nonzero;stroke:none"
             d="m 0,0 3.009,0 0,-1.56 0.056,0 C 3.65,-0.418 4.875,0.279 6.129,0.279 6.658,0.279 7.104,0.14 7.439,0 L 6.937,-3.092 c -0.307,0.084 -0.669,0.223 -1.171,0.223 -1.671,0 -2.59,-1.114 -2.59,-3.677 l 0,-8.218 -3.176,0 L 0,0 Z" /></g><g
           transform="translate(300.4113,98.3088)"
           id="g42"><path
             id="path44"
             style="fill:#000000;fill-opacity:1;fill-rule:nonzero;stroke:none"
             d="m 0,0 c 0.251,-2.173 1.477,-3.371 3.566,-3.371 2.006,0 3.119,0.753 3.119,1.894 0,1.171 -0.919,1.449 -4.067,2.34 -3.342,0.947 -4.958,2.089 -4.958,4.318 0,2.228 1.894,4.373 5.432,4.373 3.537,0 5.376,-1.838 6.045,-4.317 L 6.463,4.457 C 5.989,5.85 5.125,6.908 3.092,6.908 1.421,6.908 0.557,6.128 0.557,5.32 0.557,4.346 1.17,4.095 4.902,3.036 8.635,1.978 9.555,0.613 9.555,-1.532 c 0,-2.062 -1.7,-4.513 -5.878,-4.513 -4.345,0 -6.212,2.674 -6.574,5.348 L 0,0 Z" /></g><path
           id="path46"
           style="fill:#000000;fill-opacity:1;fill-rule:nonzero;stroke:none"
           d="m 313.141,107.445 3.176,0 0,-14.764 -3.176,0 0,14.764 z m -0.056,5.572 3.288,0 0,-3.148 -3.288,0 0,3.148 z" /><g
           transform="translate(321.5255,104.716)"
           id="g48"><path
             id="path50"
             style="fill:#000000;fill-opacity:1;fill-rule:nonzero;stroke:none"
             d="m 0,0 -2.229,0 0,2.729 2.312,0 0,3.621 3.009,0 0,-3.621 3.705,0 0,-2.729 -3.678,0 0,-6.769 c 0,-1.533 0.307,-2.201 1.922,-2.201 l 1.171,0 0,-3.065 -1.421,0 C 1.086,-12.035 0,-10.363 0,-7.104 L 0,0 Z" /></g><g
           transform="translate(335.3136,93.3497)"
           id="g52"><path
             id="path54"
             style="fill:#000000;fill-opacity:1;fill-rule:nonzero;stroke:none"
             d="m 0,0 -5.739,14.095 3.344,0 3.872,-10.167 0.055,0 3.872,10.167 3.287,0 -8.412,-21.031 -3.065,0 L 0,0 Z" /></g><g
           transform="translate(367.3753,99.618)"
           id="g56"><path
             id="path58"
             style="fill:#000000;fill-opacity:1;fill-rule:nonzero;stroke:none"
             d="m 0,0 c -0.445,-4.29 -3.287,-7.354 -7.716,-7.354 -4.597,0 -8.413,3.092 -8.413,10.335 0,6.769 4.123,10 8.385,10 4.039,0 7.103,-2.758 7.577,-6.937 L -3.566,5.516 c -0.362,2.255 -1.42,4.429 -4.15,4.429 -2.591,0 -5.014,-1.922 -5.014,-7.02 0,-5.154 2.312,-7.243 5.014,-7.243 2.785,0 3.928,2.229 4.262,5.014 L 0,0 Z" /></g><g
           transform="translate(380.0489,100.0632)"
           id="g60"><path
             id="path62"
             style="fill:#000000;fill-opacity:1;fill-rule:nonzero;stroke:none"
             d="m 0,0 c 0,3.204 -1.532,4.931 -3.677,4.931 -2.145,0 -3.705,-1.672 -3.705,-4.931 0,-3.287 1.533,-4.931 3.705,-4.931 C -1.532,-4.931 0,-3.204 0,0 m -10.53,0 c 0,5.042 3.204,7.8 6.853,7.8 3.621,0 6.797,-2.758 6.797,-7.8 0,-5.042 -2.98,-7.8 -6.797,-7.8 -3.844,0 -6.853,2.758 -6.853,7.8" /></g><path
           id="path64"
           style="fill:#000000;fill-opacity:1;fill-rule:nonzero;stroke:none"
           d="m 386.371,113.017 3.288,0 0,-20.335 -3.288,0 0,20.335 z" /><path
           id="path66"
           style="fill:#000000;fill-opacity:1;fill-rule:nonzero;stroke:none"
           d="m 393.753,113.017 3.287,0 0,-20.335 -3.287,0 0,20.335 z" /><g
           transform="translate(410.6614,101.5124)"
           id="g68"><path
             id="path70"
             style="fill:#000000;fill-opacity:1;fill-rule:nonzero;stroke:none"
             d="M 0,0 C -0.112,1.978 -1.253,3.537 -3.621,3.537 -5.906,3.537 -7.076,1.699 -7.187,0 L 0,0 Z m 2.646,-5.795 c -1.142,-1.838 -3.008,-3.454 -6.129,-3.454 -4.01,0 -6.935,3.009 -6.935,7.8 0,4.792 2.925,7.799 6.797,7.799 3.844,0 6.713,-2.952 6.713,-7.799 l 0,-0.947 -10.308,0 c 0.085,-2.396 1.338,-4.04 3.678,-4.04 2.256,0 3.259,1.505 3.9,2.508 l 2.284,-1.867 z" /></g><g
           transform="translate(426.706,101.7903)"
           id="g72"><path
             id="path74"
             style="fill:#000000;fill-opacity:1;fill-rule:nonzero;stroke:none"
             d="m 0,0 c 0,1.644 -1.253,3.204 -3.398,3.204 -2.313,0 -3.929,-1.699 -3.929,-4.931 0,-3.231 1.588,-4.931 3.929,-4.931 2.06,0 3.398,1.421 3.398,3.092 L 0,0 Z m -6.964,-10.447 c 0.724,-1.559 1.671,-2.562 3.649,-2.562 1.95,0 3.315,1.031 3.315,3.371 l 0,1.894 -0.056,0 c -0.585,-0.864 -1.95,-1.783 -3.816,-1.783 -3.706,0 -6.63,2.842 -6.63,7.8 0,4.959 3.148,7.8 6.574,7.8 1.978,0 3.259,-0.892 3.984,-1.838 l 0.056,0 0,1.42 3.063,0 0,-14.847 c 0,-4.401 -2.757,-6.603 -6.49,-6.603 -3.204,0 -5.237,1.644 -6.101,3.789 l 2.452,1.559 z" /></g><g
           transform="translate(443.3631,101.5124)"
           id="g76"><path
             id="path78"
             style="fill:#000000;fill-opacity:1;fill-rule:nonzero;stroke:none"
             d="M 0,0 C -0.112,1.978 -1.253,3.537 -3.621,3.537 -5.906,3.537 -7.076,1.699 -7.187,0 L 0,0 Z m 2.646,-5.795 c -1.142,-1.838 -3.008,-3.454 -6.128,-3.454 -4.011,0 -6.936,3.009 -6.936,7.8 0,4.792 2.925,7.799 6.797,7.799 3.844,0 6.713,-2.952 6.713,-7.799 l 0,-0.947 -10.307,0 c 0.084,-2.396 1.337,-4.04 3.677,-4.04 2.256,0 3.259,1.505 3.9,2.508 l 2.284,-1.867 z" /></g><g
           transform="translate(226.4568,68.0299)"
           id="g80"><path
             id="path82"
             style="fill:#000000;fill-opacity:1;fill-rule:nonzero;stroke:none"
             d="m 0,0 c 0,3.204 -1.532,4.931 -3.677,4.931 -2.145,0 -3.705,-1.672 -3.705,-4.931 0,-3.287 1.532,-4.931 3.705,-4.931 C -1.532,-4.931 0,-3.204 0,0 m -10.53,0 c 0,5.042 3.203,7.8 6.853,7.8 3.621,0 6.797,-2.758 6.797,-7.8 0,-5.042 -2.981,-7.8 -6.797,-7.8 -3.844,0 -6.853,2.758 -6.853,7.8" /></g><g
           transform="translate(233.3367,72.6817)"
           id="g84"><path
             id="path86"
             style="fill:#000000;fill-opacity:1;fill-rule:nonzero;stroke:none"
             d="m 0,0 -2.229,0 0,2.73 2.285,0 0,2.146 c 0,2.646 1.448,3.426 3.649,3.426 l 2.73,0 0,-2.814 -2.089,0 C 3.37,5.488 3.064,5.182 3.064,4.151 l 0,-1.421 3.705,0 0,-2.73 -3.621,0 0,-12.034 -3.148,0 L 0,0 Z" /></g><g
           transform="translate(251.08,67.9741)"
           id="g88"><path
             id="path90"
             style="fill:#000000;fill-opacity:1;fill-rule:nonzero;stroke:none"
             d="m 0,0 c 0.474,-3.119 1.421,-4.708 4.401,-4.708 2.397,0 3.789,1.031 3.789,2.647 0,1.587 -0.668,2.228 -5.154,3.622 -4.178,1.309 -5.71,3.092 -5.71,5.626 0,2.814 2.285,5.404 6.407,5.404 3.454,0 6.463,-1.642 7.103,-5.348 L 7.633,6.463 C 7.16,8.19 6.213,9.528 3.733,9.528 1.532,9.528 0.558,8.496 0.558,7.215 c 0,-1.253 0.64,-1.699 4.929,-3.147 4.709,-1.588 5.934,-3.065 5.934,-5.934 0,-3.287 -2.618,-5.878 -7.047,-5.878 -4.457,0 -7.243,2.34 -7.828,6.993 L 0,0 Z" /></g><g
           transform="translate(275.0357,68.0299)"
           id="g92"><path
             id="path94"
             style="fill:#000000;fill-opacity:1;fill-rule:nonzero;stroke:none"
             d="m 0,0 c 0,3.204 -1.532,4.931 -3.677,4.931 -2.145,0 -3.705,-1.672 -3.705,-4.931 0,-3.287 1.533,-4.931 3.705,-4.931 C -1.532,-4.931 0,-3.204 0,0 m -10.53,0 c 0,5.042 3.204,7.8 6.853,7.8 3.621,0 6.797,-2.758 6.797,-7.8 0,-5.042 -2.98,-7.8 -6.797,-7.8 -3.844,0 -6.853,2.758 -6.853,7.8" /></g><g
           transform="translate(281.2189,75.4117)"
           id="g96"><path
             id="path98"
             style="fill:#000000;fill-opacity:1;fill-rule:nonzero;stroke:none"
             d="m 0,0 3.176,0 0,-9.192 c 0,-2.201 0.752,-2.953 2.59,-2.953 1.783,0 3.037,0.947 3.037,3.176 l 0,8.969 3.176,0 0,-14.764 -3.065,0 0,1.421 -0.056,0 C 8.525,-13.816 7.354,-15.182 5.042,-15.182 1.588,-15.182 0,-13.008 0,-9.554 L 0,0 Z" /></g><g
           transform="translate(298.0717,72.6817)"
           id="g100"><path
             id="path102"
             style="fill:#000000;fill-opacity:1;fill-rule:nonzero;stroke:none"
             d="m 0,0 -2.229,0 0,2.73 2.312,0 0,3.621 3.009,0 0,-3.621 3.705,0 0,-2.73 -3.678,0 0,-6.768 c 0,-1.533 0.307,-2.201 1.922,-2.201 l 1.171,0 0,-3.065 -1.421,0 C 1.086,-12.034 0,-10.362 0,-7.103 L 0,0 Z" /></g><g
           transform="translate(307.8479,80.9834)"
           id="g104"><path
             id="path106"
             style="fill:#000000;fill-opacity:1;fill-rule:nonzero;stroke:none"
             d="m 0,0 3.176,0 0,-7.02 0.056,0 c 0.641,0.975 2.368,1.866 3.955,1.866 3.121,0 5.321,-2.005 5.321,-5.403 l 0,-9.778 -3.148,0 0,9.025 c 0,1.839 -1.003,3.231 -3.036,3.231 -1.923,0 -3.148,-1.28 -3.148,-2.98 l 0,-9.276 -3.176,0 L 0,0 Z" /></g><g
           transform="translate(333.6981,69.4791)"
           id="g108"><path
             id="path110"
             style="fill:#000000;fill-opacity:1;fill-rule:nonzero;stroke:none"
             d="M 0,0 C -0.112,1.978 -1.253,3.537 -3.621,3.537 -5.905,3.537 -7.076,1.699 -7.187,0 L 0,0 Z m 2.647,-5.795 c -1.142,-1.838 -3.009,-3.454 -6.129,-3.454 -4.011,0 -6.936,3.009 -6.936,7.8 0,4.792 2.925,7.799 6.797,7.799 3.844,0 6.713,-2.952 6.713,-7.799 l 0,-0.947 -10.307,0 c 0.084,-2.396 1.337,-4.04 3.678,-4.04 2.256,0 3.259,1.505 3.899,2.507 l 2.285,-1.866 z" /></g><g
           transform="translate(342.0819,64.7705)"
           id="g112"><path
             id="path114"
             style="fill:#000000;fill-opacity:1;fill-rule:nonzero;stroke:none"
             d="m 0,0 c 0,-1.198 0.836,-1.783 2.424,-1.783 2.535,0 3.593,1.226 3.593,2.48 l 0,2.953 -0.056,0 C 5.795,3.288 5.516,2.897 2.591,2.117 0.335,1.561 0,0.808 0,0 m 6.379,-2.646 -0.056,0 C 6.184,-2.869 5.014,-4.54 2.145,-4.54 c -3.677,0 -5.209,2.089 -5.209,4.318 0,2.59 1.448,3.732 5.014,4.596 3.204,0.808 3.955,1.142 3.955,2.201 0,0.947 -0.807,1.755 -2.701,1.755 -2.257,0 -2.925,-1.282 -3.287,-2.591 l -2.703,1.03 c 0.585,2.341 2.48,4.29 5.906,4.29 3.287,0 5.962,-1.56 5.962,-5.626 l 0,-9.555 -2.703,0 0,1.476 z" /></g><g
           transform="translate(356.6225,66.2754)"
           id="g116"><path
             id="path118"
             style="fill:#000000;fill-opacity:1;fill-rule:nonzero;stroke:none"
             d="m 0,0 c 0.25,-2.173 1.477,-3.371 3.566,-3.371 2.006,0 3.119,0.753 3.119,1.894 0,1.171 -0.919,1.449 -4.067,2.34 -3.342,0.947 -4.958,2.089 -4.958,4.318 0,2.228 1.894,4.373 5.432,4.373 3.537,0 5.376,-1.838 6.045,-4.317 L 6.463,4.457 C 5.989,5.85 5.125,6.908 3.092,6.908 1.421,6.908 0.557,6.128 0.557,5.32 0.557,4.346 1.17,4.095 4.902,3.036 8.635,1.978 9.555,0.613 9.555,-1.532 c 0,-2.062 -1.7,-4.513 -5.878,-4.513 -4.345,0 -6.212,2.674 -6.574,5.348 L 0,0 Z" /></g><g
           transform="translate(369.8539,72.6817)"
           id="g120"><path
             id="path122"
             style="fill:#000000;fill-opacity:1;fill-rule:nonzero;stroke:none"
             d="m 0,0 -2.229,0 0,2.73 2.312,0 0,3.621 3.009,0 0,-3.621 3.705,0 0,-2.73 -3.678,0 0,-6.768 c 0,-1.533 0.307,-2.201 1.922,-2.201 l 1.171,0 0,-3.065 -1.421,0 C 1.086,-12.034 0,-10.362 0,-7.103 L 0,0 Z" /></g><g
           transform="translate(386.5383,80.1477)"
           id="g124"><path
             id="path126"
             style="fill:#000000;fill-opacity:1;fill-rule:nonzero;stroke:none"
             d="m 0,0 3.427,0 7.744,-13.789 0.055,0 0,13.789 3.287,0 0,-19.5 -3.342,0 -7.828,13.789 -0.056,0 0,-13.789 L 0,-19.5 0,0 Z" /></g><g
           transform="translate(414.9238,68.0299)"
           id="g128"><path
             id="path130"
             style="fill:#000000;fill-opacity:1;fill-rule:nonzero;stroke:none"
             d="m 0,0 c 0,3.204 -1.532,4.931 -3.677,4.931 -2.145,0 -3.706,-1.672 -3.706,-4.931 0,-3.287 1.533,-4.931 3.706,-4.931 C -1.532,-4.931 0,-3.204 0,0 m -10.53,0 c 0,5.042 3.203,7.8 6.853,7.8 3.621,0 6.796,-2.758 6.796,-7.8 0,-5.042 -2.98,-7.8 -6.796,-7.8 -3.845,0 -6.853,2.758 -6.853,7.8" /></g><g
           transform="translate(421.1618,75.4117)"
           id="g132"><path
             id="path134"
             style="fill:#000000;fill-opacity:1;fill-rule:nonzero;stroke:none"
             d="m 0,0 3.009,0 0,-1.56 0.056,0 C 3.65,-0.418 4.875,0.279 6.129,0.279 6.658,0.279 7.104,0.14 7.439,0 L 6.937,-3.092 c -0.307,0.084 -0.669,0.223 -1.171,0.223 -1.671,0 -2.59,-1.114 -2.59,-3.677 l 0,-8.218 -3.176,0 L 0,0 Z" /></g><g
           transform="translate(430.1317,75.4117)"
           id="g136"><path
             id="path138"
             style="fill:#000000;fill-opacity:1;fill-rule:nonzero;stroke:none"
             d="m 0,0 3.12,0 2.09,-10.279 0.055,0 3.51,10.279 2.869,0 3.287,-10.251 0.056,0 2.368,10.251 3.064,0 -3.538,-14.764 -3.064,0 -3.594,11.088 -0.055,0 -3.872,-11.088 -3.037,0 L 0,0 Z" /></g><g
           transform="translate(455.2852,64.7705)"
           id="g140"><path
             id="path142"
             style="fill:#000000;fill-opacity:1;fill-rule:nonzero;stroke:none"
             d="m 0,0 c 0,-1.198 0.836,-1.783 2.424,-1.783 2.535,0 3.593,1.226 3.593,2.48 l 0,2.953 -0.056,0 C 5.795,3.288 5.516,2.897 2.591,2.117 0.335,1.561 0,0.808 0,0 m 6.379,-2.646 -0.056,0 C 6.184,-2.869 5.014,-4.54 2.145,-4.54 c -3.677,0 -5.209,2.089 -5.209,4.318 0,2.59 1.448,3.732 5.014,4.596 3.204,0.808 3.955,1.142 3.955,2.201 0,0.947 -0.807,1.755 -2.701,1.755 -2.257,0 -2.925,-1.282 -3.287,-2.591 l -2.703,1.03 c 0.585,2.341 2.48,4.29 5.906,4.29 3.287,0 5.961,-1.56 5.961,-5.626 l 0,-9.555 -2.702,0 0,1.476 z" /></g><g
           transform="translate(471.497,61.3164)"
           id="g144"><path
             id="path146"
             style="fill:#000000;fill-opacity:1;fill-rule:nonzero;stroke:none"
             d="m 0,0 -5.739,14.095 3.343,0 3.872,-10.167 0.055,0 3.872,10.167 3.288,0 -8.413,-21.031 -3.064,0 L 0,0 Z" /></g><g
           transform="translate(215.9253,43.923)"
           id="g148"><path
             id="path150"
             style="fill:none;stroke:#231f20;stroke-width:1.2;stroke-linecap:butt;stroke-linejoin:miter;stroke-miterlimit:10;stroke-dasharray:none;stroke-opacity:1"
             d="M 0,0 264.261,0" /></g><g
           transform="translate(197.1455,112.1809)"
           id="g152"><path
             id="path154"
             style="fill:#231f20;fill-opacity:1;fill-rule:nonzero;stroke:none"
             d="m 0,0 -13.369,0.002 0,-49.13 -36.849,48.55 c -6.238,0.816 -11.556,1.783 -21.322,1.783 -13.66,0 -21.66,-7.059 -23.304,-15.762 -1.567,-8.294 0.58,-15.568 10.153,-20.016 10.792,-5.014 22.17,-8.896 22.17,-17.518 0,-6.348 -4.578,-13.884 -18.974,-13.884 -8.926,0 -14.545,3.398 -17.744,9.223 -2.422,4.411 -2.87,8.536 -2.87,14.153 l 0,42.601 -11.427,0 0,-31.201 -25.292,0 0,-4.111 25.292,0 0,-4.339 c 0,-9.791 1.287,-15.037 7.385,-21.254 5.587,-5.697 14.182,-8.758 24.563,-8.758 18.945,0 29.001,12.556 29.001,21.744 0,6.527 -2.997,12.281 -15.181,18.179 -11.173,5.409 -19.661,7.725 -18.188,17.251 1.121,7.249 7.43,10.586 14.61,10.404 8.79,-0.222 13.054,-3.893 14.403,-8.237 l 0,-21.621 c 1.729,-1.293 3.078,-2.599 4.112,-3.937 l 0,19.909 40.342,-52.889 3.234,0 0,65.386 9.256,0 L 0,0 Z" /></g><path
           id="path156"
           style="fill:#231f20;fill-opacity:1;fill-rule:nonzero;stroke:none"
           d="m 42.52,43.618 11.525,0 0,68.565 -11.525,0 0,-68.565 z" /></g></g></g></svg>