<?xml version="1.0" encoding="UTF-8" standalone="no"?>
<svg
   xmlns:dc="http://purl.org/dc/elements/1.1/"
   xmlns:cc="http://creativecommons.org/ns#"
   xmlns:rdf="http://www.w3.org/1999/02/22-rdf-syntax-ns#"
   xmlns:svg="http://www.w3.org/2000/svg"
   xmlns="http://www.w3.org/2000/svg"
   xmlns:sodipodi="http://sodipodi.sourceforge.net/DTD/sodipodi-0.dtd"
   xmlns:inkscape="http://www.inkscape.org/namespaces/inkscape"
   viewBox="0 0 503.8778 148.58"
   height="148.58"
   width="503.8777"
   xml:space="preserve"
   version="1.1"
   id="svg2"
   inkscape:version="0.91 r13725"
   sodipodi:docname="HSN_logo_neg.svg"><sodipodi:namedview
     pagecolor="#ffffff"
     bordercolor="#666666"
     borderopacity="1"
     objecttolerance="10"
     gridtolerance="10"
     guidetolerance="10"
     inkscape:pageopacity="0"
     inkscape:pageshadow="2"
     inkscape:window-width="640"
     inkscape:window-height="480"
     id="namedview3914"
     showgrid="false"
     fit-margin-top="30"
     fit-margin-left="30"
     fit-margin-right="30"
     fit-margin-bottom="30"
     inkscape:zoom="0.567091"
     inkscape:cx="251.9381"
     inkscape:cy="74.2896"
     inkscape:window-x="0"
     inkscape:window-y="24"
     inkscape:window-maximized="0"
     inkscape:current-layer="svg2" /><metadata
     id="metadata8"><rdf:RDF><cc:Work
         rdf:about=""><dc:format>image/svg+xml</dc:format><dc:type
           rdf:resource="http://purl.org/dc/dcmitype/StillImage" /><dc:title></dc:title></cc:Work></rdf:RDF></metadata><defs
     id="defs6"><clipPath
       id="clipPath20"
       clipPathUnits="userSpaceOnUse"><path
         id="path22"
         d="m 0,155.905 440.141,0 L 440.141,0 0,0 0,155.905 Z"
         inkscape:connector-curvature="0" /></clipPath></defs><g
     transform="matrix(1.25,0,0,-1.25,-23.15,171.731)"
     id="g10"><g
       transform="translate(215.9242,112.1758)"
       id="g12"><path
         id="path14"
         style="fill:#ffffff;fill-opacity:1;fill-rule:nonzero;stroke:none"
         d="m 0,0 3.286,0 0,-8.02 7.352,0 0,8.02 3.286,0 0,-19.493 -3.286,0 0,8.633 -7.352,0 0,-8.633 -3.286,0 L 0,0 Z"
         inkscape:connector-curvature="0" /></g><g
       id="g16"><g
         clip-path="url(#clipPath20)"
         id="g18"><g
           transform="translate(237.7056,95.9966)"
           id="g24"><path
             id="path26"
             style="fill:#ffffff;fill-opacity:1;fill-rule:nonzero;stroke:none"
             d="m 0,0 c 0.613,-0.585 1.42,-0.863 2.339,-0.863 2.144,0 3.677,1.726 3.677,4.928 0,1.17 -0.224,2.117 -0.614,2.869 L 0,0 Z M 4.595,8.104 C 3.982,8.688 3.202,8.995 2.339,8.995 c -2.088,0 -3.703,-1.671 -3.703,-4.93 0,-1.197 0.194,-2.171 0.556,-2.923 L 4.595,8.104 Z M -2.784,-1.42 c -1.087,1.309 -1.727,3.147 -1.727,5.485 0,5.041 3.202,7.798 6.85,7.798 1.504,0 2.925,-0.502 4.094,-1.421 L 7.491,11.835 8.549,10.944 7.407,9.496 C 8.466,8.187 9.134,6.349 9.134,4.065 c 0,-5.04 -2.98,-7.796 -6.795,-7.796 -1.587,0 -3.035,0.473 -4.177,1.364 l -1.03,-1.337 -1.059,0.864 1.143,1.42 z"
             inkscape:connector-curvature="0" /></g><g
           transform="translate(259.8488,101.7886)"
           id="g28"><path
             id="path30"
             style="fill:#ffffff;fill-opacity:1;fill-rule:nonzero;stroke:none"
             d="m 0,0 c 0,1.643 -1.253,3.203 -3.398,3.203 -2.311,0 -3.926,-1.699 -3.926,-4.93 0,-3.23 1.588,-4.928 3.926,-4.928 2.061,0 3.398,1.42 3.398,3.091 L 0,0 Z m -6.962,-10.442 c 0.725,-1.56 1.671,-2.562 3.648,-2.562 1.95,0 3.314,1.03 3.314,3.369 l 0,1.894 -0.056,0 c -0.585,-0.864 -1.949,-1.782 -3.815,-1.782 -3.703,0 -6.627,2.84 -6.627,7.796 0,4.957 3.146,7.798 6.571,7.798 1.978,0 3.259,-0.891 3.983,-1.838 l 0.055,0 0,1.42 3.064,0 0,-14.842 c 0,-4.4 -2.757,-6.6 -6.489,-6.6 -3.203,0 -5.235,1.643 -6.098,3.787 l 2.45,1.56 z"
             inkscape:connector-curvature="0" /></g><g
           transform="translate(268.932,98.3076)"
           id="g32"><path
             id="path34"
             style="fill:#ffffff;fill-opacity:1;fill-rule:nonzero;stroke:none"
             d="m 0,0 c 0.25,-2.172 1.476,-3.369 3.565,-3.369 2.004,0 3.118,0.751 3.118,1.893 0,1.17 -0.919,1.448 -4.066,2.339 -3.342,0.947 -4.957,2.089 -4.957,4.317 0,2.228 1.894,4.372 5.431,4.372 3.536,0 5.374,-1.838 6.043,-4.317 L 6.46,4.456 C 5.987,5.848 5.124,6.906 3.091,6.906 1.42,6.906 0.557,6.126 0.557,5.319 0.557,4.344 1.169,4.094 4.901,3.036 8.633,1.978 9.552,0.613 9.552,-1.531 c 0,-2.061 -1.699,-4.511 -5.876,-4.511 -4.345,0 -6.21,2.673 -6.573,5.346 L 0,0 Z"
             inkscape:connector-curvature="0" /></g><g
           transform="translate(281.4109,113.0112)"
           id="g36"><path
             id="path38"
             style="fill:#ffffff;fill-opacity:1;fill-rule:nonzero;stroke:none"
             d="m 0,0 3.174,0 0,-11.891 0.056,0 5.653,6.322 4.038,0 -5.347,-5.932 5.904,-8.828 -3.592,0 -4.679,6.99 -0.056,0 -1.977,-2.172 0,-4.818 -3.174,0 L 0,0 Z"
             inkscape:connector-curvature="0" /></g><g
           transform="translate(305.977,100.062)"
           id="g40"><path
             id="path42"
             style="fill:#ffffff;fill-opacity:1;fill-rule:nonzero;stroke:none"
             d="M 0,0 C 0,3.203 -1.532,4.929 -3.677,4.929 -5.82,4.929 -7.38,3.258 -7.38,0 c 0,-3.286 1.531,-4.929 3.703,-4.929 C -1.532,-4.929 0,-3.202 0,0 m -10.527,0 c 0,5.041 3.203,7.797 6.85,7.797 3.62,0 6.795,-2.756 6.795,-7.797 0,-5.04 -2.979,-7.797 -6.795,-7.797 -3.843,0 -6.85,2.757 -6.85,7.797"
             inkscape:connector-curvature="0" /></g><path
           id="path44"
           style="fill:#ffffff;fill-opacity:1;fill-rule:nonzero;stroke:none"
           d="m 312.302,113.011 3.286,0 0,-20.329 -3.286,0 0,20.329 z"
           inkscape:connector-curvature="0" /><g
           transform="translate(329.2071,101.5102)"
           id="g46"><path
             id="path48"
             style="fill:#ffffff;fill-opacity:1;fill-rule:nonzero;stroke:none"
             d="M 0,0 C -0.111,1.977 -1.253,3.537 -3.62,3.537 -5.904,3.537 -7.073,1.699 -7.185,0 L 0,0 Z M 2.646,-5.792 C 1.504,-7.63 -0.361,-9.245 -3.48,-9.245 c -4.01,0 -6.934,3.007 -6.934,7.797 0,4.79 2.924,7.797 6.794,7.797 3.844,0 6.712,-2.952 6.712,-7.797 l 0,-0.947 -10.304,0 c 0.083,-2.395 1.337,-4.038 3.676,-4.038 2.256,0 3.258,1.504 3.898,2.506 l 2.284,-1.865 z"
             inkscape:connector-curvature="0" /></g><g
           transform="translate(335.5052,107.4419)"
           id="g50"><path
             id="path52"
             style="fill:#ffffff;fill-opacity:1;fill-rule:nonzero;stroke:none"
             d="m 0,0 3.063,0 0,-1.42 0.055,0 c 0.78,1.002 2.312,1.837 3.983,1.837 3.23,0 5.264,-2.032 5.264,-5.513 l 0,-9.663 -3.148,0 0,8.827 c 0,2.172 -0.779,3.426 -2.868,3.426 -1.949,0 -3.175,-1.198 -3.175,-3.092 l 0,-9.161 -3.174,0 L 0,0 Z"
             inkscape:connector-curvature="0" /></g><path
           id="path54"
           style="fill:#ffffff;fill-opacity:1;fill-rule:nonzero;stroke:none"
           d="m 215.924,75.409 3.174,0 0,-14.759 -3.174,0 0,14.759 z m -0.056,5.57 3.287,0 0,-3.146 -3.287,0 0,3.146 z"
           inkscape:connector-curvature="0" /><g
           transform="translate(230.2689,67.9746)"
           id="g56"><path
             id="path58"
             style="fill:#ffffff;fill-opacity:1;fill-rule:nonzero;stroke:none"
             d="m 0,0 c 0.473,-3.119 1.42,-4.707 4.4,-4.707 2.394,0 3.787,1.031 3.787,2.645 0,1.588 -0.668,2.229 -5.152,3.621 -4.178,1.309 -5.708,3.091 -5.708,5.626 0,2.812 2.282,5.402 6.405,5.402 3.453,0 6.46,-1.644 7.1,-5.347 L 7.63,6.46 C 7.156,8.186 6.21,9.523 3.732,9.523 c -2.201,0 -3.175,-1.03 -3.175,-2.311 0,-1.253 0.64,-1.698 4.929,-3.147 4.706,-1.588 5.931,-3.063 5.931,-5.931 0,-3.286 -2.617,-5.876 -7.045,-5.876 -4.456,0 -7.241,2.34 -7.825,6.99 L 0,0 Z"
             inkscape:connector-curvature="0" /></g><g
           transform="translate(248.4285,63.9639)"
           id="g60"><path
             id="path62"
             style="fill:#ffffff;fill-opacity:1;fill-rule:nonzero;stroke:none"
             d="m 0,0 c 0.613,-0.584 1.42,-0.863 2.339,-0.863 2.145,0 3.677,1.726 3.677,4.929 0,1.169 -0.224,2.117 -0.614,2.869 L 0,0 Z M 4.595,8.104 C 3.983,8.688 3.202,8.995 2.339,8.995 c -2.088,0 -3.703,-1.671 -3.703,-4.929 0,-1.198 0.194,-2.172 0.556,-2.923 L 4.595,8.104 Z M -2.784,-1.42 c -1.087,1.309 -1.727,3.147 -1.727,5.486 0,5.04 3.202,7.797 6.85,7.797 1.504,0 2.925,-0.501 4.094,-1.42 L 7.492,11.836 8.549,10.944 7.408,9.496 C 8.466,8.188 9.134,6.35 9.134,4.066 c 0,-5.041 -2.98,-7.797 -6.795,-7.797 -1.587,0 -3.035,0.473 -4.177,1.365 l -1.03,-1.337 -1.059,0.863 1.143,1.42 z"
             inkscape:connector-curvature="0" /></g><g
           transform="translate(260.9093,75.4092)"
           id="g64"><path
             id="path66"
             style="fill:#ffffff;fill-opacity:1;fill-rule:nonzero;stroke:none"
             d="m 0,0 3.007,0 0,-1.56 0.056,0 C 3.648,-0.417 4.873,0.278 6.126,0.278 6.655,0.278 7.101,0.14 7.435,0 L 6.934,-3.091 c -0.307,0.084 -0.668,0.223 -1.17,0.223 -1.671,0 -2.59,-1.114 -2.59,-3.676 l 0,-8.215 -3.174,0 L 0,0 Z"
             inkscape:connector-curvature="0" /></g><g
           transform="translate(273.9722,63.9639)"
           id="g68"><path
             id="path70"
             style="fill:#ffffff;fill-opacity:1;fill-rule:nonzero;stroke:none"
             d="m 0,0 c 0.613,-0.584 1.42,-0.863 2.339,-0.863 2.144,0 3.677,1.726 3.677,4.929 0,1.169 -0.224,2.117 -0.614,2.869 L 0,0 Z M 4.595,8.104 C 3.982,8.688 3.202,8.995 2.339,8.995 c -2.088,0 -3.703,-1.671 -3.703,-4.929 0,-1.198 0.194,-2.172 0.556,-2.923 L 4.595,8.104 Z M -2.784,-1.42 c -1.087,1.309 -1.727,3.147 -1.727,5.486 0,5.04 3.202,7.797 6.85,7.797 1.504,0 2.925,-0.501 4.094,-1.42 L 7.491,11.836 8.549,10.944 7.407,9.496 C 8.466,8.188 9.134,6.35 9.134,4.066 c 0,-5.041 -2.98,-7.797 -6.795,-7.797 -1.587,0 -3.035,0.473 -4.177,1.365 l -1.03,-1.337 -1.059,0.863 1.143,1.42 z"
             inkscape:connector-curvature="0" /></g><g
           transform="translate(288.1796,66.2754)"
           id="g72"><path
             id="path74"
             style="fill:#ffffff;fill-opacity:1;fill-rule:nonzero;stroke:none"
             d="m 0,0 c 0.25,-2.172 1.476,-3.369 3.565,-3.369 2.004,0 3.118,0.752 3.118,1.893 0,1.169 -0.919,1.449 -4.066,2.339 -3.342,0.948 -4.957,2.089 -4.957,4.317 0,2.227 1.894,4.372 5.431,4.372 3.536,0 5.374,-1.838 6.043,-4.317 L 6.46,4.456 C 5.987,5.848 5.124,6.906 3.091,6.906 1.42,6.906 0.557,6.127 0.557,5.319 0.557,4.345 1.169,4.094 4.901,3.035 8.633,1.977 9.552,0.612 9.552,-1.531 c 0,-2.061 -1.699,-4.512 -5.876,-4.512 -4.345,0 -6.21,2.674 -6.573,5.347 L 0,0 Z"
             inkscape:connector-curvature="0" /></g><g
           transform="translate(301.3548,72.6806)"
           id="g76"><path
             id="path78"
             style="fill:#ffffff;fill-opacity:1;fill-rule:nonzero;stroke:none"
             d="m 0,0 -2.229,0 0,2.729 2.312,0 0,3.62 3.008,0 0,-3.62 3.703,0 0,-2.729 -3.676,0 0,-6.768 c 0,-1.531 0.307,-2.199 1.922,-2.199 l 1.17,0 0,-3.063 -1.421,0 C 1.086,-12.03 0,-10.359 0,-7.102 L 0,0 Z"
             inkscape:connector-curvature="0" /></g><path
           id="path80"
           style="fill:#ffffff;fill-opacity:1;fill-rule:nonzero;stroke:none"
           d="m 311.369,71.177 8.248,0 0,-2.534 -8.248,0 0,2.534 z"
           inkscape:connector-curvature="0" /><g
           transform="translate(324.1152,80.1435)"
           id="g82"><path
             id="path84"
             style="fill:#ffffff;fill-opacity:1;fill-rule:nonzero;stroke:none"
             d="m 0,0 3.425,0 7.742,-13.784 0.056,0 0,13.784 3.285,0 0,-19.493 -3.341,0 -7.825,13.784 -0.056,0 0,-13.784 -3.286,0 L 0,0 Z"
             inkscape:connector-curvature="0" /></g><g
           transform="translate(352.6365,68.0303)"
           id="g86"><path
             id="path88"
             style="fill:#ffffff;fill-opacity:1;fill-rule:nonzero;stroke:none"
             d="M 0,0 C 0,3.202 -1.532,4.929 -3.677,4.929 -5.82,4.929 -7.38,3.258 -7.38,0 c 0,-3.286 1.531,-4.93 3.703,-4.93 C -1.532,-4.93 0,-3.203 0,0 m -10.527,0 c 0,5.04 3.203,7.797 6.85,7.797 3.62,0 6.795,-2.757 6.795,-7.797 0,-5.041 -2.979,-7.798 -6.795,-7.798 -3.843,0 -6.85,2.757 -6.85,7.798"
             inkscape:connector-curvature="0" /></g><g
           transform="translate(358.9619,75.4092)"
           id="g90"><path
             id="path92"
             style="fill:#ffffff;fill-opacity:1;fill-rule:nonzero;stroke:none"
             d="m 0,0 3.007,0 0,-1.56 0.056,0 C 3.648,-0.417 4.873,0.278 6.126,0.278 6.655,0.278 7.101,0.14 7.435,0 L 6.934,-3.091 c -0.307,0.084 -0.668,0.223 -1.17,0.223 -1.671,0 -2.59,-1.114 -2.59,-3.676 l 0,-8.215 -3.174,0 L 0,0 Z"
             inkscape:connector-curvature="0" /></g><g
           transform="translate(377.8725,69.7568)"
           id="g94"><path
             id="path96"
             style="fill:#ffffff;fill-opacity:1;fill-rule:nonzero;stroke:none"
             d="m 0,0 c 0,1.643 -1.253,3.202 -3.397,3.202 -2.312,0 -3.927,-1.699 -3.927,-4.929 0,-3.23 1.587,-4.929 3.927,-4.929 2.06,0 3.397,1.421 3.397,3.092 L 0,0 Z m -6.962,-10.443 c 0.725,-1.56 1.671,-2.562 3.648,-2.562 1.95,0 3.314,1.03 3.314,3.369 l 0,1.894 -0.056,0 c -0.585,-0.863 -1.949,-1.782 -3.815,-1.782 -3.703,0 -6.627,2.84 -6.627,7.797 0,4.956 3.146,7.797 6.571,7.797 1.978,0 3.259,-0.89 3.983,-1.838 l 0.055,0 0,1.42 3.064,0 0,-14.842 c 0,-4.4 -2.757,-6.6 -6.489,-6.6 -3.203,0 -5.235,1.644 -6.098,3.787 l 2.45,1.56 z"
             inkscape:connector-curvature="0" /></g><g
           transform="translate(394.5302,69.4775)"
           id="g98"><path
             id="path100"
             style="fill:#ffffff;fill-opacity:1;fill-rule:nonzero;stroke:none"
             d="M 0,0 C -0.111,1.978 -1.253,3.537 -3.62,3.537 -5.904,3.537 -7.072,1.699 -7.185,0 L 0,0 Z M 2.646,-5.792 C 1.504,-7.63 -0.361,-9.245 -3.48,-9.245 c -4.01,0 -6.934,3.008 -6.934,7.798 0,4.789 2.924,7.797 6.794,7.797 3.844,0 6.712,-2.953 6.712,-7.797 l 0,-0.948 -10.304,0 c 0.083,-2.394 1.337,-4.038 3.676,-4.038 2.256,0 3.258,1.504 3.898,2.507 l 2.284,-1.866 z"
             inkscape:connector-curvature="0" /></g><path
           id="path102"
           style="fill:#ffffff;fill-opacity:1;fill-rule:nonzero;stroke:none"
           d="m 397.513,43.328 -181.589,0 0,1.199 181.589,0 0,-1.199 z"
           inkscape:connector-curvature="0" /><g
           transform="translate(197.1455,112.1798)"
           id="g104"><path
             id="path106"
             style="fill:#ffffff;fill-opacity:1;fill-rule:nonzero;stroke:none"
             d="m 0,0 -13.369,0.002 0,-49.129 -36.849,48.549 c -6.238,0.816 -11.556,1.783 -21.322,1.783 -13.66,0 -21.66,-7.059 -23.304,-15.761 -1.567,-8.295 0.58,-15.568 10.153,-20.016 10.792,-5.014 22.17,-8.896 22.17,-17.518 0,-6.347 -4.578,-13.883 -18.974,-13.883 -8.926,0 -14.545,3.397 -17.744,9.222 -2.422,4.412 -2.87,8.536 -2.87,14.153 l 0,42.6 -11.427,0 0,-31.2 -25.292,0 0,-4.112 25.292,0 0,-4.338 c 0,-9.791 1.288,-15.036 7.385,-21.253 5.587,-5.698 14.182,-8.758 24.563,-8.758 18.945,0 29.001,12.555 29.001,21.743 0,6.527 -2.997,12.28 -15.181,18.179 -11.173,5.409 -19.661,7.725 -18.188,17.251 1.121,7.249 7.43,10.584 14.61,10.403 8.791,-0.222 13.054,-3.893 14.403,-8.237 l 0,-21.62 c 1.729,-1.293 3.078,-2.599 4.112,-3.937 l 0,19.909 40.342,-52.888 3.234,0 0,65.384 9.256,0 L 0,0 Z"
             inkscape:connector-curvature="0" /></g><path
           id="path108"
           style="fill:#ffffff;fill-opacity:1;fill-rule:nonzero;stroke:none"
           d="m 42.52,43.618 11.525,0 0,68.563 -11.525,0 0,-68.563 z"
           inkscape:connector-curvature="0" /></g></g></g></svg>