<?xml version="1.0" encoding="UTF-8" standalone="no"?>
<svg
   xmlns:dc="http://purl.org/dc/elements/1.1/"
   xmlns:cc="http://creativecommons.org/ns#"
   xmlns:rdf="http://www.w3.org/1999/02/22-rdf-syntax-ns#"
   xmlns:svg="http://www.w3.org/2000/svg"
   xmlns="http://www.w3.org/2000/svg"
   xmlns:sodipodi="http://sodipodi.sourceforge.net/DTD/sodipodi-0.dtd"
   xmlns:inkscape="http://www.inkscape.org/namespaces/inkscape"
   id="svg2"
   version="1.1"
   xml:space="preserve"
   width="181.9212"
   height="128.58"
   viewBox="0 0 181.9212 128.58"
   inkscape:version="0.91 r13725"
   sodipodi:docname="USN_logotype.svg"><sodipodi:namedview
     pagecolor="#ffffff"
     bordercolor="#666666"
     borderopacity="1"
     objecttolerance="10"
     gridtolerance="10"
     guidetolerance="10"
     inkscape:pageopacity="0"
     inkscape:pageshadow="2"
     inkscape:window-width="1920"
     inkscape:window-height="1176"
     id="namedview8"
     showgrid="false"
     fit-margin-top="20"
     fit-margin-left="20"
     fit-margin-right="20"
     fit-margin-bottom="20"
     inkscape:zoom="2.160814"
     inkscape:cx="22.98588"
     inkscape:cy="143.8651"
     inkscape:window-x="0"
     inkscape:window-y="24"
     inkscape:window-maximized="1"
     inkscape:current-layer="svg2" /><metadata
     id="metadata8"><rdf:RDF><cc:Work
         rdf:about=""><dc:format>image/svg+xml</dc:format><dc:type
           rdf:resource="http://purl.org/dc/dcmitype/StillImage" /><dc:title></dc:title></cc:Work></rdf:RDF></metadata><defs
     id="defs6"><clipPath
       clipPathUnits="userSpaceOnUse"
       id="clipPath16"><path
         d="m 0,155.905 231.024,0 L 231.024,0 0,0 0,155.905 Z"
         id="path18"
         inkscape:connector-curvature="0" /></clipPath></defs><path
     d="m 20,71.0662 c 0,12.2388 1.61,18.795 9.2313,26.5663 6.9837,7.1225 17.7275,10.9475 30.7037,10.9475 23.6812,0 36.2513,-15.6937 36.2513,-27.1788 C 96.1863,73.2425 92.44,66.05125 77.21,58.6775 63.2438,51.91625 52.6338,49.02125 54.475,37.11375 55.8763,28.0525 63.7625,23.88375 72.7375,24.11 83.7263,24.3875 89.055,28.97625 90.7412,34.40625 l 0,27.025 c 2.1613,1.61625 3.8476,3.24875 5.1401,4.92125 l 0,-24.88625 50.4275,66.10995 4.0425,0 0,-81.72995 11.5699,0 0,-4.34 0,-5e-4 -16.7113,-0.002 0,61.41125 L 99.1487,22.22875 C 91.3512,21.20875 84.7037,20 72.4962,20 c -17.075,0 -27.075,8.82375 -29.13,19.70125 -1.9587,10.36875 0.725,19.46 12.6913,25.02 C 69.5474,70.9887 83.77,75.8412 83.77,86.6187 c 0,7.9338 -5.7226,17.3538 -23.7176,17.3538 -11.1574,0 -18.1812,-4.2463 -22.1799,-11.5275 C 34.845,86.93 34.285,81.775 34.285,74.7538 l 0,-53.25005 -14.2838,0 0,39"
     style="fill:#231f20;fill-opacity:1;fill-rule:nonzero;stroke:none"
     id="path22"
     inkscape:connector-curvature="0" /></svg>