<?xml version="1.0" encoding="UTF-8" standalone="no"?>
<svg
   xmlns:dc="http://purl.org/dc/elements/1.1/"
   xmlns:cc="http://creativecommons.org/ns#"
   xmlns:rdf="http://www.w3.org/1999/02/22-rdf-syntax-ns#"
   xmlns:svg="http://www.w3.org/2000/svg"
   xmlns="http://www.w3.org/2000/svg"
   xmlns:sodipodi="http://sodipodi.sourceforge.net/DTD/sodipodi-0.dtd"
   xmlns:inkscape="http://www.inkscape.org/namespaces/inkscape"
   viewBox="0 0 495.72312 88.58249"
   height="88.582497"
   width="495.72314"
   xml:space="preserve"
   version="1.1"
   id="svg2"
   inkscape:version="0.91 r13725"
   sodipodi:docname="USN_logo_en.svg"><sodipodi:namedview
     pagecolor="#ffffff"
     bordercolor="#666666"
     borderopacity="1"
     objecttolerance="10"
     gridtolerance="10"
     guidetolerance="10"
     inkscape:pageopacity="0"
     inkscape:pageshadow="2"
     inkscape:window-width="1920"
     inkscape:window-height="1176"
     id="namedview3553"
     showgrid="false"
     fit-margin-top="0"
     fit-margin-left="0"
     fit-margin-right="0"
     fit-margin-bottom="0"
     inkscape:zoom="2.6866511"
     inkscape:cx="269.98412"
     inkscape:cy="-72.517584"
     inkscape:window-x="1920"
     inkscape:window-y="24"
     inkscape:window-maximized="1"
     inkscape:current-layer="svg2" /><metadata
     id="metadata8"><rdf:RDF><cc:Work
         rdf:about=""><dc:format>image/svg+xml</dc:format><dc:type
           rdf:resource="http://purl.org/dc/dcmitype/StillImage" /><dc:title></dc:title></cc:Work></rdf:RDF></metadata><defs
     id="defs6"><clipPath
       id="clipPath16"
       clipPathUnits="userSpaceOnUse"><path
         id="path18"
         d="m 0,155.906 525.543,0 L 525.543,0 0,0 0,155.906 Z"
         inkscape:connector-curvature="0" /></clipPath></defs><g
     id="g20"
     transform="matrix(1.25,0,0,-1.25,165.39713,1.5061212)"><path
       inkscape:connector-curvature="0"
       d="m 0,0 3.287,0 0,-12.981 c 0,-2.424 1.281,-3.9 3.9,-3.9 2.646,0 3.956,1.504 3.956,3.844 l 0,13.037 3.259,0 0,-13.148 c 0,-4.234 -2.897,-6.769 -7.215,-6.769 -4.318,0 -7.187,2.535 -7.187,6.769 L 0,0 Z"
       style="fill:#000000;fill-opacity:1;fill-rule:nonzero;stroke:none"
       id="path22" /></g><g
     id="g24"
     transform="matrix(1.25,0,0,-1.25,188.447,7.4259962)"><path
       inkscape:connector-curvature="0"
       d="m 0,0 3.065,0 0,-1.42 0.055,0 c 0.78,1.002 2.313,1.838 3.984,1.838 3.231,0 5.265,-2.034 5.265,-5.515 l 0,-9.667 -3.148,0 0,8.831 c 0,2.173 -0.78,3.426 -2.87,3.426 -1.95,0 -3.175,-1.198 -3.175,-3.092 l 0,-9.165 -3.176,0 L 0,0 Z"
       style="fill:#000000;fill-opacity:1;fill-rule:nonzero;stroke:none"
       id="path26" /></g><path
     inkscape:connector-curvature="0"
     d="m 209.02438,7.4261212 3.96875,0 0,18.4549998 -3.96875,0 0,-18.4549998 z m -0.0688,-6.96500001 4.10875,0 0,3.93500001 -4.10875,0 0,-3.93500001 z"
     style="fill:#000000;fill-opacity:1;fill-rule:nonzero;stroke:none"
     id="path28" /><g
     id="g30"
     transform="matrix(1.25,0,0,-1.25,215.9185,7.4259962)"><path
       inkscape:connector-curvature="0"
       d="m 0,0 3.288,0 3.955,-10.195 0.056,0 3.956,10.195 3.259,0 -5.933,-14.764 -2.647,0 L 0,0 Z"
       style="fill:#000000;fill-opacity:1;fill-rule:nonzero;stroke:none"
       id="path32" /></g><g
     id="g34"
     transform="matrix(1.25,0,0,-1.25,248.47463,14.841871)"><path
       inkscape:connector-curvature="0"
       d="M 0,0 C -0.112,1.978 -1.253,3.537 -3.621,3.537 -5.905,3.537 -7.076,1.699 -7.187,0 L 0,0 Z m 2.647,-5.795 c -1.142,-1.838 -3.009,-3.454 -6.129,-3.454 -4.011,0 -6.936,3.009 -6.936,7.8 0,4.792 2.925,7.799 6.797,7.799 3.844,0 6.713,-2.952 6.713,-7.799 l 0,-0.947 -10.307,0 c 0.084,-2.396 1.337,-4.04 3.678,-4.04 2.256,0 3.259,1.505 3.899,2.508 l 2.285,-1.867 z"
       style="fill:#000000;fill-opacity:1;fill-rule:nonzero;stroke:none"
       id="path36" /></g><g
     id="g38"
     transform="matrix(1.25,0,0,-1.25,256.34301,7.4259962)"><path
       inkscape:connector-curvature="0"
       d="m 0,0 3.009,0 0,-1.56 0.056,0 C 3.65,-0.418 4.875,0.279 6.129,0.279 6.658,0.279 7.104,0.14 7.439,0 L 6.937,-3.092 c -0.307,0.084 -0.669,0.223 -1.171,0.223 -1.671,0 -2.59,-1.114 -2.59,-3.677 l 0,-8.218 -3.176,0 L 0,0 Z"
       style="fill:#000000;fill-opacity:1;fill-rule:nonzero;stroke:none"
       id="path40" /></g><g
     id="g42"
     transform="matrix(1.25,0,0,-1.25,271.00225,18.846371)"><path
       inkscape:connector-curvature="0"
       d="m 0,0 c 0.251,-2.173 1.477,-3.371 3.566,-3.371 2.006,0 3.119,0.753 3.119,1.894 0,1.171 -0.919,1.449 -4.067,2.34 -3.342,0.947 -4.958,2.089 -4.958,4.318 0,2.228 1.894,4.373 5.432,4.373 3.537,0 5.376,-1.838 6.045,-4.317 L 6.463,4.457 C 5.989,5.85 5.125,6.908 3.092,6.908 1.421,6.908 0.557,6.128 0.557,5.32 0.557,4.346 1.17,4.095 4.902,3.036 8.635,1.978 9.555,0.613 9.555,-1.532 c 0,-2.062 -1.7,-4.513 -5.878,-4.513 -4.345,0 -6.212,2.674 -6.574,5.348 L 0,0 Z"
       style="fill:#000000;fill-opacity:1;fill-rule:nonzero;stroke:none"
       id="path44" /></g><path
     inkscape:connector-curvature="0"
     d="m 286.91438,7.4261212 3.97,0 0,18.4549998 -3.97,0 0,-18.4549998 z m -0.07,-6.96500001 4.11,0 0,3.93500001 -4.11,0 0,-3.93500001 z"
     style="fill:#000000;fill-opacity:1;fill-rule:nonzero;stroke:none"
     id="path46" /><g
     id="g48"
     transform="matrix(1.25,0,0,-1.25,297.39501,10.837371)"><path
       inkscape:connector-curvature="0"
       d="m 0,0 -2.229,0 0,2.729 2.312,0 0,3.621 3.009,0 0,-3.621 3.705,0 0,-2.729 -3.678,0 0,-6.769 c 0,-1.533 0.307,-2.201 1.922,-2.201 l 1.171,0 0,-3.065 -1.421,0 C 1.086,-12.035 0,-10.363 0,-7.104 L 0,0 Z"
       style="fill:#000000;fill-opacity:1;fill-rule:nonzero;stroke:none"
       id="path50" /></g><g
     id="g52"
     transform="matrix(1.25,0,0,-1.25,314.63013,25.045246)"><path
       inkscape:connector-curvature="0"
       d="m 0,0 -5.739,14.095 3.344,0 3.872,-10.167 0.055,0 3.872,10.167 3.287,0 -8.412,-21.031 -3.065,0 L 0,0 Z"
       style="fill:#000000;fill-opacity:1;fill-rule:nonzero;stroke:none"
       id="path54" /></g><g
     id="g80"
     transform="matrix(1.25,0,0,-1.25,178.55913,56.694996)"><path
       inkscape:connector-curvature="0"
       d="m 0,0 c 0,3.204 -1.532,4.931 -3.677,4.931 -2.145,0 -3.705,-1.672 -3.705,-4.931 0,-3.287 1.532,-4.931 3.705,-4.931 C -1.532,-4.931 0,-3.204 0,0 m -10.53,0 c 0,5.042 3.203,7.8 6.853,7.8 3.621,0 6.797,-2.758 6.797,-7.8 0,-5.042 -2.981,-7.8 -6.797,-7.8 -3.844,0 -6.853,2.758 -6.853,7.8"
       style="fill:#000000;fill-opacity:1;fill-rule:nonzero;stroke:none"
       id="path82" /></g><g
     id="g84"
     transform="matrix(1.25,0,0,-1.25,187.15901,50.880246)"><path
       inkscape:connector-curvature="0"
       d="m 0,0 -2.229,0 0,2.73 2.285,0 0,2.146 c 0,2.646 1.448,3.426 3.649,3.426 l 2.73,0 0,-2.814 -2.089,0 C 3.37,5.488 3.064,5.182 3.064,4.151 l 0,-1.421 3.705,0 0,-2.73 -3.621,0 0,-12.034 -3.148,0 L 0,0 Z"
       style="fill:#000000;fill-opacity:1;fill-rule:nonzero;stroke:none"
       id="path86" /></g><g
     id="g88"
     transform="matrix(1.25,0,0,-1.25,209.33813,56.764746)"><path
       inkscape:connector-curvature="0"
       d="m 0,0 c 0.474,-3.119 1.421,-4.708 4.401,-4.708 2.397,0 3.789,1.031 3.789,2.647 0,1.587 -0.668,2.228 -5.154,3.622 -4.178,1.309 -5.71,3.092 -5.71,5.626 0,2.814 2.285,5.404 6.407,5.404 3.454,0 6.463,-1.642 7.103,-5.348 L 7.633,6.463 C 7.16,8.19 6.213,9.528 3.733,9.528 1.532,9.528 0.558,8.496 0.558,7.215 c 0,-1.253 0.64,-1.699 4.929,-3.147 4.709,-1.588 5.934,-3.065 5.934,-5.934 0,-3.287 -2.618,-5.878 -7.047,-5.878 -4.457,0 -7.243,2.34 -7.828,6.993 L 0,0 Z"
       style="fill:#000000;fill-opacity:1;fill-rule:nonzero;stroke:none"
       id="path90" /></g><g
     id="g92"
     transform="matrix(1.25,0,0,-1.25,239.28276,56.694996)"><path
       inkscape:connector-curvature="0"
       d="m 0,0 c 0,3.204 -1.532,4.931 -3.677,4.931 -2.145,0 -3.705,-1.672 -3.705,-4.931 0,-3.287 1.533,-4.931 3.705,-4.931 C -1.532,-4.931 0,-3.204 0,0 m -10.53,0 c 0,5.042 3.204,7.8 6.853,7.8 3.621,0 6.797,-2.758 6.797,-7.8 0,-5.042 -2.98,-7.8 -6.797,-7.8 -3.844,0 -6.853,2.758 -6.853,7.8"
       style="fill:#000000;fill-opacity:1;fill-rule:nonzero;stroke:none"
       id="path94" /></g><g
     id="g96"
     transform="matrix(1.25,0,0,-1.25,247.01176,47.467746)"><path
       inkscape:connector-curvature="0"
       d="m 0,0 3.176,0 0,-9.192 c 0,-2.201 0.752,-2.953 2.59,-2.953 1.783,0 3.037,0.947 3.037,3.176 l 0,8.969 3.176,0 0,-14.764 -3.065,0 0,1.421 -0.056,0 C 8.525,-13.816 7.354,-15.182 5.042,-15.182 1.588,-15.182 0,-13.008 0,-9.554 L 0,0 Z"
       style="fill:#000000;fill-opacity:1;fill-rule:nonzero;stroke:none"
       id="path98" /></g><g
     id="g100"
     transform="matrix(1.25,0,0,-1.25,268.07776,50.880246)"><path
       inkscape:connector-curvature="0"
       d="m 0,0 -2.229,0 0,2.73 2.312,0 0,3.621 3.009,0 0,-3.621 3.705,0 0,-2.73 -3.678,0 0,-6.768 c 0,-1.533 0.307,-2.201 1.922,-2.201 l 1.171,0 0,-3.065 -1.421,0 C 1.086,-12.034 0,-10.362 0,-7.103 L 0,0 Z"
       style="fill:#000000;fill-opacity:1;fill-rule:nonzero;stroke:none"
       id="path102" /></g><g
     id="g104"
     transform="matrix(1.25,0,0,-1.25,280.298,40.503121)"><path
       inkscape:connector-curvature="0"
       d="m 0,0 3.176,0 0,-7.02 0.056,0 c 0.641,0.975 2.368,1.866 3.955,1.866 3.121,0 5.321,-2.005 5.321,-5.403 l 0,-9.778 -3.148,0 0,9.025 c 0,1.839 -1.003,3.231 -3.036,3.231 -1.923,0 -3.148,-1.28 -3.148,-2.98 l 0,-9.276 -3.176,0 L 0,0 Z"
       style="fill:#000000;fill-opacity:1;fill-rule:nonzero;stroke:none"
       id="path106" /></g><g
     id="g108"
     transform="matrix(1.25,0,0,-1.25,312.61076,54.883496)"><path
       inkscape:connector-curvature="0"
       d="M 0,0 C -0.112,1.978 -1.253,3.537 -3.621,3.537 -5.905,3.537 -7.076,1.699 -7.187,0 L 0,0 Z m 2.647,-5.795 c -1.142,-1.838 -3.009,-3.454 -6.129,-3.454 -4.011,0 -6.936,3.009 -6.936,7.8 0,4.792 2.925,7.799 6.797,7.799 3.844,0 6.713,-2.952 6.713,-7.799 l 0,-0.947 -10.307,0 c 0.084,-2.396 1.337,-4.04 3.678,-4.04 2.256,0 3.259,1.505 3.899,2.507 l 2.285,-1.866 z"
       style="fill:#000000;fill-opacity:1;fill-rule:nonzero;stroke:none"
       id="path110" /></g><g
     id="g112"
     transform="matrix(1.25,0,0,-1.25,323.09051,60.769246)"><path
       inkscape:connector-curvature="0"
       d="m 0,0 c 0,-1.198 0.836,-1.783 2.424,-1.783 2.535,0 3.593,1.226 3.593,2.48 l 0,2.953 -0.056,0 C 5.795,3.288 5.516,2.897 2.591,2.117 0.335,1.561 0,0.808 0,0 m 6.379,-2.646 -0.056,0 C 6.184,-2.869 5.014,-4.54 2.145,-4.54 c -3.677,0 -5.209,2.089 -5.209,4.318 0,2.59 1.448,3.732 5.014,4.596 3.204,0.808 3.955,1.142 3.955,2.201 0,0.947 -0.807,1.755 -2.701,1.755 -2.257,0 -2.925,-1.282 -3.287,-2.591 l -2.703,1.03 c 0.585,2.341 2.48,4.29 5.906,4.29 3.287,0 5.962,-1.56 5.962,-5.626 l 0,-9.555 -2.703,0 0,1.476 z"
       style="fill:#000000;fill-opacity:1;fill-rule:nonzero;stroke:none"
       id="path114" /></g><g
     id="g116"
     transform="matrix(1.25,0,0,-1.25,341.26625,58.888121)"><path
       inkscape:connector-curvature="0"
       d="m 0,0 c 0.25,-2.173 1.477,-3.371 3.566,-3.371 2.006,0 3.119,0.753 3.119,1.894 0,1.171 -0.919,1.449 -4.067,2.34 -3.342,0.947 -4.958,2.089 -4.958,4.318 0,2.228 1.894,4.373 5.432,4.373 3.537,0 5.376,-1.838 6.045,-4.317 L 6.463,4.457 C 5.989,5.85 5.125,6.908 3.092,6.908 1.421,6.908 0.557,6.128 0.557,5.32 0.557,4.346 1.17,4.095 4.902,3.036 8.635,1.978 9.555,0.613 9.555,-1.532 c 0,-2.062 -1.7,-4.513 -5.878,-4.513 -4.345,0 -6.212,2.674 -6.574,5.348 L 0,0 Z"
       style="fill:#000000;fill-opacity:1;fill-rule:nonzero;stroke:none"
       id="path118" /></g><g
     id="g120"
     transform="matrix(1.25,0,0,-1.25,357.80551,50.880246)"><path
       inkscape:connector-curvature="0"
       d="m 0,0 -2.229,0 0,2.73 2.312,0 0,3.621 3.009,0 0,-3.621 3.705,0 0,-2.73 -3.678,0 0,-6.768 c 0,-1.533 0.307,-2.201 1.922,-2.201 l 1.171,0 0,-3.065 -1.421,0 C 1.086,-12.034 0,-10.362 0,-7.103 L 0,0 Z"
       style="fill:#000000;fill-opacity:1;fill-rule:nonzero;stroke:none"
       id="path122" /></g><g
     id="g124"
     transform="matrix(1.25,0,0,-1.25,378.661,41.547746)"><path
       inkscape:connector-curvature="0"
       d="m 0,0 3.427,0 7.744,-13.789 0.055,0 0,13.789 3.287,0 0,-19.5 -3.342,0 -7.828,13.789 -0.056,0 0,-13.789 L 0,-19.5 0,0 Z"
       style="fill:#000000;fill-opacity:1;fill-rule:nonzero;stroke:none"
       id="path126" /></g><g
     id="g128"
     transform="matrix(1.25,0,0,-1.25,414.14288,56.694996)"><path
       inkscape:connector-curvature="0"
       d="m 0,0 c 0,3.204 -1.532,4.931 -3.677,4.931 -2.145,0 -3.706,-1.672 -3.706,-4.931 0,-3.287 1.533,-4.931 3.706,-4.931 C -1.532,-4.931 0,-3.204 0,0 m -10.53,0 c 0,5.042 3.203,7.8 6.853,7.8 3.621,0 6.796,-2.758 6.796,-7.8 0,-5.042 -2.98,-7.8 -6.796,-7.8 -3.845,0 -6.853,2.758 -6.853,7.8"
       style="fill:#000000;fill-opacity:1;fill-rule:nonzero;stroke:none"
       id="path130" /></g><g
     id="g132"
     transform="matrix(1.25,0,0,-1.25,421.94038,47.467746)"><path
       inkscape:connector-curvature="0"
       d="m 0,0 3.009,0 0,-1.56 0.056,0 C 3.65,-0.418 4.875,0.279 6.129,0.279 6.658,0.279 7.104,0.14 7.439,0 L 6.937,-3.092 c -0.307,0.084 -0.669,0.223 -1.171,0.223 -1.671,0 -2.59,-1.114 -2.59,-3.677 l 0,-8.218 -3.176,0 L 0,0 Z"
       style="fill:#000000;fill-opacity:1;fill-rule:nonzero;stroke:none"
       id="path134" /></g><g
     id="g136"
     transform="matrix(1.25,0,0,-1.25,433.15276,47.467746)"><path
       inkscape:connector-curvature="0"
       d="m 0,0 3.12,0 2.09,-10.279 0.055,0 3.51,10.279 2.869,0 3.287,-10.251 0.056,0 2.368,10.251 3.064,0 -3.538,-14.764 -3.064,0 -3.594,11.088 -0.055,0 -3.872,-11.088 -3.037,0 L 0,0 Z"
       style="fill:#000000;fill-opacity:1;fill-rule:nonzero;stroke:none"
       id="path138" /></g><g
     id="g140"
     transform="matrix(1.25,0,0,-1.25,464.59463,60.769246)"><path
       inkscape:connector-curvature="0"
       d="m 0,0 c 0,-1.198 0.836,-1.783 2.424,-1.783 2.535,0 3.593,1.226 3.593,2.48 l 0,2.953 -0.056,0 C 5.795,3.288 5.516,2.897 2.591,2.117 0.335,1.561 0,0.808 0,0 m 6.379,-2.646 -0.056,0 C 6.184,-2.869 5.014,-4.54 2.145,-4.54 c -3.677,0 -5.209,2.089 -5.209,4.318 0,2.59 1.448,3.732 5.014,4.596 3.204,0.808 3.955,1.142 3.955,2.201 0,0.947 -0.807,1.755 -2.701,1.755 -2.257,0 -2.925,-1.282 -3.287,-2.591 l -2.703,1.03 c 0.585,2.341 2.48,4.29 5.906,4.29 3.287,0 5.961,-1.56 5.961,-5.626 l 0,-9.555 -2.702,0 0,1.476 z"
       style="fill:#000000;fill-opacity:1;fill-rule:nonzero;stroke:none"
       id="path142" /></g><g
     id="g144"
     transform="matrix(1.25,0,0,-1.25,484.85938,65.086871)"><path
       inkscape:connector-curvature="0"
       d="m 0,0 -5.739,14.095 3.343,0 3.872,-10.167 0.055,0 3.872,10.167 3.288,0 -8.413,-21.031 -3.064,0 L 0,0 Z"
       style="fill:#000000;fill-opacity:1;fill-rule:nonzero;stroke:none"
       id="path146" /></g><g
     id="g148"
     transform="matrix(1.25,0,0,-1.25,165.39475,86.828621)"><path
       inkscape:connector-curvature="0"
       d="M 0,0 264.261,0"
       style="fill:none;stroke:#231f20;stroke-width:1.20000005;stroke-linecap:butt;stroke-linejoin:miter;stroke-miterlimit:10;stroke-dasharray:none;stroke-opacity:1"
       id="path150" /></g><path
     id="path154"
     style="fill:#231f20;fill-opacity:1;fill-rule:nonzero;stroke:none"
     d="m 141.92,1.5062462 -16.71125,-0.0025 0,61.4124998 L 79.1475,2.2287462 C 71.35,1.2087462 64.7025,-3.8146973e-6 52.495,-3.8146973e-6 35.42,-3.8146973e-6 25.42,8.8237462 23.365,19.702496 c -1.95875,10.3675 0.725,19.46 12.69125,25.02 13.49,6.2675 27.7125,11.12 27.7125,21.8975 0,7.935 -5.7225,17.355 -23.7175,17.355 -11.1575,0 -18.18125,-4.2475 -22.18,-11.52875 -3.0275,-5.51375 -3.5875,-10.67 -3.5875,-17.69125 l 0,-53.2512498 -14.28375,0 0,39.0012498 c 0.02889,1.864552 0.124411,3.487981 0,5.138747 l 0,5.42375 c 0,12.23875 1.60875,18.79625 9.23125,26.5675 6.98375,7.12125 17.7275,10.9475 30.70375,10.9475 23.68125,0 36.25125,-15.695 36.25125,-27.18 0,-8.15875 -3.74625,-15.35125 -18.97625,-22.72375 -13.96625,-6.76125 -24.57625,-9.65625 -22.735,-21.56375 1.40125,-9.0612498 9.2875,-13.2324998 18.2625,-13.0049998 10.9875,0.2775 16.3175,4.86625 18.00375,10.2962498 l 0,27.02625 c 2.16125,1.61625 3.8475,3.24875 5.14,4.92125 l 0,-24.88625 50.4275,66.11125 4.0425,0 0,-81.7324998 11.57,0 -10e-4,-4.34 z"
     inkscape:connector-curvature="0"
     sodipodi:nodetypes="ccccsccsscsccccscssccccccccccccc" /></svg>