<?xml version="1.0" encoding="UTF-8" standalone="no"?>
<!-- Created with Inkscape (http://www.inkscape.org/) -->

<svg
   xmlns:dc="http://purl.org/dc/elements/1.1/"
   xmlns:cc="http://creativecommons.org/ns#"
   xmlns:rdf="http://www.w3.org/1999/02/22-rdf-syntax-ns#"
   xmlns:svg="http://www.w3.org/2000/svg"
   xmlns="http://www.w3.org/2000/svg"
   xmlns:sodipodi="http://sodipodi.sourceforge.net/DTD/sodipodi-0.dtd"
   xmlns:inkscape="http://www.inkscape.org/namespaces/inkscape"
   width="120.64999mm"
   height="23.437454mm"
   viewBox="0 0 120.64999 23.437454"
   version="1.1"
   id="svg8"
   inkscape:version="0.92.3 (2405546, 2018-03-11)"
   sodipodi:docname="USN_logo_en2-centered.svg">
  <defs
     id="defs2">
    <clipPath
       clipPathUnits="userSpaceOnUse"
       id="clipPath16">
      <path
         inkscape:connector-curvature="0"
         d="M 0,155.906 H 525.543 V 0 H 0 Z"
         id="path18" />
    </clipPath>
  </defs>
  <sodipodi:namedview
     id="base"
     pagecolor="#ffffff"
     bordercolor="#666666"
     borderopacity="1.0"
     inkscape:pageopacity="0.0"
     inkscape:pageshadow="2"
     inkscape:zoom="1.4"
     inkscape:cx="236.38683"
     inkscape:cy="44.336786"
     inkscape:document-units="mm"
     inkscape:current-layer="g14"
     showgrid="true"
     fit-margin-top="0"
     fit-margin-left="0"
     fit-margin-right="0"
     fit-margin-bottom="0"
     inkscape:window-width="1920"
     inkscape:window-height="1172"
     inkscape:window-x="1920"
     inkscape:window-y="0"
     inkscape:window-maximized="1">
    <inkscape:grid
       type="xygrid"
       id="grid4273"
       originx="-3.5391152e-06"
       originy="-5.4591158e-06" />
  </sodipodi:namedview>
  <metadata
     id="metadata5">
    <rdf:RDF>
      <cc:Work
         rdf:about="">
        <dc:format>image/svg+xml</dc:format>
        <dc:type
           rdf:resource="http://purl.org/dc/dcmitype/StillImage" />
        <dc:title></dc:title>
      </cc:Work>
    </rdf:RDF>
  </metadata>
  <g
     inkscape:label="Layer 1"
     inkscape:groupmode="layer"
     id="layer1"
     transform="translate(-120.37542,-133.33485)">
    <g
       id="g14"
       clip-path="url(#clipPath16)"
       transform="matrix(0.33072917,0,0,-0.33072917,92.723323,170.83487)">
      <g
         id="g4368"
         transform="translate(34.7354)">
        <g
           transform="translate(-0.3012)"
           id="g4056">
          <g
             id="g20"
             transform="translate(215.9272,112.181)">
            <path
               inkscape:connector-curvature="0"
               d="m 0,0 h 3.287 v -12.981 c 0,-2.424 1.281,-3.9 3.9,-3.9 2.646,0 3.956,1.504 3.956,3.844 V 0 h 3.259 v -13.148 c 0,-4.234 -2.897,-6.769 -7.215,-6.769 -4.318,0 -7.187,2.535 -7.187,6.769 z"
               style="fill:#000000;fill-opacity:1;fill-rule:nonzero;stroke:none"
               id="path22" />
          </g>
          <g
             id="g24"
             transform="translate(234.3671,107.4451)">
            <path
               inkscape:connector-curvature="0"
               d="M 0,0 H 3.065 V -1.42 H 3.12 c 0.78,1.002 2.313,1.838 3.984,1.838 3.231,0 5.265,-2.034 5.265,-5.515 v -9.667 H 9.221 v 8.831 c 0,2.173 -0.78,3.426 -2.87,3.426 -1.95,0 -3.175,-1.198 -3.175,-3.092 v -9.165 H 0 Z"
               style="fill:#000000;fill-opacity:1;fill-rule:nonzero;stroke:none"
               id="path26" />
          </g>
          <path
             inkscape:connector-curvature="0"
             d="m 250.829,107.445 h 3.175 V 92.681 h -3.175 z m -0.055,5.572 h 3.287 v -3.148 h -3.287 z"
             style="fill:#000000;fill-opacity:1;fill-rule:nonzero;stroke:none"
             id="path28" />
          <g
             id="g30"
             transform="translate(256.3443,107.4451)">
            <path
               inkscape:connector-curvature="0"
               d="M 0,0 H 3.288 L 7.243,-10.195 H 7.299 L 11.255,0 h 3.259 L 8.581,-14.764 H 5.934 Z"
               style="fill:#000000;fill-opacity:1;fill-rule:nonzero;stroke:none"
               id="path32" />
          </g>
          <g
             id="g34"
             transform="translate(282.3892,101.5124)">
            <path
               inkscape:connector-curvature="0"
               d="M 0,0 C -0.112,1.978 -1.253,3.537 -3.621,3.537 -5.905,3.537 -7.076,1.699 -7.187,0 Z m 2.647,-5.795 c -1.142,-1.838 -3.009,-3.454 -6.129,-3.454 -4.011,0 -6.936,3.009 -6.936,7.8 0,4.792 2.925,7.799 6.797,7.799 3.844,0 6.713,-2.952 6.713,-7.799 V -2.396 H -7.215 c 0.084,-2.396 1.337,-4.04 3.678,-4.04 2.256,0 3.259,1.505 3.899,2.508 z"
               style="fill:#000000;fill-opacity:1;fill-rule:nonzero;stroke:none"
               id="path36" />
          </g>
          <g
             id="g38"
             transform="translate(288.6839,107.4451)">
            <path
               inkscape:connector-curvature="0"
               d="M 0,0 H 3.009 V -1.56 H 3.065 C 3.65,-0.418 4.875,0.279 6.129,0.279 6.658,0.279 7.104,0.14 7.439,0 L 6.937,-3.092 c -0.307,0.084 -0.669,0.223 -1.171,0.223 -1.671,0 -2.59,-1.114 -2.59,-3.677 v -8.218 H 0 Z"
               style="fill:#000000;fill-opacity:1;fill-rule:nonzero;stroke:none"
               id="path40" />
          </g>
          <g
             id="g42"
             transform="translate(300.4113,98.3088)">
            <path
               inkscape:connector-curvature="0"
               d="m 0,0 c 0.251,-2.173 1.477,-3.371 3.566,-3.371 2.006,0 3.119,0.753 3.119,1.894 0,1.171 -0.919,1.449 -4.067,2.34 -3.342,0.947 -4.958,2.089 -4.958,4.318 0,2.228 1.894,4.373 5.432,4.373 3.537,0 5.376,-1.838 6.045,-4.317 L 6.463,4.457 C 5.989,5.85 5.125,6.908 3.092,6.908 1.421,6.908 0.557,6.128 0.557,5.32 0.557,4.346 1.17,4.095 4.902,3.036 8.635,1.978 9.555,0.613 9.555,-1.532 c 0,-2.062 -1.7,-4.513 -5.878,-4.513 -4.345,0 -6.212,2.674 -6.574,5.348 z"
               style="fill:#000000;fill-opacity:1;fill-rule:nonzero;stroke:none"
               id="path44" />
          </g>
          <path
             inkscape:connector-curvature="0"
             d="m 313.141,107.445 h 3.176 V 92.681 h -3.176 z m -0.056,5.572 h 3.288 v -3.148 h -3.288 z"
             style="fill:#000000;fill-opacity:1;fill-rule:nonzero;stroke:none"
             id="path46" />
          <g
             id="g48"
             transform="translate(321.5255,104.716)">
            <path
               inkscape:connector-curvature="0"
               d="M 0,0 H -2.229 V 2.729 H 0.083 V 6.35 H 3.092 V 2.729 H 6.797 V 0 H 3.119 v -6.769 c 0,-1.533 0.307,-2.201 1.922,-2.201 h 1.171 v -3.065 H 4.791 C 1.086,-12.035 0,-10.363 0,-7.104 Z"
               style="fill:#000000;fill-opacity:1;fill-rule:nonzero;stroke:none"
               id="path50" />
          </g>
          <g
             id="g52"
             transform="translate(335.3136,93.3497)">
            <path
               inkscape:connector-curvature="0"
               d="m 0,0 -5.739,14.095 h 3.344 L 1.477,3.928 H 1.532 L 5.404,14.095 H 8.691 L 0.279,-6.936 h -3.065 z"
               style="fill:#000000;fill-opacity:1;fill-rule:nonzero;stroke:none"
               id="path54" />
          </g>
        </g>
        <g
           transform="translate(-0.00701431)"
           id="g4342">
          <g
             id="g80"
             transform="translate(365.2568,100.481)">
            <path
               inkscape:connector-curvature="0"
               d="m 0,0 c 0,3.204 -1.532,4.931 -3.677,4.931 -2.145,0 -3.705,-1.672 -3.705,-4.931 0,-3.287 1.532,-4.931 3.705,-4.931 C -1.532,-4.931 0,-3.204 0,0 m -10.53,0 c 0,5.042 3.203,7.8 6.853,7.8 3.621,0 6.797,-2.758 6.797,-7.8 0,-5.042 -2.981,-7.8 -6.797,-7.8 -3.844,0 -6.853,2.758 -6.853,7.8"
               style="fill:#000000;fill-opacity:1;fill-rule:nonzero;stroke:none"
               id="path82" />
          </g>
          <g
             id="g84"
             transform="translate(372.1367,104.715)">
            <path
               inkscape:connector-curvature="0"
               d="m 0,0 h -2.229 v 2.73 h 2.285 v 2.146 c 0,2.646 1.448,3.426 3.649,3.426 h 2.73 V 5.488 H 4.346 C 3.37,5.488 3.064,5.182 3.064,4.151 V 2.73 H 6.769 V 0 H 3.148 V -12.034 H 0 Z"
               style="fill:#000000;fill-opacity:1;fill-rule:nonzero;stroke:none"
               id="path86" />
          </g>
        </g>
      </g>
      <g
         id="g4422">
        <g
           id="g4388">
          <g
             id="g88"
             transform="translate(219.08,67.9741)">
            <path
               inkscape:connector-curvature="0"
               d="m 0,0 c 0.474,-3.119 1.421,-4.708 4.401,-4.708 2.397,0 3.789,1.031 3.789,2.647 0,1.587 -0.668,2.228 -5.154,3.622 -4.178,1.309 -5.71,3.092 -5.71,5.626 0,2.814 2.285,5.404 6.407,5.404 3.454,0 6.463,-1.642 7.103,-5.348 L 7.633,6.463 C 7.16,8.19 6.213,9.528 3.733,9.528 1.532,9.528 0.558,8.496 0.558,7.215 c 0,-1.253 0.64,-1.699 4.929,-3.147 4.709,-1.588 5.934,-3.065 5.934,-5.934 0,-3.287 -2.618,-5.878 -7.047,-5.878 -4.457,0 -7.243,2.34 -7.828,6.993 z"
               style="fill:#000000;fill-opacity:1;fill-rule:nonzero;stroke:none"
               id="path90" />
          </g>
          <g
             id="g92"
             transform="translate(243.0357,68.0299)">
            <path
               inkscape:connector-curvature="0"
               d="m 0,0 c 0,3.204 -1.532,4.931 -3.677,4.931 -2.145,0 -3.705,-1.672 -3.705,-4.931 0,-3.287 1.533,-4.931 3.705,-4.931 C -1.532,-4.931 0,-3.204 0,0 m -10.53,0 c 0,5.042 3.204,7.8 6.853,7.8 3.621,0 6.797,-2.758 6.797,-7.8 0,-5.042 -2.98,-7.8 -6.797,-7.8 -3.844,0 -6.853,2.758 -6.853,7.8"
               style="fill:#000000;fill-opacity:1;fill-rule:nonzero;stroke:none"
               id="path94" />
          </g>
          <g
             id="g96"
             transform="translate(249.2189,75.4117)">
            <path
               inkscape:connector-curvature="0"
               d="m 0,0 h 3.176 v -9.192 c 0,-2.201 0.752,-2.953 2.59,-2.953 1.783,0 3.037,0.947 3.037,3.176 V 0 h 3.176 V -14.764 H 8.914 v 1.421 H 8.858 C 8.525,-13.816 7.354,-15.182 5.042,-15.182 1.588,-15.182 0,-13.008 0,-9.554 Z"
               style="fill:#000000;fill-opacity:1;fill-rule:nonzero;stroke:none"
               id="path98" />
          </g>
          <g
             id="g100"
             transform="translate(266.0717,72.6817)">
            <path
               inkscape:connector-curvature="0"
               d="M 0,0 H -2.229 V 2.73 H 0.083 V 6.351 H 3.092 V 2.73 H 6.797 V 0 H 3.119 v -6.768 c 0,-1.533 0.307,-2.201 1.922,-2.201 h 1.171 v -3.065 H 4.791 C 1.086,-12.034 0,-10.362 0,-7.103 Z"
               style="fill:#000000;fill-opacity:1;fill-rule:nonzero;stroke:none"
               id="path102" />
          </g>
          <g
             id="g104"
             transform="translate(275.8479,80.9834)">
            <path
               inkscape:connector-curvature="0"
               d="m 0,0 h 3.176 v -7.02 h 0.056 c 0.641,0.975 2.368,1.866 3.955,1.866 3.121,0 5.321,-2.005 5.321,-5.403 v -9.778 H 9.36 v 9.025 c 0,1.839 -1.003,3.231 -3.036,3.231 -1.923,0 -3.148,-1.28 -3.148,-2.98 v -9.276 H 0 Z"
               style="fill:#000000;fill-opacity:1;fill-rule:nonzero;stroke:none"
               id="path106" />
          </g>
          <g
             id="g108"
             transform="translate(301.6981,69.4791)">
            <path
               inkscape:connector-curvature="0"
               d="M 0,0 C -0.112,1.978 -1.253,3.537 -3.621,3.537 -5.905,3.537 -7.076,1.699 -7.187,0 Z m 2.647,-5.795 c -1.142,-1.838 -3.009,-3.454 -6.129,-3.454 -4.011,0 -6.936,3.009 -6.936,7.8 0,4.792 2.925,7.799 6.797,7.799 3.844,0 6.713,-2.952 6.713,-7.799 V -2.396 H -7.215 c 0.084,-2.396 1.337,-4.04 3.678,-4.04 2.256,0 3.259,1.505 3.899,2.507 z"
               style="fill:#000000;fill-opacity:1;fill-rule:nonzero;stroke:none"
               id="path110" />
          </g>
          <g
             id="g112"
             transform="translate(310.0819,64.7705)">
            <path
               inkscape:connector-curvature="0"
               d="m 0,0 c 0,-1.198 0.836,-1.783 2.424,-1.783 2.535,0 3.593,1.226 3.593,2.48 V 3.65 H 5.961 C 5.795,3.288 5.516,2.897 2.591,2.117 0.335,1.561 0,0.808 0,0 M 6.379,-2.646 H 6.323 C 6.184,-2.869 5.014,-4.54 2.145,-4.54 c -3.677,0 -5.209,2.089 -5.209,4.318 0,2.59 1.448,3.732 5.014,4.596 3.204,0.808 3.955,1.142 3.955,2.201 0,0.947 -0.807,1.755 -2.701,1.755 -2.257,0 -2.925,-1.282 -3.287,-2.591 l -2.703,1.03 c 0.585,2.341 2.48,4.29 5.906,4.29 3.287,0 5.962,-1.56 5.962,-5.626 V -4.122 H 6.379 Z"
               style="fill:#000000;fill-opacity:1;fill-rule:nonzero;stroke:none"
               id="path114" />
          </g>
          <g
             id="g116"
             transform="translate(324.6225,66.2754)">
            <path
               inkscape:connector-curvature="0"
               d="m 0,0 c 0.25,-2.173 1.477,-3.371 3.566,-3.371 2.006,0 3.119,0.753 3.119,1.894 0,1.171 -0.919,1.449 -4.067,2.34 -3.342,0.947 -4.958,2.089 -4.958,4.318 0,2.228 1.894,4.373 5.432,4.373 3.537,0 5.376,-1.838 6.045,-4.317 L 6.463,4.457 C 5.989,5.85 5.125,6.908 3.092,6.908 1.421,6.908 0.557,6.128 0.557,5.32 0.557,4.346 1.17,4.095 4.902,3.036 8.635,1.978 9.555,0.613 9.555,-1.532 c 0,-2.062 -1.7,-4.513 -5.878,-4.513 -4.345,0 -6.212,2.674 -6.574,5.348 z"
               style="fill:#000000;fill-opacity:1;fill-rule:nonzero;stroke:none"
               id="path118" />
          </g>
          <g
             id="g120"
             transform="translate(337.8539,72.6817)">
            <path
               inkscape:connector-curvature="0"
               d="M 0,0 H -2.229 V 2.73 H 0.083 V 6.351 H 3.092 V 2.73 H 6.797 V 0 H 3.119 v -6.768 c 0,-1.533 0.307,-2.201 1.922,-2.201 h 1.171 v -3.065 H 4.791 C 1.086,-12.034 0,-10.362 0,-7.103 Z"
               style="fill:#000000;fill-opacity:1;fill-rule:nonzero;stroke:none"
               id="path122" />
          </g>
        </g>
        <g
           transform="translate(0.18148569)"
           id="g4317">
          <g
             id="g124"
             transform="translate(354.5383,80.1477)">
            <path
               inkscape:connector-curvature="0"
               d="m 0,0 h 3.427 l 7.744,-13.789 h 0.055 V 0 h 3.287 V -19.5 H 11.171 L 3.343,-5.711 H 3.287 V -19.5 H 0 Z"
               style="fill:#000000;fill-opacity:1;fill-rule:nonzero;stroke:none"
               id="path126" />
          </g>
          <g
             id="g128"
             transform="translate(382.9238,68.0299)">
            <path
               inkscape:connector-curvature="0"
               d="m 0,0 c 0,3.204 -1.532,4.931 -3.677,4.931 -2.145,0 -3.706,-1.672 -3.706,-4.931 0,-3.287 1.533,-4.931 3.706,-4.931 C -1.532,-4.931 0,-3.204 0,0 m -10.53,0 c 0,5.042 3.203,7.8 6.853,7.8 3.621,0 6.796,-2.758 6.796,-7.8 0,-5.042 -2.98,-7.8 -6.796,-7.8 -3.845,0 -6.853,2.758 -6.853,7.8"
               style="fill:#000000;fill-opacity:1;fill-rule:nonzero;stroke:none"
               id="path130" />
          </g>
          <g
             id="g132"
             transform="translate(389.1618,75.4117)">
            <path
               inkscape:connector-curvature="0"
               d="M 0,0 H 3.009 V -1.56 H 3.065 C 3.65,-0.418 4.875,0.279 6.129,0.279 6.658,0.279 7.104,0.14 7.439,0 L 6.937,-3.092 c -0.307,0.084 -0.669,0.223 -1.171,0.223 -1.671,0 -2.59,-1.114 -2.59,-3.677 v -8.218 H 0 Z"
               style="fill:#000000;fill-opacity:1;fill-rule:nonzero;stroke:none"
               id="path134" />
          </g>
          <g
             id="g136"
             transform="translate(398.1317,75.4117)">
            <path
               inkscape:connector-curvature="0"
               d="M 0,0 H 3.12 L 5.21,-10.279 H 5.265 L 8.775,0 h 2.869 l 3.287,-10.251 h 0.056 L 17.355,0 h 3.064 L 16.881,-14.764 H 13.817 L 10.223,-3.676 H 10.168 L 6.296,-14.764 H 3.259 Z"
               style="fill:#000000;fill-opacity:1;fill-rule:nonzero;stroke:none"
               id="path138" />
          </g>
          <g
             id="g140"
             transform="translate(423.2852,64.7705)">
            <path
               inkscape:connector-curvature="0"
               d="m 0,0 c 0,-1.198 0.836,-1.783 2.424,-1.783 2.535,0 3.593,1.226 3.593,2.48 V 3.65 H 5.961 C 5.795,3.288 5.516,2.897 2.591,2.117 0.335,1.561 0,0.808 0,0 M 6.379,-2.646 H 6.323 C 6.184,-2.869 5.014,-4.54 2.145,-4.54 c -3.677,0 -5.209,2.089 -5.209,4.318 0,2.59 1.448,3.732 5.014,4.596 3.204,0.808 3.955,1.142 3.955,2.201 0,0.947 -0.807,1.755 -2.701,1.755 -2.257,0 -2.925,-1.282 -3.287,-2.591 l -2.703,1.03 c 0.585,2.341 2.48,4.29 5.906,4.29 3.287,0 5.961,-1.56 5.961,-5.626 V -4.122 H 6.379 Z"
               style="fill:#000000;fill-opacity:1;fill-rule:nonzero;stroke:none"
               id="path142" />
          </g>
          <g
             id="g144"
             transform="translate(439.497,61.3164)">
            <path
               inkscape:connector-curvature="0"
               d="m 0,0 -5.739,14.095 h 3.343 L 1.476,3.928 H 1.531 L 5.403,14.095 H 8.691 L 0.278,-6.936 h -3.064 z"
               style="fill:#000000;fill-opacity:1;fill-rule:nonzero;stroke:none"
               id="path146" />
          </g>
        </g>
      </g>
      <g
         id="g148"
         transform="matrix(0.88094724,0,0,1,215.60949,43.923)">
        <path
           inkscape:connector-curvature="0"
           d="M 0,0 H 264.261"
           style="fill:none;stroke:#231f20;stroke-width:1.20000005;stroke-linecap:butt;stroke-linejoin:miter;stroke-miterlimit:10;stroke-dasharray:none;stroke-opacity:1"
           id="path150" />
      </g>
      <g
         id="g152"
         transform="translate(197.1455,112.1809)">
        <path
           inkscape:connector-curvature="0"
           d="m 0,0 -13.369,0.002 v -49.13 l -36.849,48.55 c -6.238,0.816 -11.556,1.783 -21.322,1.783 -13.66,0 -21.66,-7.059 -23.304,-15.762 -1.567,-8.294 0.58,-15.568 10.153,-20.016 10.792,-5.014 22.17,-8.896 22.17,-17.518 0,-6.348 -4.578,-13.884 -18.974,-13.884 -8.926,0 -14.545,3.398 -17.744,9.223 -2.422,4.411 -2.87,8.536 -2.87,14.153 V 0.002 h -11.427 v -31.201 -4.111 -4.339 c 0,-9.791 1.287,-15.037 7.385,-21.254 5.587,-5.697 14.182,-8.758 24.563,-8.758 18.945,0 29.001,12.556 29.001,21.744 0,6.527 -2.997,12.281 -15.181,18.179 -11.173,5.409 -19.661,7.725 -18.188,17.251 1.121,7.249 7.43,10.586 14.61,10.404 8.79,-0.222 13.054,-3.893 14.403,-8.237 v -21.621 c 1.729,-1.293 3.078,-2.599 4.112,-3.937 v 19.909 l 40.342,-52.889 h 3.234 v 65.386 h 9.256 z"
           style="fill:#231f20;fill-opacity:1;fill-rule:nonzero;stroke:none"
           id="path154"
           sodipodi:nodetypes="ccccsccsscsccccscsscccccccccccc" />
      </g>
    </g>
  </g>
</svg>
