<?xml version="1.0" encoding="UTF-8"?><svg id="Layer_1" xmlns="http://www.w3.org/2000/svg" viewBox="0 0 1093.89 191"><defs><style>.cls-1{fill:#fff;}</style></defs><path class="cls-1" d="M286.5,2.5h-11V135.5l-49-63.25C186.25,20.25,158.75,0,118.25,0c-32,0-60.75,17.75-60.75,51s25.5,44,49,54.75c20,9,38.75,17.25,38.75,38,0,22.5-21,37.25-52.75,37.25-38.75,0-61.5-24.75-61.5-66V2.5H0V109.5c0,60.25,46.75,81.5,92.5,81.5,51.25,0,80-27.75,80-64.25V51l105.5,137.5h8.5V2.5Zm-125,106.5c-8.25-13.25-24.5-21.25-40-29-20-9.75-39-19-39-38.75,0-21.75,15-31.75,37-31.25s42,13.75,42,48v51Z"/><g><path class="cls-1" d="M348.1,19.75h8.7V54.11c0,6.41,3.39,10.32,10.32,10.32s10.47-3.98,10.47-10.17V19.75h8.63V54.55c0,11.21-7.67,17.91-19.1,17.91s-19.02-6.71-19.02-17.91V19.75Z"/><path class="cls-1" d="M396.92,32.28h8.11v3.76h.15c2.07-2.65,6.12-4.87,10.54-4.87,8.55,0,13.94,5.38,13.94,14.6v25.58h-8.33v-23.37c0-5.75-2.06-9.07-7.59-9.07-5.16,0-8.41,3.17-8.41,8.18v24.25h-8.4V32.28Z"/><path class="cls-1" d="M440.34,17.54h8.7v8.33h-8.7v-8.33Zm.15,14.74h8.4v39.07h-8.4V32.28Z"/><path class="cls-1" d="M455.09,32.28h8.7l10.47,26.98h.15l10.47-26.98h8.62l-15.7,39.07h-7l-15.7-39.07Z"/><path class="cls-1" d="M531.02,63.32c-3.02,4.87-7.96,9.14-16.22,9.14-10.62,0-18.36-7.96-18.36-20.64s7.74-20.64,17.99-20.64,17.77,7.81,17.77,20.64v2.51h-27.28c.22,6.34,3.54,10.69,9.73,10.69s8.62-3.98,10.32-6.64l6.04,4.94Zm-7-15.34c-.29-5.23-3.32-9.36-9.58-9.36s-9.14,4.87-9.44,9.36h19.02Z"/><path class="cls-1" d="M540.69,32.28h7.96v4.13h.15c1.55-3.02,4.79-4.87,8.11-4.87,1.4,0,2.58,.37,3.46,.74l-1.33,8.18c-.81-.22-1.77-.59-3.1-.59-4.42,0-6.86,2.95-6.86,9.73v21.75h-8.4V32.28Z"/><path class="cls-1" d="M571.87,56.47c.66,5.75,3.91,8.92,9.44,8.92s8.26-1.99,8.26-5.01-2.43-3.83-10.76-6.19c-8.85-2.51-13.12-5.53-13.12-11.43s5.01-11.57,14.38-11.57,14.23,4.87,16,11.43l-7.08,2.06c-1.25-3.69-3.54-6.49-8.92-6.49-4.42,0-6.71,2.06-6.71,4.2,0,2.58,1.62,3.24,11.5,6.04,9.88,2.8,12.31,6.41,12.31,12.09s-4.5,11.94-15.56,11.94-16.44-7.08-17.4-14.15l7.67-1.84Z"/><path class="cls-1" d="M605.27,17.54h8.7v8.33h-8.7v-8.33Zm.15,14.74h8.4v39.07h-8.4V32.28Z"/><path class="cls-1" d="M627.25,39.51h-5.9v-7.22h6.12v-9.58h7.96v9.58h9.8v7.22h-9.73v17.92c0,4.06,.81,5.82,5.09,5.82h3.1v8.11h-3.76c-9.8,0-12.68-4.42-12.68-13.05v-18.8Z"/><path class="cls-1" d="M663.74,69.59l-15.19-37.3h8.85l10.25,26.91h.15l10.25-26.91h8.7l-22.26,55.66h-8.11l7.37-18.36Z"/><path class="cls-1" d="M705.92,51.82c0-13.34,8.48-20.64,18.13-20.64s17.99,7.3,17.99,20.64-7.89,20.64-17.99,20.64-18.13-7.3-18.13-20.64Zm27.87,0c0-8.48-4.06-13.05-9.73-13.05s-9.8,4.42-9.8,13.05,4.05,13.05,9.8,13.05,9.73-4.57,9.73-13.05Z"/><path class="cls-1" d="M752.37,39.51h-5.9v-7.22h6.05v-5.68c0-7,3.83-9.07,9.66-9.07h7.23v7.45h-5.53c-2.58,0-3.39,.81-3.39,3.54v3.76h9.81v7.22h-9.58v31.85h-8.33v-31.85Z"/><path class="cls-1" d="M353.19,136.77c1.25,8.26,3.76,12.46,11.65,12.46,6.34,0,10.03-2.73,10.03-7s-1.77-5.9-13.64-9.58c-11.06-3.46-15.11-8.18-15.11-14.89,0-7.45,6.04-14.3,16.96-14.3,9.14,0,17.1,4.35,18.8,14.15l-8.48,2.06c-1.25-4.57-3.76-8.11-10.32-8.11-5.82,0-8.41,2.73-8.41,6.12s1.7,4.5,13.05,8.33c12.46,4.2,15.7,8.11,15.7,15.7,0,8.7-6.93,15.56-18.65,15.56s-19.17-6.19-20.72-18.5l9.14-1.99Z"/><path class="cls-1" d="M388.73,136.62c0-13.35,8.48-20.64,18.13-20.64s17.99,7.3,17.99,20.64-7.89,20.64-17.99,20.64-18.13-7.3-18.13-20.64Zm27.87,0c0-8.48-4.06-13.05-9.73-13.05s-9.8,4.42-9.8,13.05,4.05,13.05,9.8,13.05,9.73-4.57,9.73-13.05Z"/><path class="cls-1" d="M432.97,117.08h8.41v24.33c0,5.82,1.99,7.82,6.86,7.82s8.04-2.51,8.04-8.41v-23.74h8.41v39.07h-8.11v-3.76h-.15c-.88,1.25-3.98,4.87-10.1,4.87-9.14,0-13.34-5.75-13.34-14.89v-25.29Z"/><path class="cls-1" d="M477.57,124.31h-5.9v-7.23h6.12v-9.58h7.96v9.58h9.8v7.23h-9.73v17.91c0,4.05,.81,5.82,5.09,5.82h3.1v8.11h-3.76c-9.8,0-12.68-4.42-12.68-13.05v-18.8Z"/><path class="cls-1" d="M503.45,102.34h8.4v18.58h.15c1.7-2.58,6.27-4.94,10.47-4.94,8.26,0,14.08,5.31,14.08,14.3v25.88h-8.33v-23.89c0-4.87-2.66-8.55-8.04-8.55-5.09,0-8.33,3.39-8.33,7.89v24.55h-8.4v-53.82Z"/><path class="cls-1" d="M544.37,128.29h19.4v6.71h-19.4v-6.71Z"/><path class="cls-1" d="M571.52,104.55h32.14v8.04h-23.44v13.27h21.38v7.74h-21.38v14.52h23.44v8.04h-32.14v-51.61Z"/><path class="cls-1" d="M636.03,152.25h-.15c-.37,.59-3.46,5.01-11.06,5.01-9.73,0-13.79-5.53-13.79-11.43,0-6.86,3.83-9.88,13.27-12.16,8.48-2.14,10.47-3.02,10.47-5.82,0-2.51-2.14-4.64-7.15-4.64-5.97,0-7.74,3.39-8.7,6.86l-7.15-2.73c1.55-6.19,6.56-11.35,15.63-11.35s15.78,4.13,15.78,14.89v25.29h-7.15v-3.91Zm-16.88-7c0,3.17,2.21,4.72,6.41,4.72,6.71,0,9.51-3.24,9.51-6.56v-7.82h-.15c-.44,.96-1.18,1.99-8.92,4.06-5.97,1.47-6.86,3.46-6.86,5.6Z"/><path class="cls-1" d="M657.63,141.26c.66,5.75,3.91,8.92,9.44,8.92s8.26-1.99,8.26-5.01-2.43-3.83-10.76-6.19c-8.85-2.51-13.12-5.53-13.12-11.43s5.01-11.57,14.38-11.57,14.23,4.87,16,11.43l-7.08,2.07c-1.25-3.69-3.54-6.49-8.92-6.49-4.42,0-6.71,2.07-6.71,4.2,0,2.58,1.62,3.24,11.5,6.04,9.88,2.8,12.31,6.41,12.31,12.09s-4.5,11.94-15.56,11.94-16.44-7.08-17.4-14.15l7.67-1.84Z"/><path class="cls-1" d="M692.66,124.31h-5.9v-7.23h6.12v-9.58h7.96v9.58h9.8v7.23h-9.73v17.91c0,4.05,.81,5.82,5.09,5.82h3.1v8.11h-3.76c-9.8,0-12.68-4.42-12.68-13.05v-18.8Z"/><path class="cls-1" d="M749.28,148.12c-3.02,4.87-7.96,9.14-16.22,9.14-10.62,0-18.36-7.96-18.36-20.64s7.74-20.64,17.99-20.64,17.77,7.82,17.77,20.64v2.51h-27.28c.22,6.34,3.54,10.69,9.73,10.69s8.62-3.98,10.32-6.63l6.04,4.94Zm-7-15.33c-.29-5.24-3.32-9.36-9.58-9.36s-9.14,4.87-9.44,9.36h19.02Z"/><path class="cls-1" d="M758.94,117.08h7.96v4.13h.15c1.55-3.02,4.79-4.87,8.11-4.87,1.4,0,2.58,.37,3.46,.74l-1.33,8.18c-.81-.22-1.77-.59-3.1-.59-4.42,0-6.86,2.95-6.86,9.73v21.75h-8.4v-39.07Z"/><path class="cls-1" d="M785.63,117.08h8.11v3.76h.15c2.07-2.65,6.12-4.87,10.54-4.87,8.55,0,13.94,5.38,13.94,14.6v25.58h-8.33v-23.37c0-5.75-2.06-9.07-7.59-9.07-5.16,0-8.41,3.17-8.41,8.19v24.25h-8.4v-39.07Z"/><path class="cls-1" d="M846.02,104.55h9.07l20.5,36.5h.15v-36.5h8.7v51.61h-8.84l-20.72-36.49h-.15v36.49h-8.7v-51.61Z"/><path class="cls-1" d="M893.28,136.62c0-13.35,8.48-20.64,18.13-20.64s17.99,7.3,17.99,20.64-7.89,20.64-17.99,20.64-18.13-7.3-18.13-20.64Zm27.87,0c0-8.48-4.06-13.05-9.73-13.05s-9.8,4.42-9.8,13.05,4.05,13.05,9.8,13.05,9.73-4.57,9.73-13.05Z"/><path class="cls-1" d="M937.66,117.08h7.96v4.13h.15c1.55-3.02,4.79-4.87,8.11-4.87,1.4,0,2.58,.37,3.46,.74l-1.33,8.18c-.81-.22-1.77-.59-3.1-.59-4.42,0-6.86,2.95-6.86,9.73v21.75h-8.4v-39.07Z"/><path class="cls-1" d="M961.4,117.08h8.26l5.53,27.2h.15l9.29-27.2h7.6l8.7,27.13h.15l6.27-27.13h8.11l-9.36,39.07h-8.11l-9.51-29.34h-.15l-10.25,29.34h-8.04l-8.62-39.07Z"/><path class="cls-1" d="M1044.86,152.25h-.15c-.37,.59-3.46,5.01-11.06,5.01-9.73,0-13.79-5.53-13.79-11.43,0-6.86,3.83-9.88,13.27-12.16,8.48-2.14,10.47-3.02,10.47-5.82,0-2.51-2.14-4.64-7.15-4.64-5.97,0-7.74,3.39-8.7,6.86l-7.15-2.73c1.55-6.19,6.56-11.35,15.63-11.35s15.78,4.13,15.78,14.89v25.29h-7.15v-3.91Zm-16.88-7c0,3.17,2.21,4.72,6.41,4.72,6.71,0,9.51-3.24,9.51-6.56v-7.82h-.15c-.44,.96-1.18,1.99-8.92,4.06-5.97,1.47-6.86,3.46-6.86,5.6Z"/><path class="cls-1" d="M1070.89,154.38l-15.19-37.3h8.85l10.25,26.91h.15l10.25-26.91h8.7l-22.26,55.66h-8.11l7.37-18.36Z"/></g></svg>