<?xml version="1.0" encoding="UTF-8"?><svg id="Layer_1" xmlns="http://www.w3.org/2000/svg" viewBox="0 0 828.91 191"><defs><style>.cls-1{fill:#7800f0;}</style></defs><path class="cls-1" d="M286.5,2.5h-11V135.5l-49-63.25C186.25,20.25,158.75,0,118.25,0c-32,0-60.75,17.75-60.75,51s25.5,44,49,54.75c20,9,38.75,17.25,38.75,38,0,22.5-21,37.25-52.75,37.25-38.75,0-61.5-24.75-61.5-66V2.5H0V109.5c0,60.25,46.75,81.5,92.5,81.5,51.25,0,80-27.75,80-64.25V51l105.5,137.5h8.5V2.5Zm-125,106.5c-8.25-13.25-24.5-21.25-40-29-20-9.75-39-19-39-38.75,0-21.75,15-31.75,37-31.25s42,13.75,42,48v51Z"/><g><path class="cls-1" d="M348.05,19.74h8.68V54.01c0,6.4,3.38,10.3,10.3,10.3s10.44-3.97,10.44-10.15V19.74h8.61V54.45c0,11.18-7.65,17.87-19.05,17.87s-18.97-6.69-18.97-17.87V19.74h0Z"/><path class="cls-1" d="M396.74,32.24h8.09v3.75h.15c2.06-2.65,6.1-4.85,10.52-4.85,8.53,0,13.9,5.37,13.9,14.56v25.52h-8.31v-23.31c0-5.74-2.06-9.05-7.57-9.05-5.15,0-8.38,3.16-8.38,8.16v24.19h-8.38V32.24h-.02Z"/><path class="cls-1" d="M440.06,17.54h8.68v8.31h-8.68v-8.31Zm.15,14.71h8.38v38.98h-8.38V32.24h0Z"/><path class="cls-1" d="M454.77,32.24h8.68l10.44,26.92h.15l10.44-26.92h8.6l-15.66,38.98h-6.99l-15.66-38.98Z"/><path class="cls-1" d="M530.52,63.21c-3.01,4.85-7.94,9.12-16.18,9.12-10.59,0-18.31-7.94-18.31-20.59s7.72-20.59,17.94-20.59,17.73,7.79,17.73,20.59v2.5h-27.21c.22,6.32,3.53,10.66,9.71,10.66s8.6-3.97,10.3-6.62l6.03,4.93h-.01Zm-6.99-15.3c-.29-5.22-3.31-9.34-9.56-9.34s-9.12,4.85-9.41,9.34h18.97Z"/><path class="cls-1" d="M540.15,32.24h7.94v4.12h.15c1.54-3.01,4.78-4.85,8.09-4.85,1.4,0,2.57,.37,3.46,.74l-1.32,8.16c-.81-.22-1.76-.59-3.09-.59-4.41,0-6.84,2.94-6.84,9.71v21.69h-8.38V32.24h-.01Z"/><path class="cls-1" d="M571.26,56.37c.66,5.74,3.9,8.9,9.41,8.9s8.23-1.98,8.23-5-2.43-3.82-10.74-6.18c-8.83-2.5-13.09-5.52-13.09-11.4s5-11.55,14.34-11.55,14.19,4.85,15.96,11.4l-7.06,2.06c-1.25-3.68-3.53-6.47-8.9-6.47-4.41,0-6.69,2.06-6.69,4.19,0,2.57,1.62,3.24,11.47,6.03,9.86,2.79,12.28,6.4,12.28,12.06s-4.49,11.91-15.52,11.91-16.4-7.06-17.36-14.12l7.65-1.84h.02Z"/><path class="cls-1" d="M604.58,17.54h8.68v8.31h-8.68v-8.31Zm.15,14.71h8.38v38.98h-8.38V32.24h0Z"/><path class="cls-1" d="M626.5,39.45h-5.89v-7.21h6.1v-9.56h7.94v9.56h9.78v7.21h-9.71v17.87c0,4.05,.81,5.81,5.08,5.81h3.09v8.09h-3.75c-9.78,0-12.65-4.41-12.65-13.02v-18.75h.01Z"/><path class="cls-1" d="M683.72,63.21c-3.01,4.85-7.94,9.12-16.18,9.12-10.59,0-18.31-7.94-18.31-20.59s7.72-20.59,17.94-20.59,17.73,7.79,17.73,20.59v2.5h-27.21c.22,6.32,3.53,10.66,9.71,10.66s8.6-3.97,10.3-6.62l6.03,4.93h-.01Zm-6.99-15.3c-.29-5.22-3.31-9.34-9.56-9.34s-9.12,4.85-9.41,9.34h18.97Z"/><path class="cls-1" d="M695.19,39.45h-5.89v-7.21h6.1v-9.56h7.94v9.56h9.78v7.21h-9.71v17.87c0,4.05,.81,5.81,5.08,5.81h3.09v8.09h-3.75c-9.78,0-12.65-4.41-12.65-13.02v-18.75h.01Z"/><path class="cls-1" d="M752.41,63.21c-3.01,4.85-7.94,9.12-16.18,9.12-10.59,0-18.31-7.94-18.31-20.59s7.72-20.59,17.94-20.59,17.73,7.79,17.73,20.59v2.5h-27.21c.22,6.32,3.53,10.66,9.71,10.66s8.6-3.97,10.3-6.62l6.03,4.93h-.01Zm-6.99-15.3c-.29-5.22-3.31-9.34-9.56-9.34s-9.12,4.85-9.41,9.34h18.97Z"/><path class="cls-1" d="M763.89,39.45h-5.89v-7.21h6.1v-9.56h7.94v9.56h9.78v7.21h-9.71v17.87c0,4.05,.81,5.81,5.08,5.81h3.09v8.09h-3.75c-9.78,0-12.65-4.41-12.65-13.02v-18.75h.01Z"/><path class="cls-1" d="M349,102.12h8.68v8.31h-8.68v-8.31Zm.15,14.71h8.38v38.98h-8.38v-38.98Z"/><path class="cls-1" d="M387.03,136.47c1.25,8.23,3.75,12.43,11.62,12.43,6.32,0,10-2.72,10-6.99s-1.76-5.88-13.6-9.56c-11.03-3.46-15.08-8.16-15.08-14.85,0-7.43,6.03-14.27,16.92-14.27,9.12,0,17.06,4.34,18.75,14.12l-8.46,2.06c-1.25-4.56-3.75-8.09-10.3-8.09-5.81,0-8.38,2.72-8.38,6.1s1.69,4.49,13.02,8.31c12.43,4.19,15.66,8.09,15.66,15.66,0,8.68-6.91,15.52-18.6,15.52s-19.12-6.18-20.67-18.46l9.12-1.99h0Z"/><path class="cls-1" d="M427.63,150.81c-2.87-3.46-4.56-8.31-4.56-14.49,0-13.31,8.46-20.59,18.09-20.59,3.97,0,7.72,1.33,10.81,3.75l2.8-3.68,2.79,2.35-3.01,3.82c2.8,3.46,4.56,8.31,4.56,14.34,0,13.31-7.87,20.59-17.94,20.59-4.19,0-8.02-1.25-11.03-3.6l-2.72,3.53-2.8-2.28,3.02-3.75h0Zm19.49-25.14c-1.62-1.54-3.68-2.35-5.96-2.35-5.51,0-9.78,4.41-9.78,13.02,0,3.16,.52,5.74,1.47,7.72l14.27-18.39Zm-12.13,21.4c1.62,1.54,3.75,2.28,6.18,2.28,5.66,0,9.71-4.56,9.71-13.02,0-3.09-.59-5.59-1.62-7.57l-14.27,18.31h0Z"/><path class="cls-1" d="M467.93,116.83h7.94v4.12h.15c1.54-3.01,4.78-4.85,8.09-4.85,1.4,0,2.57,.37,3.46,.74l-1.32,8.16c-.81-.22-1.76-.59-3.09-.59-4.41,0-6.84,2.94-6.84,9.71v21.69h-8.38v-38.98h0Z"/><path class="cls-1" d="M495.07,150.81c-2.87-3.46-4.56-8.31-4.56-14.49,0-13.31,8.46-20.59,18.09-20.59,3.97,0,7.72,1.33,10.81,3.75l2.8-3.68,2.79,2.35-3.01,3.82c2.8,3.46,4.56,8.31,4.56,14.34,0,13.31-7.87,20.59-17.94,20.59-4.19,0-8.02-1.25-11.03-3.6l-2.72,3.53-2.8-2.28,3.02-3.75h0Zm19.49-25.14c-1.62-1.54-3.68-2.35-5.96-2.35-5.51,0-9.78,4.41-9.78,13.02,0,3.16,.51,5.74,1.47,7.72l14.27-18.39Zm-12.13,21.4c1.62,1.54,3.75,2.28,6.18,2.28,5.66,0,9.71-4.56,9.71-13.02,0-3.09-.59-5.59-1.62-7.57l-14.27,18.31h0Z"/><path class="cls-1" d="M539.93,140.95c.66,5.74,3.9,8.9,9.41,8.9s8.23-1.98,8.23-5-2.43-3.82-10.74-6.18c-8.83-2.5-13.09-5.52-13.09-11.4s5-11.55,14.34-11.55,14.19,4.85,15.96,11.4l-7.06,2.06c-1.25-3.68-3.53-6.47-8.9-6.47-4.41,0-6.69,2.06-6.69,4.19,0,2.57,1.62,3.23,11.47,6.03,9.86,2.79,12.28,6.4,12.28,12.06s-4.49,11.91-15.52,11.91-16.4-7.06-17.36-14.12l7.65-1.84h.02Z"/><path class="cls-1" d="M574.72,124.04h-5.89v-7.21h6.1v-9.56h7.94v9.56h9.78v7.21h-9.71v17.87c0,4.04,.81,5.81,5.08,5.81h3.09v8.09h-3.75c-9.78,0-12.65-4.41-12.65-13.02v-18.75h.01Z"/><path class="cls-1" d="M601.16,128.01h21.78v6.69h-21.78v-6.69Z"/><path class="cls-1" d="M634.82,104.33h9.04l20.45,36.41h.15v-36.41h8.68v51.48h-8.82l-20.67-36.4h-.15v36.4h-8.68v-51.48Z"/><path class="cls-1" d="M682.33,136.32c0-13.31,8.46-20.59,18.09-20.59s17.94,7.28,17.94,20.59-7.87,20.59-17.94,20.59-18.09-7.28-18.09-20.59Zm27.8,0c0-8.46-4.05-13.02-9.71-13.02s-9.78,4.41-9.78,13.02,4.04,13.02,9.78,13.02,9.71-4.56,9.71-13.02Z"/><path class="cls-1" d="M726.83,116.83h7.94v4.12h.15c1.54-3.01,4.78-4.85,8.09-4.85,1.4,0,2.57,.37,3.46,.74l-1.32,8.16c-.81-.22-1.76-.59-3.09-.59-4.41,0-6.84,2.94-6.84,9.71v21.69h-8.38v-38.98h-.01Z"/><path class="cls-1" d="M758.38,159.34c1.91,4.12,4.41,6.76,9.64,6.76s8.75-2.72,8.75-8.9v-5h-.15c-1.54,2.28-5.15,4.71-10.08,4.71-9.78,0-17.5-7.5-17.5-20.59s8.31-20.59,17.35-20.59c5.22,0,8.61,2.35,10.52,4.85h.15v-3.75h8.09v39.2c0,11.62-7.28,17.43-17.13,17.43-8.46,0-13.83-4.34-16.11-10l6.47-4.12h0Zm18.39-27.58c0-4.34-3.31-8.46-8.97-8.46-6.1,0-10.37,4.49-10.37,13.02s4.19,13.02,10.37,13.02c5.44,0,8.97-3.75,8.97-8.16v-9.41h0Z"/><path class="cls-1" d="M827.73,147.79c-3.01,4.85-7.94,9.12-16.18,9.12-10.59,0-18.31-7.94-18.31-20.59s7.72-20.59,17.94-20.59,17.73,7.8,17.73,20.59v2.5h-27.21c.22,6.32,3.53,10.66,9.71,10.66s8.6-3.97,10.3-6.62l6.03,4.93h-.01Zm-6.99-15.3c-.29-5.22-3.31-9.34-9.56-9.34s-9.12,4.85-9.41,9.34h18.97Z"/></g></svg>