<?xml version="1.0" encoding="UTF-8"?><svg id="Layer_1" xmlns="http://www.w3.org/2000/svg" viewBox="0 0 873.28 191"><defs><style>.cls-1{fill:#fff;}</style></defs><path class="cls-1" d="M286.5,2.5h-11V135.5l-49-63.25C186.25,20.25,158.75,0,118.25,0,86.25,0,57.5,17.75,57.5,51s25.5,44,49,54.75c20,9,38.75,17.25,38.75,38,0,22.5-21,37.25-52.75,37.25-38.75,0-61.5-24.75-61.5-66V2.5H0V109.5c0,60.25,46.75,81.5,92.5,81.5,51.25,0,80-27.75,80-64.25V51l105.5,137.5h8.5V2.5Zm-125,106.5c-8.25-13.25-24.5-21.25-40-29-20-9.75-39-19-39-38.75,0-21.75,15-31.75,37-31.25s42,13.75,42,48v51Z"/><g><path class="cls-1" d="M348.05,19.75h8.71V54.15c0,6.42,3.39,10.33,10.33,10.33s10.48-3.99,10.48-10.19V19.75h8.64V54.59c0,11.22-7.68,17.93-19.12,17.93s-19.04-6.72-19.04-17.93V19.75Z"/><path class="cls-1" d="M396.91,32.3h8.12v3.76h.15c2.07-2.66,6.13-4.87,10.55-4.87,8.56,0,13.95,5.39,13.95,14.61v25.61h-8.34v-23.4c0-5.76-2.07-9.08-7.6-9.08-5.17,0-8.42,3.17-8.42,8.19v24.28h-8.41V32.3Z"/><path class="cls-1" d="M440.39,17.54h8.71v8.34h-8.71v-8.34Zm.15,14.76h8.41v39.12h-8.41V32.3Z"/><path class="cls-1" d="M455.74,32.3h8.71l10.48,27.01h.15l10.48-27.01h8.64l-15.72,39.12h-7.01l-15.72-39.12Z"/><path class="cls-1" d="M531.39,63.37c-3.02,4.87-7.97,9.15-16.24,9.15-10.63,0-18.38-7.97-18.38-20.66s7.75-20.66,18.01-20.66,17.79,7.82,17.79,20.66v2.51h-27.31c.22,6.35,3.54,10.7,9.74,10.7s8.64-3.99,10.33-6.64l6.05,4.94Zm-7.01-15.35c-.29-5.24-3.32-9.37-9.59-9.37s-9.15,4.87-9.45,9.37h19.04Z"/><path class="cls-1" d="M541.06,32.3h7.97v4.13h.15c1.55-3.03,4.8-4.87,8.12-4.87,1.4,0,2.58,.37,3.47,.74l-1.33,8.19c-.81-.22-1.77-.59-3.1-.59-4.43,0-6.86,2.95-6.86,9.74v21.77h-8.41V32.3Z"/><path class="cls-1" d="M572.5,56.51c.66,5.76,3.91,8.93,9.45,8.93s8.27-1.99,8.27-5.02-2.44-3.84-10.78-6.2c-8.85-2.51-13.14-5.54-13.14-11.44s5.02-11.59,14.39-11.59,14.24,4.87,16.01,11.44l-7.08,2.07c-1.25-3.69-3.54-6.49-8.93-6.49-4.43,0-6.72,2.07-6.72,4.21,0,2.58,1.62,3.25,11.51,6.05,9.89,2.8,12.33,6.42,12.33,12.1s-4.5,11.96-15.57,11.96-16.46-7.09-17.42-14.17l7.68-1.84Z"/><path class="cls-1" d="M605.94,17.54h8.71v8.34h-8.71v-8.34Zm.15,14.76h8.41v39.12h-8.41V32.3Z"/><path class="cls-1" d="M627.57,39.53h-5.9v-7.23h6.12v-9.59h7.97v9.59h9.82v7.23h-9.74v17.93c0,4.06,.81,5.83,5.09,5.83h3.1v8.12h-3.76c-9.82,0-12.69-4.43-12.69-13.06v-18.82Z"/><path class="cls-1" d="M684.25,63.37c-3.02,4.87-7.97,9.15-16.24,9.15-10.63,0-18.38-7.97-18.38-20.66s7.75-20.66,18.01-20.66,17.79,7.82,17.79,20.66v2.51h-27.31c.22,6.35,3.54,10.7,9.74,10.7s8.64-3.99,10.33-6.64l6.05,4.94Zm-7.01-15.35c-.29-5.24-3.32-9.37-9.59-9.37s-9.15,4.87-9.45,9.37h19.04Z"/><path class="cls-1" d="M695.77,39.53h-5.9v-7.23h6.12v-9.59h7.97v9.59h9.82v7.23h-9.74v17.93c0,4.06,.81,5.83,5.09,5.83h3.1v8.12h-3.76c-9.82,0-12.69-4.43-12.69-13.06v-18.82Z"/><path class="cls-1" d="M752.45,63.37c-3.02,4.87-7.97,9.15-16.24,9.15-10.63,0-18.38-7.97-18.38-20.66s7.75-20.66,18.01-20.66,17.79,7.82,17.79,20.66v2.51h-27.31c.22,6.35,3.54,10.7,9.74,10.7s8.64-3.99,10.33-6.64l6.05,4.94Zm-7.01-15.35c-.29-5.24-3.32-9.37-9.59-9.37s-9.15,4.87-9.45,9.37h19.04Z"/><path class="cls-1" d="M763.97,39.53h-5.9v-7.23h6.12v-9.59h7.97v9.59h9.82v7.23h-9.74v17.93c0,4.06,.81,5.83,5.09,5.83h3.1v8.12h-3.76c-9.82,0-12.69-4.43-12.69-13.06v-18.82Z"/><path class="cls-1" d="M349.01,102.33h8.71v8.34h-8.71v-8.34Zm.15,14.76h8.41v39.12h-8.41v-39.12Z"/><path class="cls-1" d="M387.17,136.8c1.25,8.27,3.76,12.47,11.66,12.47,6.35,0,10.04-2.73,10.04-7.01s-1.77-5.9-13.65-9.59c-11.07-3.47-15.13-8.19-15.13-14.91,0-7.45,6.05-14.32,16.98-14.32,9.15,0,17.12,4.36,18.82,14.17l-8.49,2.07c-1.26-4.58-3.76-8.12-10.33-8.12-5.83,0-8.41,2.73-8.41,6.13s1.7,4.5,13.06,8.34c12.47,4.21,15.72,8.12,15.72,15.72,0,8.71-6.94,15.57-18.67,15.57s-19.19-6.2-20.74-18.52l9.15-1.99Z"/><path class="cls-1" d="M427.91,151.19c-2.88-3.47-4.58-8.34-4.58-14.54,0-13.36,8.49-20.66,18.15-20.66,3.99,0,7.75,1.33,10.85,3.76l2.81-3.69,2.8,2.36-3.02,3.84c2.81,3.47,4.58,8.34,4.58,14.39,0,13.36-7.9,20.66-18.01,20.66-4.21,0-8.04-1.25-11.07-3.61l-2.73,3.54-2.81-2.29,3.03-3.76Zm19.56-25.24c-1.62-1.55-3.69-2.36-5.98-2.36-5.54,0-9.81,4.43-9.81,13.06,0,3.17,.52,5.76,1.48,7.75l14.32-18.45Zm-12.18,21.48c1.62,1.55,3.76,2.29,6.2,2.29,5.69,0,9.74-4.58,9.74-13.06,0-3.1-.59-5.61-1.62-7.6l-14.32,18.38Z"/><path class="cls-1" d="M468.36,117.09h7.97v4.13h.15c1.55-3.02,4.8-4.87,8.12-4.87,1.4,0,2.58,.37,3.47,.74l-1.33,8.19c-.81-.22-1.77-.59-3.1-.59-4.43,0-6.86,2.95-6.86,9.74v21.77h-8.41v-39.12Z"/><path class="cls-1" d="M517.51,152.3h-.15c-.37,.59-3.47,5.02-11.07,5.02-9.74,0-13.8-5.54-13.8-11.44,0-6.86,3.84-9.89,13.28-12.18,8.49-2.14,10.48-3.02,10.48-5.83,0-2.51-2.14-4.65-7.16-4.65-5.98,0-7.75,3.39-8.71,6.86l-7.16-2.73c1.55-6.2,6.57-11.37,15.65-11.37s15.79,4.13,15.79,14.91v25.31h-7.16v-3.91Zm-16.9-7.01c0,3.17,2.21,4.72,6.42,4.72,6.71,0,9.52-3.25,9.52-6.57v-7.82h-.15c-.44,.96-1.18,1.99-8.93,4.06-5.98,1.48-6.86,3.47-6.86,5.61Z"/><path class="cls-1" d="M534.27,117.09h8.42v24.36c0,5.83,1.99,7.82,6.86,7.82s8.05-2.51,8.05-8.41v-23.77h8.41v39.12h-8.12v-3.76h-.15c-.88,1.26-3.98,4.87-10.11,4.87-9.15,0-13.36-5.76-13.36-14.91v-25.32Z"/><path class="cls-1" d="M581.21,141.3c.66,5.76,3.91,8.93,9.45,8.93s8.27-1.99,8.27-5.02-2.44-3.84-10.78-6.2c-8.85-2.51-13.14-5.54-13.14-11.44s5.02-11.59,14.39-11.59,14.24,4.87,16.01,11.44l-7.08,2.07c-1.25-3.69-3.54-6.49-8.93-6.49-4.43,0-6.72,2.07-6.72,4.21,0,2.58,1.62,3.25,11.51,6.05,9.89,2.81,12.33,6.42,12.33,12.1s-4.5,11.95-15.57,11.95-16.46-7.08-17.42-14.17l7.68-1.84Z"/><path class="cls-1" d="M616.13,124.33h-5.9v-7.23h6.12v-9.59h7.97v9.59h9.82v7.23h-9.74v17.93c0,4.06,.81,5.83,5.09,5.83h3.1v8.12h-3.76c-9.82,0-12.69-4.43-12.69-13.06v-18.82Z"/><path class="cls-1" d="M642.99,128.32h24.28v6.71h-24.28v-6.71Z"/><path class="cls-1" d="M679.82,104.55h9.08l20.52,36.53h.15v-36.53h8.71v51.66h-8.85l-20.74-36.53h-.15v36.53h-8.71v-51.66Z"/><path class="cls-1" d="M727.14,136.65c0-13.36,8.49-20.66,18.15-20.66s18.01,7.31,18.01,20.66-7.9,20.66-18.01,20.66-18.15-7.31-18.15-20.66Zm27.9,0c0-8.49-4.06-13.06-9.74-13.06s-9.81,4.43-9.81,13.06,4.06,13.06,9.81,13.06,9.74-4.58,9.74-13.06Z"/><path class="cls-1" d="M771.94,117.09h7.97v4.13h.15c1.55-3.02,4.8-4.87,8.12-4.87,1.4,0,2.58,.37,3.47,.74l-1.33,8.19c-.81-.22-1.77-.59-3.1-.59-4.43,0-6.86,2.95-6.86,9.74v21.77h-8.41v-39.12Z"/><path class="cls-1" d="M829.58,148.17c-3.02,4.87-7.97,9.15-16.24,9.15-10.63,0-18.38-7.97-18.38-20.66s7.75-20.66,18.01-20.66,17.79,7.82,17.79,20.66v2.51h-27.31c.22,6.35,3.54,10.7,9.74,10.7s8.64-3.98,10.33-6.64l6.05,4.95Zm-7.01-15.35c-.29-5.24-3.32-9.37-9.59-9.37s-9.15,4.87-9.45,9.37h19.04Z"/><path class="cls-1" d="M846.41,159.76c1.92,4.13,4.43,6.79,9.67,6.79s8.78-2.73,8.78-8.93v-5.02h-.15c-1.55,2.29-5.17,4.72-10.11,4.72-9.82,0-17.57-7.53-17.57-20.66s8.34-20.66,17.42-20.66c5.24,0,8.64,2.36,10.55,4.87h.15v-3.76h8.12v39.34c0,11.66-7.31,17.49-17.2,17.49-8.49,0-13.88-4.36-16.16-10.04l6.49-4.13Zm18.45-27.68c0-4.35-3.32-8.49-9-8.49-6.12,0-10.41,4.5-10.41,13.06s4.21,13.06,10.41,13.06c5.46,0,9-3.76,9-8.19v-9.45Z"/></g></svg>